<svg width="66" height="66" viewBox="0 0 66 66" fill="none" xmlns="http://www.w3.org/2000/svg">
<mask id="mask0_5_155" style="mask-type:alpha" maskUnits="userSpaceOnUse" x="0" y="0" width="66" height="66">
<rect y="0.333252" width="65.3333" height="65.3333" fill="#D9D9D9"/>
</mask>
<g mask="url(#mask0_5_155)">
<path d="M20.7311 60.222C19.5129 60.222 18.4752 59.7937 17.6182 58.9371C16.7616 58.0801 16.3333 57.0425 16.3333 55.8243V10.1753C16.3333 8.95714 16.7616 7.91952 17.6182 7.06248C18.4752 6.20588 19.5129 5.77759 20.7311 5.77759H44.6022C45.8204 5.77759 46.858 6.20588 47.7151 7.06248C48.5717 7.91952 49 8.95714 49 10.1753V19.1791H46.2778V15.3054H19.0555V50.6943H46.2778V46.8205H49V55.8243C49 57.0425 48.5717 58.0801 47.7151 58.9371C46.858 59.7937 45.8204 60.222 44.6022 60.222H20.7311ZM19.0555 53.4165V55.8243C19.0555 56.2435 19.23 56.6276 19.5789 56.9765C19.9278 57.3254 20.3118 57.4998 20.7311 57.4998H44.6022C45.0215 57.4998 45.4055 57.3254 45.7544 56.9765C46.1033 56.6276 46.2778 56.2435 46.2778 55.8243V53.4165H19.0555ZM19.0555 12.5831H46.2778V10.1753C46.2778 9.75612 46.1033 9.37206 45.7544 9.02316C45.4055 8.67426 45.0215 8.49981 44.6022 8.49981H20.7311C20.3118 8.49981 19.9278 8.67426 19.5789 9.02316C19.23 9.37206 19.0555 9.75612 19.0555 10.1753V12.5831ZM50.0365 34.3609H32.6666C32.178 34.3609 31.7767 34.5179 31.4627 34.8319C31.1483 35.1463 30.9911 35.5478 30.9911 36.0365V44.2031H28.2689V36.0365C28.2689 34.8183 28.6974 33.7806 29.5545 32.9236C30.4111 32.067 31.4485 31.6387 32.6666 31.6387H50.0365L44.3511 25.922L46.2778 23.9954L55.2822 32.9998L46.2778 42.0042L44.3511 40.0776L50.0365 34.3609Z" fill="#217065"/>
</g>
</svg>
