<svg width="30" height="30" viewBox="0 0 30 30" fill="none" xmlns="http://www.w3.org/2000/svg">
<mask id="mask0_5_331" style="mask-type:alpha" maskUnits="userSpaceOnUse" x="0" y="0" width="30" height="31">
<rect x="0.936646" y="0.937012" width="29.0634" height="29.0634" fill="#D9D9D9"/>
</mask>
<g mask="url(#mask0_5_331)">
<path d="M15.4683 5.78084V3.35889H27.5781V5.78084H15.4683ZM15.4683 10.6247V8.20279H27.5781V10.6247H15.4683ZM15.4683 15.4686V13.0467H27.5781V15.4686H15.4683ZM23.8846 27.5784C21.3617 27.5784 18.8692 27.0284 16.4068 25.9284C13.9445 24.8285 11.7042 23.2693 9.68593 21.251C7.66763 19.2328 6.1085 16.9924 5.00854 14.5301C3.90857 12.0678 3.35858 9.57522 3.35858 7.05236C3.35858 6.68907 3.47968 6.38632 3.72187 6.14413C3.96407 5.90193 4.26681 5.78084 4.63011 5.78084H9.53455C9.81711 5.78084 10.0694 5.87671 10.2914 6.06844C10.5134 6.26018 10.6446 6.48724 10.685 6.74962L11.4721 10.988C11.5125 11.311 11.5024 11.5834 11.4418 11.8054C11.3813 12.0274 11.2703 12.2192 11.1088 12.3807L8.17221 15.3475C8.57587 16.0943 9.05521 16.8158 9.61024 17.5122C10.1653 18.2085 10.7758 18.8795 11.4418 19.5254C12.0675 20.1511 12.7235 20.7313 13.4097 21.2662C14.0959 21.801 14.8225 22.2905 15.5894 22.7345L18.4352 19.8887C18.6169 19.707 18.854 19.5708 19.1467 19.48C19.4393 19.3892 19.7269 19.3639 20.0095 19.4043L24.1874 20.252C24.4699 20.3327 24.702 20.479 24.8837 20.691C25.0653 20.9029 25.1561 21.14 25.1561 21.4024V26.3069C25.1561 26.6702 25.035 26.9729 24.7928 27.2151C24.5506 27.4573 24.2479 27.5784 23.8846 27.5784ZM7.02178 13.0467L9.01989 11.0486L8.50523 8.20279H5.81081C5.91172 9.03029 6.053 9.84769 6.23465 10.655C6.41629 11.4623 6.67867 12.2596 7.02178 13.0467ZM17.86 23.8849C18.6471 24.228 19.4494 24.5005 20.2668 24.7023C21.0842 24.9041 21.9067 25.0353 22.7342 25.0959V22.4317L19.8884 21.8565L17.86 23.8849Z" fill="#217065"/>
</g>
</svg>
