<svg width="66" height="66" viewBox="0 0 66 66" fill="none" xmlns="http://www.w3.org/2000/svg">
<mask id="mask0_5_190" style="mask-type:alpha" maskUnits="userSpaceOnUse" x="0" y="0" width="66" height="66">
<rect y="0.333252" width="65.3333" height="65.3333" fill="#D9D9D9"/>
</mask>
<g mask="url(#mask0_5_190)">
<path d="M24.7933 32.3404L31.0122 26.1052L25.4215 20.4988L22.2698 23.6504L20.3432 21.7238L23.4792 18.5721L18.1654 13.2583L11.9308 19.4936L24.7933 32.3404ZM46.1206 53.6833L52.3558 47.4488L47.042 42.135L43.8904 45.271L41.9644 43.3443L45.0997 40.1927L39.5457 34.6543L33.3261 40.8733L46.1206 53.6833ZM19.4741 54.7777H10.8889V46.1925L22.851 34.2303L8.16666 19.4936L18.1654 9.49487L32.9702 24.2466L45.131 12.0701C45.4314 11.7702 45.7474 11.5538 46.079 11.4208C46.4103 11.2884 46.7644 11.2221 47.1414 11.2221C47.5184 11.2221 47.8728 11.2884 48.2044 11.4208C48.5361 11.5538 48.8519 11.7702 49.1518 12.0701L53.5965 16.6877C53.8964 16.9876 54.1039 17.3033 54.2192 17.635C54.3344 17.9667 54.392 18.321 54.392 18.698C54.392 19.0746 54.3344 19.4174 54.2192 19.7263C54.1039 20.0353 53.8964 20.3398 53.5965 20.6397L41.5397 32.7644L56.1717 47.5012L46.173 57.4999L31.4362 42.8156L19.4741 54.7777ZM13.6111 52.0555H18.3124L45.0426 25.3409L40.3256 20.624L13.6111 47.3542V52.0555ZM42.7178 22.9644L40.3256 20.624L45.0426 25.3409L42.7178 22.9644Z" fill="#217065"/>
</g>
</svg>
