<svg width="29" height="30" viewBox="0 0 29 30" fill="none" xmlns="http://www.w3.org/2000/svg">
<mask id="mask0_5_339" style="mask-type:alpha" maskUnits="userSpaceOnUse" x="0" y="0" width="29" height="30">
<rect x="0.0837402" y="0.584961" width="28.7691" height="28.7691" fill="#D9D9D9"/>
</mask>
<g mask="url(#mask0_5_339)">
<path d="M14.4683 26.9567C12.3506 26.9567 10.6224 26.622 9.28384 25.9527C7.94528 25.2835 7.276 24.4194 7.276 23.3605C7.276 22.6613 7.56569 22.0519 8.14507 21.5325C8.72445 21.0131 9.52359 20.6035 10.5425 20.3038L11.2318 22.5814C10.8921 22.6813 10.5824 22.8061 10.3027 22.956C10.0231 23.1058 9.83325 23.2407 9.73336 23.3605C9.99308 23.6802 10.5924 23.9599 11.5314 24.1996C12.4704 24.4394 13.4494 24.5592 14.4683 24.5592C15.4872 24.5592 16.4711 24.4394 17.4201 24.1996C18.3691 23.9599 18.9734 23.6802 19.2332 23.3605C19.1333 23.2407 18.9435 23.1058 18.6638 22.956C18.3841 22.8061 18.0744 22.6813 17.7348 22.5814L18.424 20.3038C19.4429 20.6035 20.2371 21.0131 20.8065 21.5325C21.3759 22.0519 21.6605 22.6613 21.6605 23.3605C21.6605 24.4194 20.9913 25.2835 19.6527 25.9527C18.3141 26.622 16.586 26.9567 14.4683 26.9567ZM14.4683 18.9553C14.8279 18.296 15.2075 17.6916 15.6071 17.1422C16.0066 16.5928 16.3962 16.0684 16.7758 15.5689C17.515 14.6099 18.1044 13.7459 18.5439 12.9767C18.9834 12.2075 19.2032 11.2535 19.2032 10.1148C19.2032 8.79618 18.7437 7.67738 17.8247 6.75837C16.9057 5.83935 15.7869 5.37985 14.4683 5.37985C13.1497 5.37985 12.0309 5.83935 11.1119 6.75837C10.1929 7.67738 9.73336 8.79618 9.73336 10.1148C9.73336 11.2535 9.95313 12.2075 10.3927 12.9767C10.8322 13.7459 11.4215 14.6099 12.1608 15.5689C12.5403 16.0684 12.9299 16.5928 13.3295 17.1422C13.7291 17.6916 14.1087 18.296 14.4683 18.9553ZM14.4683 23.3605C14.2485 23.3605 14.0487 23.2956 13.8689 23.1657C13.6891 23.0359 13.5593 22.8611 13.4793 22.6413C13.0198 21.2228 12.4405 20.0341 11.7412 19.0751C11.042 18.1162 10.3627 17.1972 9.70339 16.3181C9.06408 15.439 8.50968 14.53 8.04018 13.591C7.57068 12.652 7.33594 11.4933 7.33594 10.1148C7.33594 8.11691 8.0252 6.42872 9.40372 5.0502C10.7822 3.67168 12.4704 2.98242 14.4683 2.98242C16.4661 2.98242 18.1543 3.67168 19.5328 5.0502C20.9114 6.42872 21.6006 8.11691 21.6006 10.1148C21.6006 11.4933 21.3709 12.652 20.9114 13.591C20.4518 14.53 19.8924 15.439 19.2332 16.3181C18.5938 17.1972 17.9196 18.1162 17.2103 19.0751C16.5011 20.0341 15.9167 21.2228 15.4572 22.6413C15.3773 22.8611 15.2474 23.0359 15.0676 23.1657C14.8878 23.2956 14.688 23.3605 14.4683 23.3605ZM14.4683 12.662C15.1675 12.662 15.7669 12.4123 16.2663 11.9128C16.7658 11.4134 17.0155 10.814 17.0155 10.1148C17.0155 9.41551 16.7658 8.81616 16.2663 8.31669C15.7669 7.81723 15.1675 7.5675 14.4683 7.5675C13.769 7.5675 13.1697 7.81723 12.6702 8.31669C12.1707 8.81616 11.921 9.41551 11.921 10.1148C11.921 10.814 12.1707 11.4134 12.6702 11.9128C13.1697 12.4123 13.769 12.662 14.4683 12.662Z" fill="#217065"/>
</g>
</svg>
