<svg width="716" height="817" viewBox="0 0 716 817" fill="none" xmlns="http://www.w3.org/2000/svg">
<path d="M319.052 122.633C343.153 108.718 372.847 108.718 396.948 122.633L629.089 256.66C653.19 270.574 668.037 296.29 668.037 324.119V592.173C668.037 620.002 653.19 645.718 629.089 659.633L396.948 793.659C372.847 807.574 343.153 807.574 319.052 793.659L86.9107 659.633C62.8097 645.718 47.9629 620.002 47.9629 592.173V324.119C47.9629 296.29 62.8097 270.574 86.9107 256.66L319.052 122.633Z" fill="#217065" fill-opacity="0.38"/>
<path d="M319.004 155.776C343.129 141.825 372.87 141.825 396.996 155.776L599.566 272.923C623.64 286.845 638.466 312.545 638.466 340.355V574.87C638.466 602.68 623.64 628.38 599.566 642.302L396.996 759.449C372.87 773.4 343.129 773.4 319.004 759.449L116.434 642.302C92.3601 628.38 77.5342 602.68 77.5342 574.87V340.355C77.5342 312.545 92.3601 286.845 116.434 272.923L319.004 155.776Z" fill="#217065" fill-opacity="0.38"/>
<path d="M319.107 195.119C343.18 181.247 372.82 181.247 396.893 195.119L566.195 292.683C590.327 306.59 605.198 332.323 605.198 360.175V555.05C605.198 582.902 590.327 608.635 566.195 622.542L396.893 720.106C372.82 733.978 343.18 733.978 319.107 720.106L149.804 622.542C125.673 608.635 110.802 582.902 110.802 555.05V360.175C110.802 332.323 125.673 306.59 149.804 292.683L319.107 195.119Z" fill="#217065"/>
<path d="M150.292 105.051C149.962 105.811 149.079 106.159 148.319 105.829L135.937 100.45C135.177 100.119 134.829 99.2359 135.159 98.4761C135.489 97.7163 136.373 97.3679 137.132 97.698L148.138 102.48L152.92 91.4735C153.25 90.7137 154.134 90.3654 154.894 90.6955C155.653 91.0256 156.002 91.9091 155.672 92.669L150.292 105.051ZM39.9763 94.1136L41.4696 94.2551L39.9763 94.1136ZM147.521 105.003C144.383 97.0431 136.509 89.88 126.105 84.2534C115.741 78.6481 103.074 74.6827 90.6876 73.0023C78.2809 71.3192 66.3061 71.9484 57.2713 75.3837C48.2997 78.7949 42.3565 84.895 41.4696 94.2551L38.483 93.9721C39.5054 83.1815 46.4713 76.2805 56.2051 72.5795C65.8758 68.9025 78.4028 68.3082 91.0909 70.0295C103.799 71.7536 116.819 75.8205 127.532 81.6146C138.206 87.3873 146.798 94.9906 150.312 103.903L147.521 105.003ZM41.4696 94.2551C41.0923 98.2374 42.2242 100.308 43.7689 101.335C45.4293 102.439 48.049 102.68 51.2859 101.913C57.7369 100.385 65.3746 95.1448 69.0409 88.7037C70.8538 85.5187 71.6438 82.1366 70.9607 78.8036C70.2795 75.4803 68.0872 71.9783 63.4959 68.6329C54.2327 61.8835 35.5729 56.049 1.9036 53.8818L2.09631 50.888C35.8702 53.0619 55.2704 58.9277 65.2626 66.2083C70.2989 69.8779 73.033 73.9733 73.8996 78.2013C74.7641 82.4196 73.7229 86.5426 71.6481 90.1877C67.5389 97.407 59.1752 103.128 51.9773 104.832C48.3897 105.682 44.7731 105.606 42.1076 103.833C39.3264 101.984 38.0429 98.6168 38.483 93.9721L41.4696 94.2551Z" fill="#217065"/>
</svg>
