<svg width="30" height="30" viewBox="0 0 30 30" fill="none" xmlns="http://www.w3.org/2000/svg">
<circle cx="15" cy="15" r="15" fill="#217065"/>
<path d="M19.3014 6.52198H15.8155C15.8075 6.52192 15.7996 6.52227 15.7917 6.523C12.2722 6.53374 11.8126 8.91333 11.8107 10.9931C11.8058 11.0128 11.8033 11.033 11.8033 11.0532V12.5133H9.39466C9.3246 12.5133 9.25741 12.5402 9.20787 12.5882C9.15832 12.6362 9.13049 12.7012 9.13049 12.7691V16.3698C9.13049 16.4376 9.15832 16.5027 9.20787 16.5506C9.25741 16.5986 9.3246 16.6256 9.39466 16.6256H11.8033V24.5271C11.8033 24.5949 11.8311 24.66 11.8807 24.7079C11.9302 24.7559 11.9974 24.7828 12.0675 24.7828H15.5827C15.6528 24.7828 15.72 24.7559 15.7695 24.7079C15.8191 24.66 15.8469 24.5949 15.8469 24.5271V16.6258H19.3011C19.3712 16.6258 19.4384 16.5989 19.4879 16.5509C19.5374 16.5029 19.5653 16.4379 19.5653 16.37V12.7693C19.5653 12.7015 19.5374 12.6364 19.4879 12.5884C19.4384 12.5405 19.3712 12.5135 19.3011 12.5135H15.5827V10.578H19.3011C19.3712 10.578 19.4384 10.551 19.4879 10.5031C19.5374 10.4551 19.5653 10.39 19.5653 10.3222V6.77776C19.5653 6.74419 19.5585 6.71093 19.5453 6.6799C19.532 6.64887 19.5126 6.62067 19.4881 6.59691C19.4636 6.57316 19.4345 6.55431 19.4024 6.54145C19.3704 6.5286 19.3361 6.52198 19.3014 6.52198Z" fill="#F4F4F4"/>
</svg>
