<svg width="31" height="30" viewBox="0 0 31 30" fill="none" xmlns="http://www.w3.org/2000/svg">
<circle cx="15.6957" cy="15" r="15" fill="#217065"/>
<path d="M21.0746 7.8264H10.3161C10.0794 7.82257 9.84442 7.86635 9.62503 7.95515C9.40564 8.04395 9.20634 8.17595 9.03898 8.34331C8.87163 8.51066 8.73962 8.70996 8.65083 8.92935C8.56203 9.14874 8.51825 9.38375 8.52208 9.6204V20.3798C8.52208 21.3917 9.30232 22.1738 10.3161 22.1738H21.0755C21.3121 22.1775 21.547 22.1336 21.7664 22.0448C21.9857 21.9559 22.1849 21.8239 22.3523 21.6566C22.5196 21.4893 22.6516 21.29 22.7405 21.0707C22.8293 20.8513 22.8732 20.6164 22.8695 20.3798V9.6204C22.873 9.38374 22.8291 9.14877 22.7401 8.92943C22.6512 8.7101 22.5191 8.51086 22.3517 8.34354C22.1843 8.17622 21.985 8.04423 21.7656 7.9554C21.5462 7.86656 21.3112 7.8227 21.0746 7.8264ZM15.7063 12.1818C17.297 12.1818 18.5864 13.4309 18.5864 14.9731C18.5864 16.5134 17.297 17.7643 15.7063 17.7643C14.1165 17.7643 12.8271 16.5143 12.8271 14.9731C12.8271 13.4309 14.1165 12.1818 15.7063 12.1818ZM21.0746 19.9311C21.0746 20.2461 20.9399 20.3798 20.6258 20.3798H10.763C10.4489 20.3798 10.3142 20.2461 10.3142 19.9311V13.6544L11.4315 13.897C11.3087 14.2958 11.2464 14.7106 11.2465 15.1278C11.2465 17.5125 13.2438 19.4466 15.7045 19.4466C18.1661 19.4466 20.1624 17.5125 20.1624 15.1278C20.1624 14.7002 20.0974 14.2872 19.9775 13.897L21.0736 13.6544L21.0746 19.9311ZM21.0746 11.8622C21.0746 11.9812 21.0273 12.0954 20.9431 12.1795C20.859 12.2637 20.7448 12.3109 20.6258 12.3109H18.8318C18.7128 12.3109 18.5987 12.2637 18.5145 12.1795C18.4304 12.0954 18.3831 11.9812 18.3831 11.8622V10.0682C18.3831 9.9492 18.4304 9.83506 18.5145 9.75091C18.5987 9.66676 18.7128 9.61948 18.8318 9.61948H20.6258C20.7448 9.61948 20.859 9.66676 20.9431 9.75091C21.0273 9.83506 21.0746 9.9492 21.0746 10.0682V11.8622Z" fill="#F4F4F4"/>
</svg>
