<svg width="979" height="979" viewBox="0 0 979 979" fill="none" xmlns="http://www.w3.org/2000/svg">
<path d="M623.064 179.109C650.893 179.109 676.609 193.956 690.524 218.057L824.551 450.198C838.465 474.299 838.465 503.993 824.551 528.094L690.524 760.235C676.609 784.336 650.893 799.183 623.064 799.183L355.01 799.183C327.181 799.183 301.465 784.336 287.551 760.235L153.524 528.094C139.609 503.993 139.609 474.299 153.524 450.198L287.551 218.057C301.465 193.956 327.181 179.109 355.01 179.109L623.064 179.109Z" fill="#217065" fill-opacity="0.38"/>
<path d="M606.45 207.788C634.32 207.768 660.076 222.639 673.993 246.784L790.851 449.521C804.738 473.615 804.728 503.285 790.823 527.369L673.565 730.465C659.661 754.549 633.971 769.393 606.161 769.413L372.157 769.58C344.288 769.6 318.532 754.729 304.614 730.584L187.757 527.847C173.869 503.753 173.88 474.083 187.785 449.999L305.042 246.903C318.947 222.819 344.637 207.975 372.446 207.955L606.45 207.788Z" fill="#217065" fill-opacity="0.38"/>
<path d="M586.868 241.912C614.652 241.934 640.321 256.754 654.233 280.805L752.071 449.949C766.016 474.058 766.029 503.779 752.103 527.899L654.665 696.667C640.739 720.787 614.994 735.637 587.142 735.615L391.74 735.456C363.955 735.434 338.286 720.614 324.375 696.563L226.537 527.419C212.591 503.31 212.579 473.589 226.505 449.469L323.943 280.701C337.869 256.581 363.614 241.731 391.466 241.754L586.868 241.912Z" fill="#217065"/>
<rect x="222.037" y="2" width="523" height="800" fill="#C4C4C4"/>
</svg>
