<svg width="66" height="66" viewBox="0 0 66 66" fill="none" xmlns="http://www.w3.org/2000/svg">
<mask id="mask0_5_196" style="mask-type:alpha" maskUnits="userSpaceOnUse" x="0" y="0" width="66" height="66">
<rect y="0.333252" width="65.3333" height="65.3333" fill="#D9D9D9"/>
</mask>
<g mask="url(#mask0_5_196)">
<path d="M50.7797 23.9954C48.4898 23.9954 46.5015 23.259 44.8146 21.7863C43.1273 20.3136 42.123 18.4675 41.8018 16.2479H23.4635C23.1736 18.2229 22.3368 19.9111 20.953 21.3126C19.5692 22.7137 17.8898 23.5591 15.9148 23.8491V42.1349C18.1343 42.4561 19.9804 43.4604 21.4532 45.1477C22.9259 46.8346 23.6623 48.823 23.6623 51.1128C23.6623 53.6535 22.7793 55.807 21.0135 57.5733C19.2477 59.3391 17.0944 60.222 14.5537 60.222C12.013 60.222 9.85945 59.3391 8.09318 57.5733C6.32737 55.807 5.44446 53.6535 5.44446 51.1128C5.44446 48.823 6.18082 46.8346 7.65354 45.1477C9.12626 43.4604 10.9726 42.4561 13.1926 42.1349V23.8491C10.9726 23.5278 9.12626 22.5279 7.65354 20.8492C6.18082 19.1705 5.44446 17.183 5.44446 14.8868C5.44446 12.3461 6.33122 10.1926 8.10475 8.42631C9.87828 6.66049 12.0105 5.77759 14.5013 5.77759C16.7975 5.77759 18.7849 6.51395 20.4636 7.98667C22.1423 9.4594 23.1423 11.3057 23.4635 13.5257H41.8018C42.123 11.3057 43.1273 9.4594 44.8146 7.98667C46.5015 6.51395 48.4898 5.77759 50.7797 5.77759C53.285 5.77759 55.4295 6.66957 57.213 8.45353C58.9969 10.237 59.8889 12.3815 59.8889 14.8868C59.8889 17.4276 58.9969 19.5808 57.213 21.3467C55.4295 23.1125 53.285 23.9954 50.7797 23.9954ZM14.5203 57.5522C16.3188 57.5522 17.8385 56.9204 19.0794 55.6569C20.3198 54.3938 20.94 52.8902 20.94 51.1461C20.94 49.3477 20.3198 47.828 19.0794 46.5871C17.8385 45.3467 16.3188 44.7265 14.5203 44.7265C12.7763 44.7265 11.2727 45.3467 10.0096 46.5871C8.74606 47.828 8.11428 49.3477 8.11428 51.1461C8.11428 52.8902 8.74606 54.3938 10.0096 55.6569C11.2727 56.9204 12.7763 57.5522 14.5203 57.5522ZM14.5203 21.3256C16.3188 21.3256 17.8385 20.6945 19.0794 19.4323C20.3198 18.1701 20.94 16.6529 20.94 14.8807C20.94 13.1081 20.3198 11.6016 19.0794 10.3611C17.8385 9.12025 16.3188 8.49981 14.5203 8.49981C12.7763 8.49981 11.2727 9.12025 10.0096 10.3611C8.74606 11.6016 8.11428 13.1081 8.11428 14.8807C8.11428 16.6529 8.74606 18.1701 10.0096 19.4323C11.2727 20.6945 12.7763 21.3256 14.5203 21.3256ZM50.7797 60.222C48.2389 60.222 46.0856 59.3391 44.3198 57.5733C42.554 55.807 41.6711 53.6662 41.6711 51.1509C41.6711 48.6356 42.554 46.4823 44.3198 44.6911C46.0856 42.8999 48.2389 42.0042 50.7797 42.0042C53.3204 42.0042 55.4739 42.8999 57.2402 44.6911C59.006 46.4823 59.8889 48.6356 59.8889 51.1509C59.8889 53.6662 59.006 55.807 57.2402 57.5733C55.4739 59.3391 53.3204 60.222 50.7797 60.222ZM50.7858 57.5522C52.5584 57.5522 54.0649 56.9204 55.3054 55.6569C56.5462 54.3938 57.1667 52.8902 57.1667 51.1461C57.1667 49.3477 56.5462 47.828 55.3054 46.5871C54.0649 45.3467 52.5584 44.7265 50.7858 44.7265C49.0136 44.7265 47.4964 45.3467 46.2342 46.5871C44.972 47.828 44.3409 49.3477 44.3409 51.1461C44.3409 52.8902 44.972 54.3938 46.2342 55.6569C47.4964 56.9204 49.0136 57.5522 50.7858 57.5522ZM50.7858 21.3256C52.5584 21.3256 54.0649 20.6945 55.3054 19.4323C56.5462 18.1701 57.1667 16.6529 57.1667 14.8807C57.1667 13.1081 56.5462 11.6016 55.3054 10.3611C54.0649 9.12025 52.5584 8.49981 50.7858 8.49981C49.0136 8.49981 47.4964 9.12025 46.2342 10.3611C44.972 11.6016 44.3409 13.1081 44.3409 14.8807C44.3409 16.6529 44.972 18.1701 46.2342 19.4323C47.4964 20.6945 49.0136 21.3256 50.7858 21.3256Z" fill="#217065"/>
</g>
</svg>
