<svg width="28" height="28" viewBox="0 0 28 28" fill="none" xmlns="http://www.w3.org/2000/svg">
<mask id="mask0_5_323" style="mask-type:alpha" maskUnits="userSpaceOnUse" x="0" y="0" width="29" height="28">
<rect x="0.737488" y="0.737305" width="27.2627" height="27.2627" fill="#D9D9D9"/>
</mask>
<g mask="url(#mask0_5_323)">
<path d="M5.28123 23.4564C4.65646 23.4564 4.12162 23.2339 3.67671 22.789C3.23179 22.3441 3.00934 21.8093 3.00934 21.1845V7.55314C3.00934 6.92837 3.23179 6.39353 3.67671 5.94862C4.12162 5.50371 4.65646 5.28125 5.28123 5.28125H23.4564C24.0811 5.28125 24.616 5.50371 25.0609 5.94862C25.5058 6.39353 25.7282 6.92837 25.7282 7.55314V21.1845C25.7282 21.8093 25.5058 22.3441 25.0609 22.789C24.616 23.2339 24.0811 23.4564 23.4564 23.4564H5.28123ZM14.3688 15.5048L5.28123 9.82503V21.1845H23.4564V9.82503L14.3688 15.5048ZM14.3688 13.2329L23.4564 7.55314H5.28123L14.3688 13.2329ZM5.28123 9.82503V7.55314V21.1845V9.82503Z" fill="#217065"/>
</g>
</svg>
