<svg width="652" height="259" viewBox="0 0 652 259" fill="none" xmlns="http://www.w3.org/2000/svg">
<path d="M0 20C0 8.95431 8.95431 0 20 0H632C643.046 0 652 8.95431 652 20V239C652 250.046 643.046 259 632 259H20C8.95432 259 0 250.046 0 239V20Z" fill="#F4F4F4"/>
<path d="M0.533532 20C0.533532 9.24897 9.24897 0.533532 20 0.533532H632C642.751 0.533532 651.466 9.24897 651.466 20V239C651.466 249.751 642.751 258.466 632 258.466H20C9.24899 258.466 0.533532 249.751 0.533532 239V20Z" stroke="#010101" stroke-opacity="0.11" stroke-width="1.06706"/>
</svg>
