<svg width="1520" height="783" viewBox="0 0 1520 783" fill="none" xmlns="http://www.w3.org/2000/svg">
<path d="M0 20C0 8.95431 8.9543 0 20 0H1500C1511.05 0 1520 8.95431 1520 20V763C1520 774.046 1511.05 783 1500 783H20C8.95432 783 0 774.046 0 763V20Z" fill="#F4F4F4"/>
<path d="M0.533532 20C0.533532 9.24898 9.24897 0.533532 20 0.533532H1500C1510.75 0.533532 1519.47 9.24897 1519.47 20V763C1519.47 773.751 1510.75 782.466 1500 782.466H20C9.24898 782.466 0.533532 773.751 0.533532 763V20Z" stroke="#010101" stroke-opacity="0.11" stroke-width="1.06706"/>
</svg>
