<svg width="453" height="141" viewBox="0 0 453 141" fill="none" xmlns="http://www.w3.org/2000/svg">
<path d="M0.315918 19.6468C0.315918 9.03897 8.91525 0.439636 19.5231 0.439636H433.544C444.152 0.439636 452.751 9.03897 452.751 19.6468V121.018C452.751 131.626 444.152 140.225 433.544 140.225H19.5231C8.91525 140.225 0.315918 131.626 0.315918 121.018V19.6468Z" fill="#F4F4F4"/>
<path d="M0.84945 19.6468C0.84945 9.33363 9.20991 0.973168 19.5231 0.973168H433.544C443.857 0.973168 452.218 9.33363 452.218 19.6468V121.018C452.218 131.331 443.857 139.691 433.544 139.691H19.5231C9.20991 139.691 0.84945 131.331 0.84945 121.018V19.6468Z" stroke="#010101" stroke-opacity="0.11" stroke-width="1.06706"/>
</svg>
