<svg width="265" height="268" viewBox="0 0 265 268" fill="none" xmlns="http://www.w3.org/2000/svg">
<path d="M0 19.2072C0 8.59934 8.59934 0 19.2072 0H245.793C256.401 0 265 8.59934 265 19.2072V248.793C265 259.401 256.401 268 245.793 268H19.2072C8.59934 268 0 259.401 0 248.793V19.2072Z" fill="#F4F4F4"/>
<path d="M0.533532 19.2072C0.533532 8.894 8.894 0.533532 19.2072 0.533532H245.793C256.106 0.533532 264.466 8.894 264.466 19.2072V248.793C264.466 259.106 256.106 267.466 245.793 267.466H19.2072C8.894 267.466 0.533532 259.106 0.533532 248.793V19.2072Z" stroke="#010101" stroke-opacity="0.11" stroke-width="1.06706"/>
</svg>
