<svg width="1520" height="688" viewBox="0 0 1520 688" fill="none" xmlns="http://www.w3.org/2000/svg">
<path d="M0 20C0 8.95432 8.9543 0 20 0H1500C1511.05 0 1520 8.95431 1520 20V668C1520 679.046 1511.05 688 1500 688H20C8.95432 688 0 679.046 0 668V20Z" fill="#F4F4F4"/>
<path d="M0.533532 20C0.533532 9.24898 9.24897 0.533532 20 0.533532H1500C1510.75 0.533532 1519.47 9.24897 1519.47 20V668C1519.47 678.751 1510.75 687.466 1500 687.466H20C9.24898 687.466 0.533532 678.751 0.533532 668V20Z" stroke="#010101" stroke-opacity="0.11" stroke-width="1.06706"/>
</svg>
