<svg width="31" height="30" viewBox="0 0 31 30" fill="none" xmlns="http://www.w3.org/2000/svg">
<circle cx="15.3912" cy="15" r="15" fill="#217065"/>
<path d="M22.0851 11.1745C22.396 11.0114 23.1406 10.5268 23.4915 9.48665C23.4915 9.48665 22.6457 10.1079 21.4946 10.1811L21.4737 10.1929C21.172 9.85755 20.8048 9.58986 20.3955 9.40691C19.9862 9.22396 19.5439 9.12978 19.0967 9.13037C17.3157 9.13037 15.8721 10.597 15.8721 12.4062C15.8721 12.6807 15.9057 12.9473 15.9687 13.2021L15.9531 13.1784C15.9531 13.1784 12.4992 13.3794 9.24311 9.76091C9.24311 9.76091 7.80352 12.2462 10.2684 14.1469C9.7286 14.2381 8.7754 13.7447 8.7754 13.7447C8.7754 13.7447 8.82923 16.3577 11.3837 16.9975C10.97 17.1073 10.1963 17.1434 9.94455 17.0341C9.94455 17.0341 10.3222 19.0258 12.9309 19.3733C12.2653 19.7571 11.0241 20.9264 8.21741 20.7071C8.21741 20.7071 10.2328 22.3881 13.9746 22.1509C17.7165 21.9137 20.4331 19.3547 21.5304 16.6503C22.6277 13.9458 22.3224 12.406 22.3224 12.406C22.3224 12.406 23.2393 11.9171 23.8696 10.7477C23.5785 10.8363 22.4987 11.1042 22.0968 11.2034C22.0928 11.1938 22.0889 11.1842 22.0851 11.1745Z" fill="#F4F4F4"/>
</svg>
