<svg width="66" height="66" viewBox="0 0 66 66" fill="none" xmlns="http://www.w3.org/2000/svg">
<mask id="mask0_5_184" style="mask-type:alpha" maskUnits="userSpaceOnUse" x="0" y="0" width="66" height="66">
<rect y="0.333252" width="65.3333" height="65.3333" fill="#D9D9D9"/>
</mask>
<g mask="url(#mask0_5_184)">
<path d="M8.16663 39.3344V26.6652C8.16663 25.4125 8.61239 24.3402 9.50392 23.4482C10.3959 22.5567 11.4682 22.1109 12.7209 22.1109C13.974 22.1109 15.0464 22.5567 15.9379 23.4482C16.8299 24.3402 17.2759 25.4125 17.2759 26.6652V39.3344C17.2759 40.5871 16.8299 41.6595 15.9379 42.5514C15.0464 43.443 13.974 43.8887 12.7209 43.8887C11.4682 43.8887 10.3959 43.443 9.50392 42.5514C8.61239 41.6595 8.16663 40.5871 8.16663 39.3344ZM25.4425 49.3332C24.1894 49.3332 23.1432 48.9135 22.3038 48.0741C21.4645 47.2348 21.0448 46.1886 21.0448 44.9354V21.0643C21.0448 19.8111 21.4645 18.7649 22.3038 17.9255C23.1432 17.0862 24.1894 16.6665 25.4425 16.6665H39.8907C41.1439 16.6665 42.1901 17.0862 43.0294 17.9255C43.8688 18.7649 44.2885 19.8111 44.2885 21.0643V44.9354C44.2885 46.1886 43.8688 47.2348 43.0294 48.0741C42.1901 48.9135 41.1439 49.3332 39.8907 49.3332H25.4425ZM48.0574 39.3344V26.6652C48.0574 25.4125 48.5034 24.3402 49.3954 23.4482C50.2869 22.5567 51.3592 22.1109 52.6124 22.1109C53.865 22.1109 54.9374 22.5567 55.8293 23.4482C56.7209 24.3402 57.1666 25.4125 57.1666 26.6652V39.3344C57.1666 40.5871 56.7209 41.6595 55.8293 42.5514C54.9374 43.443 53.865 43.8887 52.6124 43.8887C51.3592 43.8887 50.2869 43.443 49.3954 42.5514C48.5034 41.6595 48.0574 40.5871 48.0574 39.3344ZM25.4425 46.611H39.8907C40.3794 46.611 40.7809 46.454 41.0953 46.14C41.4093 45.8256 41.5663 45.4241 41.5663 44.9354V21.0643C41.5663 20.5756 41.4093 20.1741 41.0953 19.8597C40.7809 19.5457 40.3794 19.3887 39.8907 19.3887H25.4425C24.9539 19.3887 24.5524 19.5457 24.2379 19.8597C23.924 20.1741 23.767 20.5756 23.767 21.0643V44.9354C23.767 45.4241 23.924 45.8256 24.2379 46.14C24.5524 46.454 24.9539 46.611 25.4425 46.611Z" fill="#217065"/>
</g>
</svg>
