<svg width="69" height="14" viewBox="0 0 69 14" fill="none" xmlns="http://www.w3.org/2000/svg">
<path d="M2.89981 2.37806V13.1363H5.04796V0.369629H0.105469V2.37806H2.89981Z" fill="#84CC16"/>
<path d="M11.5029 13.3459C14.3497 13.3459 16.2882 11.4597 16.2882 8.70026C16.2882 6.18536 14.5942 4.45636 12.0443 4.45636C11.1711 4.45636 10.4027 4.6834 9.79139 5.08508L10.4725 2.43046H15.5198V0.369629H8.86576L7.29394 7.05859L9.26745 7.47774C9.72153 6.81408 10.6122 6.32507 11.5902 6.32507C13.1271 6.32507 14.0178 7.33802 14.0178 8.82252C14.0178 10.3769 13.0573 11.3549 11.5553 11.3549C10.1407 11.3549 9.28491 10.4991 9.28491 9.04956H7.0669C7.0669 11.6343 8.83083 13.3459 11.5029 13.3459Z" fill="#84CC16"/>
<path d="M18.22 6.36V8.1414H21.6955V11.6343H23.4769V8.1414H26.9523V6.36H23.4769V2.88454H21.6955V6.36H18.22Z" fill="#84CC16"/>
<path d="M37.5479 8.10647V13.1363H39.7834V8.10647L44.0797 0.369629H41.6521L39.1546 5.01522C38.9276 5.43438 38.8577 5.64395 38.7006 5.95832C38.5608 5.64395 38.4386 5.36452 38.2465 5.01522L35.7316 0.369629H33.2341L37.5479 8.10647Z" fill="#84CC16"/>
<path d="M47.3999 13.3633C49.6528 13.3633 51.2246 12.2281 51.5914 10.3419H49.6179C49.3734 11.1628 48.6049 11.6169 47.4348 11.6169C46.0202 11.6169 45.2168 10.8484 45.0596 9.32899L51.5565 9.31153V8.66534C51.5565 5.97578 49.9148 4.24678 47.33 4.24678C44.7976 4.24678 43.0337 6.1155 43.0337 8.82252C43.0337 11.4946 44.8326 13.3633 47.3999 13.3633ZM47.3475 5.99324C48.6224 5.99324 49.4432 6.77915 49.4432 7.96675H45.112C45.3216 6.67437 46.09 5.99324 47.3475 5.99324Z" fill="#84CC16"/>
<path d="M55.7437 13.3633C57.0885 13.3633 58.2587 12.7521 58.6254 11.8614L58.7826 13.1363H60.6513V7.89689C60.6513 5.50423 59.2192 4.24678 56.8964 4.24678C54.5561 4.24678 53.0193 5.46931 53.0193 7.33802H54.8356C54.8356 6.42986 55.5342 5.90592 56.7916 5.90592C57.8744 5.90592 58.573 6.37747 58.573 7.5476V7.73971L55.9882 7.93182C53.9449 8.089 52.7922 9.08449 52.7922 10.6738C52.7922 12.298 53.91 13.3633 55.7437 13.3633ZM56.4423 11.7566C55.4818 11.7566 54.9578 11.3724 54.9578 10.5864C54.9578 9.88786 55.4643 9.45124 56.7916 9.32899L58.5905 9.18927V9.64336C58.5905 10.9707 57.7522 11.7566 56.4423 11.7566Z" fill="#84CC16"/>
<path d="M68.1585 4.47382C67.8092 4.3865 67.5123 4.35157 67.2154 4.35157C66.0628 4.35157 65.2419 4.9279 64.8752 5.78367L64.7529 4.52621H62.7445V13.1363H64.8752V8.94477C64.8752 7.26816 65.8357 6.44733 67.3726 6.44733H68.1585V4.47382Z" fill="#84CC16"/>
</svg>
