<svg width="63" height="63" viewBox="0 0 63 63" fill="none" xmlns="http://www.w3.org/2000/svg">
<path d="M31.2371 5.20312C16.8911 5.20312 5.24805 16.8462 5.24805 31.1922C5.24805 45.5381 16.8911 57.1812 31.2371 57.1812C45.5831 57.1812 57.2262 45.5381 57.2262 31.1922C57.2262 16.8462 45.5831 5.20312 31.2371 5.20312ZM31.2371 12.9998C35.5513 12.9998 39.0338 16.4824 39.0338 20.7966C39.0338 25.1107 35.5513 28.5933 31.2371 28.5933C26.9229 28.5933 23.4404 25.1107 23.4404 20.7966C23.4404 16.4824 26.9229 12.9998 31.2371 12.9998ZM31.2371 49.9043C24.7398 49.9043 18.9963 46.5777 15.6437 41.5358C15.7216 36.364 26.0393 33.5312 31.2371 33.5312C36.4089 33.5312 46.7526 36.364 46.8305 41.5358C43.4779 46.5777 37.7344 49.9043 31.2371 49.9043Z" fill="#1E3A8A"/>
</svg>
