<svg width="103" height="14" viewBox="0 0 103 14" fill="none" xmlns="http://www.w3.org/2000/svg">
<path d="M6.26168 13.6846C8.95123 13.6846 11.1343 12.0953 11.7106 9.73757H10.3659C9.82446 11.4142 8.25265 12.4795 6.27914 12.4795C3.53719 12.4795 1.7034 10.3838 1.7034 7.24013C1.7034 4.07902 3.53719 1.98327 6.27914 1.98327C8.23518 1.98327 9.77207 3.08354 10.296 4.8824H11.6408C11.1343 2.40242 9.02109 0.778207 6.33153 0.778207C2.80368 0.778207 0.393555 3.3979 0.393555 7.24013C0.393555 11.0823 2.76875 13.6846 6.26168 13.6846Z" fill="#1C1917"/>
<path d="M21.3776 13.4925V12.3398H15.1427V7.78153H20.7838V6.64633H15.1427V2.14045H21.3601V0.987783H13.8853V13.4925H21.3776Z" fill="#1C1917"/>
<path d="M35.0733 7.24013C35.0733 3.43283 32.6282 0.760742 29.1179 0.760742C25.6249 0.760742 23.1624 3.4503 23.1624 7.24013C23.1624 11.03 25.6075 13.702 29.1179 13.702C32.6108 13.702 35.0733 11.03 35.0733 7.24013ZM33.7809 7.24013C33.7809 10.3488 31.8773 12.497 29.1179 12.497C26.3584 12.497 24.4723 10.3663 24.4723 7.24013C24.4723 4.11395 26.3584 1.98327 29.1179 1.98327C31.8773 1.98327 33.7809 4.11395 33.7809 7.24013Z" fill="#1C1917"/>
<path d="M45.6376 13.4925H46.9475L51.6979 0.987783H50.4055L47.0872 9.66771C46.8951 10.1393 46.5807 11.0125 46.3188 11.9207C46.0393 11.0474 45.7948 10.3663 45.5328 9.68518L42.1971 0.987783H40.8523L45.6376 13.4925Z" fill="#1C1917"/>
<path d="M55.3725 13.702C57.3635 13.702 58.6734 12.7415 59.1274 10.9601H57.9748C57.6604 12.0778 56.7697 12.6716 55.39 12.6716C53.5737 12.6716 52.4909 11.484 52.4035 9.42321H59.1274V8.82941C59.1274 6.43675 57.5731 4.81254 55.2852 4.81254C52.8751 4.81254 51.2334 6.62886 51.2334 9.26602C51.2334 11.9207 52.8926 13.702 55.3725 13.702ZM55.2852 5.84295C56.8745 5.84295 57.9224 6.92576 57.9224 8.54997H52.4385C52.6481 6.89083 53.6959 5.84295 55.2852 5.84295Z" fill="#1C1917"/>
<path d="M64.5995 13.702C66.5904 13.702 67.9003 12.7415 68.3544 10.9601H67.2017C66.8873 12.0778 65.9966 12.6716 64.6169 12.6716C62.8006 12.6716 61.7178 11.484 61.6305 9.42321H68.3544V8.82941C68.3544 6.43675 66.8 4.81254 64.5121 4.81254C62.102 4.81254 60.4603 6.62886 60.4603 9.26602C60.4603 11.9207 62.1195 13.702 64.5995 13.702ZM64.5121 5.84295C66.1014 5.84295 67.1493 6.92576 67.1493 8.54997H61.6654C61.875 6.89083 62.9229 5.84295 64.5121 5.84295Z" fill="#1C1917"/>
<path d="M71.8005 13.4925V3.08354L78.699 13.4925H79.939V0.987783H78.699V11.3967L71.818 0.987783H70.543V13.4925H71.8005Z" fill="#1C1917"/>
<path d="M83.3253 2.71678C83.8143 2.71678 84.2334 2.3151 84.2334 1.82609C84.2334 1.33708 83.8143 0.917924 83.3253 0.917924C82.8362 0.917924 82.4346 1.33708 82.4346 1.82609C82.4346 2.3151 82.8362 2.71678 83.3253 2.71678ZM82.7315 13.4925H83.9365V5.03958H82.7315V13.4925Z" fill="#1C1917"/>
<path d="M85.8557 9.28349C85.8557 11.9381 87.4799 13.702 89.8726 13.702C91.7937 13.702 93.2957 12.5668 93.6973 10.8378H92.4748C92.143 11.9207 91.13 12.6192 89.8726 12.6192C88.161 12.6192 87.0433 11.2745 87.0433 9.26602C87.0433 7.18773 88.2484 5.87788 89.9599 5.87788C91.13 5.87788 92.143 6.52408 92.4574 7.69421H93.6624C93.3306 5.94774 91.8985 4.81254 89.9424 4.81254C87.4799 4.81254 85.8557 6.62886 85.8557 9.28349Z" fill="#1C1917"/>
<path d="M99.0683 13.702C101.059 13.702 102.369 12.7415 102.823 10.9601H101.67C101.356 12.0778 100.465 12.6716 99.0857 12.6716C97.2694 12.6716 96.1866 11.484 96.0993 9.42321H102.823V8.82941C102.823 6.43675 101.269 4.81254 98.9809 4.81254C96.5708 4.81254 94.9291 6.62886 94.9291 9.26602C94.9291 11.9207 96.5883 13.702 99.0683 13.702ZM98.9809 5.84295C100.57 5.84295 101.618 6.92576 101.618 8.54997H96.1342C96.3438 6.89083 97.3917 5.84295 98.9809 5.84295Z" fill="#1C1917"/>
</svg>
