<svg width="71" height="71" viewBox="0 0 71 71" fill="none" xmlns="http://www.w3.org/2000/svg">
<path d="M55.507 15.0955H49.6854V12.1847C49.6854 10.5838 48.3756 9.27393 46.7746 9.27393H23.4884C21.8875 9.27393 20.5777 10.5838 20.5777 12.1847V15.0955H14.7561C11.5543 15.0955 8.93457 17.7152 8.93457 20.917V23.8278C8.93457 31.2503 14.5233 37.3047 21.7129 38.207C23.5467 42.5732 27.4762 45.8624 32.2208 46.8229V55.8463H23.4884C21.8875 55.8463 20.5777 57.1562 20.5777 58.7571C20.5777 60.358 21.8875 61.6679 23.4884 61.6679H46.7746C48.3756 61.6679 49.6854 60.358 49.6854 58.7571C49.6854 57.1562 48.3756 55.8463 46.7746 55.8463H38.0423V46.8229C42.7869 45.8624 46.7164 42.5732 48.5502 38.207C55.7398 37.3047 61.3285 31.2503 61.3285 23.8278V20.917C61.3285 17.7152 58.7088 15.0955 55.507 15.0955ZM14.7561 23.8278V20.917H20.5777V32.0362C17.2012 30.8137 14.7561 27.6118 14.7561 23.8278ZM55.507 23.8278C55.507 27.6118 53.0619 30.8137 49.6854 32.0362V20.917H55.507V23.8278Z" fill="#84CC16"/>
</svg>
