<svg width="78" height="22" viewBox="0 0 78 22" fill="none" xmlns="http://www.w3.org/2000/svg">
<path d="M0.827148 16.7008V1.91682H11.9151V4.40321H3.91834V8.07681H10.2127V10.4512H3.91834V14.2144H12.2287V16.7008H0.827148Z" fill="#F5F5F4"/>
<path d="M13.0885 21.4048V5.50082H15.8437L16.0453 9.06242L15.6645 8.65921C15.7989 8.00215 16.0453 7.41975 16.4037 6.91201C16.7771 6.40428 17.2474 6.00855 17.8149 5.72481C18.3824 5.42615 19.017 5.27681 19.7189 5.27681C20.6298 5.27681 21.4437 5.50828 22.1605 5.97121C22.8773 6.43415 23.4373 7.09868 23.8405 7.96482C24.2586 8.81602 24.4677 9.85388 24.4677 11.0784C24.4677 12.3029 24.2586 13.3557 23.8405 14.2368C23.4224 15.1029 22.8474 15.7675 22.1157 16.2304C21.3989 16.6933 20.5776 16.9248 19.6517 16.9248C18.6661 16.9248 17.8448 16.6485 17.1877 16.096C16.5456 15.5435 16.1051 14.8491 15.8661 14.0128L16.1573 13.5424V21.4048H13.0885ZM18.7557 14.5728C19.577 14.5728 20.2192 14.2816 20.6821 13.6992C21.16 13.1019 21.3989 12.2357 21.3989 11.1008C21.3989 9.96588 21.1674 9.10721 20.7045 8.52482C20.2565 7.92748 19.6218 7.62881 18.8005 7.62881C18.2779 7.62881 17.8149 7.77068 17.4117 8.05441C17.0235 8.32321 16.7173 8.71895 16.4933 9.24161C16.2693 9.74935 16.1573 10.3691 16.1573 11.1008C16.1573 11.8027 16.2619 12.4224 16.4709 12.96C16.68 13.4827 16.9787 13.8859 17.3669 14.1696C17.7701 14.4384 18.2331 14.5728 18.7557 14.5728Z" fill="#F5F5F4"/>
<path d="M27.0779 3.88801C26.4357 3.88801 25.9579 3.75361 25.6443 3.48481C25.3307 3.20108 25.1739 2.79041 25.1739 2.25281C25.1739 1.70028 25.3307 1.28961 25.6443 1.02081C25.9579 0.737081 26.4357 0.595215 27.0779 0.595215C27.72 0.595215 28.1978 0.737081 28.5114 1.02081C28.825 1.28961 28.9818 1.70028 28.9818 2.25281C28.9818 2.79041 28.825 3.20108 28.5114 3.48481C28.1978 3.75361 27.72 3.88801 27.0779 3.88801ZM28.601 5.50082V16.7008H25.5323V5.50082H28.601Z" fill="#F5F5F4"/>
<path d="M35.3389 5.27681C36.3394 5.27681 37.1832 5.42615 37.8701 5.72481C38.572 6.00855 39.132 6.40428 39.5501 6.91201C39.9832 7.40482 40.2893 7.95735 40.4685 8.56961L37.6013 9.60001C37.452 8.92801 37.1981 8.42028 36.8397 8.07681C36.4813 7.73335 35.996 7.56161 35.3837 7.56161C34.8162 7.56161 34.3309 7.69601 33.9277 7.96482C33.5245 8.21868 33.2184 8.61441 33.0093 9.15201C32.8002 9.67468 32.6957 10.3317 32.6957 11.1232C32.6957 11.9147 32.8002 12.5717 33.0093 13.0944C33.2333 13.6171 33.5469 14.0053 33.9501 14.2592C34.3682 14.5131 34.8536 14.64 35.4061 14.64C35.8541 14.64 36.2349 14.5653 36.5485 14.416C36.8621 14.2517 37.116 14.0203 37.3101 13.7216C37.5192 13.4229 37.661 13.0645 37.7357 12.6464L40.5133 13.5424C40.349 14.2144 40.0429 14.8043 39.5949 15.312C39.1469 15.8197 38.572 16.2155 37.8701 16.4992C37.1682 16.7829 36.3544 16.9248 35.4285 16.9248C34.2786 16.9248 33.2632 16.6933 32.3821 16.2304C31.501 15.7675 30.8216 15.1029 30.3437 14.2368C29.8659 13.3707 29.6269 12.3253 29.6269 11.1008C29.6269 9.87628 29.8659 8.83095 30.3437 7.96482C30.8216 7.09868 31.4936 6.43415 32.3597 5.97121C33.2258 5.50828 34.2189 5.27681 35.3389 5.27681Z" fill="#F5F5F4"/>
<path d="M47.3234 1.91682C49.6381 1.91682 51.4301 2.55895 52.6994 3.84322C53.9688 5.11255 54.6034 6.93441 54.6034 9.30881C54.6034 11.6683 53.9688 13.4901 52.6994 14.7744C51.4301 16.0587 49.6381 16.7008 47.3234 16.7008H41.6114V1.91682H47.3234ZM47.1666 14.2368C48.5704 14.2368 49.6232 13.8187 50.325 12.9824C51.0418 12.1312 51.4002 10.9067 51.4002 9.30881C51.4002 7.71095 51.0418 6.49388 50.325 5.65761C49.6232 4.80642 48.5704 4.38081 47.1666 4.38081H44.7026V14.2368H47.1666Z" fill="#F5F5F4"/>
<path d="M60.9946 16.9248C59.8149 16.9248 58.7845 16.6933 57.9034 16.2304C57.0373 15.7675 56.3653 15.1029 55.8874 14.2368C55.4096 13.3707 55.1706 12.3253 55.1706 11.1008C55.1706 9.87628 55.4096 8.83095 55.8874 7.96482C56.3653 7.09868 57.0298 6.43415 57.881 5.97121C58.7472 5.50828 59.7327 5.27681 60.8378 5.27681C61.9727 5.27681 62.9359 5.50828 63.7274 5.97121C64.5189 6.41921 65.1237 7.03895 65.5418 7.83041C65.9599 8.60695 66.169 9.49548 66.169 10.496C66.169 10.7947 66.1615 11.0784 66.1466 11.3472C66.1317 11.616 66.1093 11.8549 66.0794 12.064H57.1418V9.93602H64.7354L63.257 10.4736C63.257 9.53281 63.0405 8.80855 62.6074 8.30081C62.1893 7.79308 61.5919 7.53921 60.8154 7.53921C60.248 7.53921 59.7552 7.67361 59.337 7.94241C58.9338 8.21121 58.6277 8.61441 58.4186 9.15201C58.2096 9.67468 58.105 10.3392 58.105 11.1456C58.105 11.9371 58.217 12.5941 58.441 13.1168C58.68 13.6245 59.0085 14.0053 59.4266 14.2592C59.8597 14.5131 60.3749 14.64 60.9722 14.64C61.6293 14.64 62.1594 14.5131 62.5626 14.2592C62.9658 14.0053 63.2794 13.6544 63.5034 13.2064L65.945 14.1472C65.7061 14.7296 65.3402 15.2299 64.8474 15.648C64.3695 16.0661 63.7946 16.3872 63.1226 16.6112C62.4655 16.8203 61.7562 16.9248 60.9946 16.9248Z" fill="#F5F5F4"/>
<path d="M74.1669 5.50082H77.3477L73.0917 16.7008H69.5525L65.2965 5.50082H68.5893L71.3445 14.3488L74.1669 5.50082Z" fill="#F5F5F4"/>
</svg>
