<svg width="91" height="17" viewBox="0 0 91 17" fill="none" xmlns="http://www.w3.org/2000/svg">
<path d="M7.71499 12.9076V11.7549H1.48011V7.19661H7.12119V6.06141H1.48011V1.55553H7.69753V0.402867H0.222656V12.9076H7.71499Z" fill="#1C1917"/>
<path d="M10.3381 12.9076L12.6958 9.51941L15.071 12.9076H16.5031L13.5167 8.69857L16.5206 4.45466H15.1234L12.7482 7.84281L10.3556 4.45466H8.94093L11.9448 8.68111L8.92346 12.9076H10.3381Z" fill="#1C1917"/>
<path d="M17.954 16.5926H19.1591V11.2833C19.7529 12.5059 20.8881 13.1171 22.3202 13.1171C24.8177 13.1171 26.2323 11.196 26.2323 8.64618C26.2323 6.09634 24.7653 4.22762 22.3202 4.22762C20.9056 4.22762 19.718 4.85635 19.1242 6.1662L19.0019 4.45466H17.954V16.5926ZM19.1766 8.68111C19.1766 6.72507 20.2594 5.3279 22.1106 5.3279C23.9444 5.3279 25.0098 6.72507 25.0098 8.68111C25.0098 10.6197 23.9444 12.0343 22.1106 12.0343C20.2594 12.0343 19.1766 10.6197 19.1766 8.68111Z" fill="#1C1917"/>
<path d="M31.6985 13.1171C33.6894 13.1171 34.9993 12.1566 35.4534 10.3752H34.3007C33.9863 11.4929 33.0956 12.0867 31.7159 12.0867C29.8996 12.0867 28.8168 10.8991 28.7295 8.83829H35.4534V8.24449C35.4534 5.85184 33.899 4.22762 31.6111 4.22762C29.201 4.22762 27.5593 6.04395 27.5593 8.68111C27.5593 11.3357 29.2185 13.1171 31.6985 13.1171ZM31.6111 5.25804C33.2004 5.25804 34.2483 6.34085 34.2483 7.96506H28.7644C28.974 6.30592 30.0218 5.25804 31.6111 5.25804Z" fill="#1C1917"/>
<path d="M41.7986 4.34988C41.5017 4.28002 41.2747 4.26255 41.0127 4.26255C39.8251 4.26255 38.9344 4.85635 38.6026 5.76451L38.5153 4.45466H37.3801V12.9076H38.5851V8.08731C38.5851 6.48056 39.5806 5.43268 41.135 5.43268H41.7986V4.34988Z" fill="#1C1917"/>
<path d="M43.9944 2.13187C44.4834 2.13187 44.9025 1.73018 44.9025 1.24117C44.9025 0.752159 44.4834 0.333008 43.9944 0.333008C43.5054 0.333008 43.1037 0.752159 43.1037 1.24117C43.1037 1.73018 43.5054 2.13187 43.9944 2.13187ZM43.4006 12.9076H44.6056V4.45466H43.4006V12.9076Z" fill="#1C1917"/>
<path d="M50.664 13.1171C52.6549 13.1171 53.9648 12.1566 54.4189 10.3752H53.2662C52.9518 11.4929 52.0611 12.0867 50.6814 12.0867C48.8651 12.0867 47.7823 10.8991 47.695 8.83829H54.4189V8.24449C54.4189 5.85184 52.8645 4.22762 50.5766 4.22762C48.1665 4.22762 46.5248 6.04395 46.5248 8.68111C46.5248 11.3357 48.184 13.1171 50.664 13.1171ZM50.5766 5.25804C52.1659 5.25804 53.2138 6.34085 53.2138 7.96506H47.7299C47.9395 6.30592 48.9874 5.25804 50.5766 5.25804Z" fill="#1C1917"/>
<path d="M57.5506 12.9076V8.489C57.5506 6.58535 58.5287 5.3279 60.2577 5.3279C61.6548 5.3279 62.5455 6.02648 62.5455 7.99999V12.9076H63.7506V7.73802C63.7506 5.60733 62.79 4.22762 60.4672 4.22762C59.2447 4.22762 58.127 4.83889 57.5681 5.9217L57.3935 4.45466H56.3456V12.9076H57.5506Z" fill="#1C1917"/>
<path d="M65.5586 8.69857C65.5586 11.3532 67.1828 13.1171 69.5755 13.1171C71.4966 13.1171 72.9985 11.9819 73.4002 10.2529H72.1777C71.8459 11.3357 70.8329 12.0343 69.5755 12.0343C67.8639 12.0343 66.7462 10.6895 66.7462 8.68111C66.7462 6.60282 67.9512 5.29297 69.6628 5.29297C70.8329 5.29297 71.8459 5.93916 72.1602 7.10929H73.3653C73.0334 5.36283 71.6013 4.22762 69.6453 4.22762C67.1828 4.22762 65.5586 6.04395 65.5586 8.69857Z" fill="#1C1917"/>
<path d="M78.7711 13.1171C80.7621 13.1171 82.072 12.1566 82.526 10.3752H81.3734C81.059 11.4929 80.1683 12.0867 78.7886 12.0867C76.9723 12.0867 75.8895 10.8991 75.8021 8.83829H82.526V8.24449C82.526 5.85184 80.9717 4.22762 78.6838 4.22762C76.2737 4.22762 74.632 6.04395 74.632 8.68111C74.632 11.3357 76.2912 13.1171 78.7711 13.1171ZM78.6838 5.25804C80.2731 5.25804 81.321 6.34085 81.321 7.96506H75.8371C76.0466 6.30592 77.0945 5.25804 78.6838 5.25804Z" fill="#1C1917"/>
<path d="M83.7367 10.5324C83.7367 12.1042 84.9243 13.1171 86.8279 13.1171C88.749 13.1171 90.0414 12.1216 90.0414 10.6022C90.0414 9.37969 89.3778 8.69857 87.9107 8.33182L86.4612 7.96506C85.5355 7.73802 85.0815 7.28394 85.0815 6.63775C85.0815 5.72958 85.7451 5.22311 86.9327 5.22311C88.0679 5.22311 88.749 5.79944 88.784 6.77746H89.9541C89.9017 5.20564 88.749 4.22762 86.9677 4.22762C85.1513 4.22762 83.9113 5.17072 83.9113 6.65521C83.9113 7.80788 84.6274 8.57632 86.0944 8.94308L87.544 9.30984C88.5395 9.55434 88.8888 9.95603 88.8888 10.6546C88.8888 11.5628 88.1203 12.1216 86.8105 12.1216C85.6229 12.1216 84.8894 11.5104 84.8894 10.5324H83.7367Z" fill="#1C1917"/>
</svg>
