<svg width="20" height="20" viewBox="0 0 20 20" fill="none" xmlns="http://www.w3.org/2000/svg">
<path d="M19.5881 5.19109C19.3574 4.33443 18.682 3.65898 17.8253 3.42833C16.2602 3 9.99996 3 9.99996 3C9.99996 3 3.73969 3 2.17462 3.41186C1.33443 3.6425 0.642501 4.33443 0.41186 5.19109C0 6.75616 0 10.0016 0 10.0016C0 10.0016 0 13.2635 0.41186 14.8121C0.642501 15.6688 1.31795 16.3443 2.17462 16.5749C3.75616 17.0032 9.99996 17.0032 9.99996 17.0032C9.99996 17.0032 16.2602 17.0032 17.8253 16.5914C18.682 16.3607 19.3574 15.6853 19.5881 14.8286C19.9999 13.2635 19.9999 10.0181 19.9999 10.0181C19.9999 10.0181 20.0164 6.75616 19.5881 5.19109Z" fill="white"/>
<path d="M8.00684 12.9996L13.2127 10.0013L8.00684 7.00293V12.9996Z" fill="#78716C"/>
</svg>
