<svg width="20" height="20" viewBox="0 0 20 20" fill="none" xmlns="http://www.w3.org/2000/svg">
<g clip-path="url(#clip0_79_2446)">
<path d="M10 19.6875C15.3503 19.6875 19.6875 15.3503 19.6875 10C19.6875 4.64974 15.3503 0.3125 10 0.3125C4.64974 0.3125 0.3125 4.64974 0.3125 10C0.3125 15.3503 4.64974 19.6875 10 19.6875Z" fill="#78716C"/>
<path fill-rule="evenodd" clip-rule="evenodd" d="M10 0C4.4794 0 0 4.4794 0 10C0 15.5206 4.4794 20 10 20C15.5098 20 20 15.5206 20 10C20 4.4794 15.5098 0 10 0ZM16.6052 4.60955C17.7983 6.06291 18.5141 7.91757 18.5358 9.92407C18.2538 9.86988 15.4338 9.295 12.5922 9.65294C12.5271 9.51194 12.4729 9.36007 12.4078 9.20825C12.2343 8.79613 12.0391 8.37313 11.8438 7.97182C14.9891 6.692 16.4208 4.84816 16.6052 4.60955ZM10 1.47506C12.1692 1.47506 14.154 2.28851 15.6616 3.62256C15.5098 3.83948 14.2191 5.564 11.1822 6.70282C9.78307 4.13232 8.23213 2.0282 7.9935 1.70282C8.63338 1.55098 9.30588 1.47506 10 1.47506ZM6.36663 2.27766C6.59438 2.58134 8.11282 4.69631 9.53363 7.21257C5.5423 8.2755 2.01736 8.25382 1.63774 8.25382C2.19089 5.60738 3.98048 3.40564 6.36663 2.27766ZM1.45336 10.0109C1.45336 9.92407 1.45336 9.83732 1.45336 9.75057C1.82213 9.76138 5.9653 9.81563 10.2278 8.53582C10.4773 9.013 10.705 9.50107 10.9219 9.98913C10.8134 10.0217 10.6941 10.0543 10.5857 10.0868C6.18222 11.5076 3.83948 15.3904 3.64425 15.7158C2.2885 14.2083 1.45336 12.2018 1.45336 10.0109ZM10 18.5466C8.026 18.5466 6.20391 17.8742 4.76139 16.7462C4.91323 16.4317 6.64857 13.0911 11.4642 11.41C11.4859 11.3991 11.4968 11.3991 11.5184 11.3883C12.7223 14.5011 13.2104 17.1149 13.3406 17.8633C12.3102 18.308 11.1822 18.5466 10 18.5466ZM14.7614 17.0824C14.6746 16.5618 14.2191 14.0673 13.1019 10.9978C15.7809 10.5748 18.1236 11.269 18.4165 11.3666C18.0478 13.7419 16.6811 15.7918 14.7614 17.0824Z" fill="white"/>
</g>
<defs>
<clipPath id="clip0_79_2446">
<rect width="20" height="20" rx="6" fill="white"/>
</clipPath>
</defs>
</svg>
