<svg width="56" height="56" viewBox="0 0 56 56" fill="none" xmlns="http://www.w3.org/2000/svg">
<path d="M27.9997 16.3333C21.5597 16.3333 16.333 21.5599 16.333 27.9999C16.333 34.4399 21.5597 39.6666 27.9997 39.6666C34.4397 39.6666 39.6663 34.4399 39.6663 27.9999C39.6663 21.5599 34.4397 16.3333 27.9997 16.3333ZM4.66634 30.3333H9.33301C10.6163 30.3333 11.6663 29.2833 11.6663 27.9999C11.6663 26.7166 10.6163 25.6666 9.33301 25.6666H4.66634C3.38301 25.6666 2.33301 26.7166 2.33301 27.9999C2.33301 29.2833 3.38301 30.3333 4.66634 30.3333ZM46.6663 30.3333H51.333C52.6163 30.3333 53.6663 29.2833 53.6663 27.9999C53.6663 26.7166 52.6163 25.6666 51.333 25.6666H46.6663C45.383 25.6666 44.333 26.7166 44.333 27.9999C44.333 29.2833 45.383 30.3333 46.6663 30.3333ZM25.6663 4.66659V9.33325C25.6663 10.6166 26.7163 11.6666 27.9997 11.6666C29.283 11.6666 30.333 10.6166 30.333 9.33325V4.66659C30.333 3.38325 29.283 2.33325 27.9997 2.33325C26.7163 2.33325 25.6663 3.38325 25.6663 4.66659ZM25.6663 46.6666V51.3333C25.6663 52.6166 26.7163 53.6666 27.9997 53.6666C29.283 53.6666 30.333 52.6166 30.333 51.3333V46.6666C30.333 45.3833 29.283 44.3333 27.9997 44.3333C26.7163 44.3333 25.6663 45.3833 25.6663 46.6666ZM13.9763 10.6866C13.0663 9.77659 11.573 9.77659 10.6863 10.6866C9.77634 11.5966 9.77634 13.0899 10.6863 13.9766L13.1597 16.4499C14.0697 17.3599 15.563 17.3599 16.4497 16.4499C17.3363 15.5399 17.3597 14.0466 16.4497 13.1599L13.9763 10.6866ZM42.8397 39.5499C41.9297 38.6399 40.4363 38.6399 39.5497 39.5499C38.6397 40.4599 38.6397 41.9533 39.5497 42.8399L42.023 45.3133C42.933 46.2233 44.4263 46.2233 45.313 45.3133C46.223 44.4033 46.223 42.9099 45.313 42.0233L42.8397 39.5499ZM45.313 13.9766C46.223 13.0666 46.223 11.5733 45.313 10.6866C44.403 9.77659 42.9097 9.77659 42.023 10.6866L39.5497 13.1599C38.6397 14.0699 38.6397 15.5633 39.5497 16.4499C40.4597 17.3366 41.953 17.3599 42.8397 16.4499L45.313 13.9766ZM16.4497 42.8399C17.3597 41.9299 17.3597 40.4366 16.4497 39.5499C15.5397 38.6399 14.0463 38.6399 13.1597 39.5499L10.6863 42.0233C9.77634 42.9333 9.77634 44.4266 10.6863 45.3133C11.5963 46.1999 13.0897 46.2233 13.9763 45.3133L16.4497 42.8399Z" fill="#84CC16"/>
</svg>
