<svg width="33" height="32" viewBox="0 0 33 32" fill="none" xmlns="http://www.w3.org/2000/svg">
<path d="M2.68457 21.4856C2.68457 19.2133 4.52657 17.3713 6.7988 17.3713C9.07102 17.3713 10.913 19.2133 10.913 21.4856C10.913 23.7578 9.07102 25.5998 6.7988 25.5998C4.52657 25.5998 2.68457 23.7578 2.68457 21.4856Z" fill="#F5F5F4"/>
<path d="M12.5127 15.9992C12.5127 13.727 14.3547 11.885 16.6269 11.885C18.8991 11.885 20.7411 13.727 20.7411 15.9992V21.4849C20.7411 23.7571 18.8991 25.5991 16.6269 25.5991C14.3547 25.5991 12.5127 23.7571 12.5127 21.4849V15.9992Z" fill="#F5F5F4"/>
<path d="M12.5127 14.6281C12.5127 12.3559 14.3547 10.5139 16.6269 10.5139C18.8991 10.5139 20.7411 12.3559 20.7411 14.6281C20.7411 16.9004 18.8991 18.7424 16.6269 18.7424C14.3547 18.7424 12.5127 16.9004 12.5127 14.6281Z" fill="#F5F5F4"/>
<path d="M22.3418 10.5141C22.3418 8.2419 24.1838 6.3999 26.456 6.3999C28.7282 6.3999 30.5702 8.2419 30.5702 10.5141V21.4854C30.5702 23.7576 28.7282 25.5996 26.456 25.5996C24.1838 25.5996 22.3418 23.7576 22.3418 21.4854V10.5141Z" fill="#F5F5F4"/>
<path d="M22.3418 10.5141C22.3418 8.24191 24.1838 6.3999 26.456 6.3999C28.7282 6.3999 30.5702 8.24191 30.5702 10.5141C30.5702 12.7864 28.7282 14.6284 26.456 14.6284C24.1838 14.6284 22.3418 12.7864 22.3418 10.5141Z" fill="#F5F5F4"/>
</svg>
