<svg width="56" height="56" viewBox="0 0 56 56" fill="none" xmlns="http://www.w3.org/2000/svg">
<path d="M26.623 6.4611C27.4397 5.85444 28.5363 5.85444 29.3763 6.4611C32.223 8.51444 38.4997 14.8378 38.4997 30.0978C38.4997 35.1378 36.6797 41.2044 35.3263 44.9144C34.9997 45.8244 34.1363 46.4311 33.1563 46.4311H22.8663C21.8863 46.4311 20.9997 45.8244 20.673 44.9144C19.3197 41.2044 17.4997 35.1378 17.4997 30.0978C17.4997 14.8378 23.7763 8.51444 26.623 6.4611ZM32.6663 25.4311C32.6663 22.8644 30.5663 20.7644 27.9997 20.7644C25.433 20.7644 23.333 22.8644 23.333 25.4311C23.333 27.9978 25.433 30.0978 27.9997 30.0978C30.5663 30.0978 32.6663 27.9978 32.6663 25.4311ZM17.943 47.6444C16.823 44.7744 14.3963 37.9144 14.0463 31.6144L11.4097 33.3644C10.103 34.2511 9.33301 35.6978 9.33301 37.2611V47.6444C9.33301 49.3011 10.9897 50.4211 12.5297 49.8144L17.943 47.6444ZM46.6663 47.6444V37.2611C46.6663 35.6978 45.8963 34.2511 44.5897 33.3878L41.953 31.6378C41.603 37.9144 39.153 44.7978 38.0563 47.6678L43.4697 49.8378C45.0097 50.4211 46.6663 49.3011 46.6663 47.6444Z" fill="#84CC16"/>
</svg>
