<svg width="98" height="26" viewBox="0 0 98 26" fill="none" xmlns="http://www.w3.org/2000/svg">
<path d="M0.748047 16.4767C0.748047 19.6471 3.29742 21.8043 7.31759 21.8043C11.3051 21.8043 14.0832 19.7779 14.0832 16.5094C14.0832 14.0254 12.7105 12.7834 9.9977 12.1624L7.0888 11.476C5.71606 11.1492 4.997 10.5609 4.997 9.64572C4.997 8.4364 5.91217 7.71735 7.48101 7.71735C9.01717 7.71735 9.93233 8.59982 9.96502 9.97257H13.7564C13.7237 6.83487 11.2724 4.74307 7.64443 4.74307C3.91842 4.74307 1.23831 6.63876 1.23831 9.80914C1.23831 12.3912 2.64374 13.7639 5.55264 14.4176L8.46154 15.104C9.89965 15.4308 10.3245 16.0192 10.3245 16.8363C10.3245 18.0129 9.31133 18.7647 7.44833 18.7647C5.61801 18.7647 4.57211 17.8822 4.53942 16.4767H0.748047Z" fill="#F5F5F4"/>
<path d="M20.5675 21.3794V8.56714H23.7052V5.23334H20.5675V0.199951H16.58V5.23334H13.475V8.56714H16.58V21.3794H20.5675Z" fill="#F5F5F4"/>
<path d="M28.8502 21.8043C31.3668 21.8043 33.5567 20.6603 34.2431 18.9934L34.5372 21.3794H38.0344V11.5741C38.0344 7.09634 35.3543 4.74307 31.0073 4.74307C26.6276 4.74307 23.7514 7.03098 23.7514 10.5282H27.1506C27.1506 8.82861 28.4579 7.84808 30.8112 7.84808C32.8376 7.84808 34.145 8.73056 34.145 10.9204V11.2799L29.3077 11.6395C25.4837 11.9336 23.3265 13.7966 23.3265 16.7709C23.3265 19.8105 25.4183 21.8043 28.8502 21.8043ZM30.1575 18.7973C28.3599 18.7973 27.3794 18.0783 27.3794 16.6075C27.3794 15.3001 28.3272 14.483 30.8112 14.2542L34.1777 13.9927V14.8425C34.1777 17.3265 32.6088 18.7973 30.1575 18.7973Z" fill="#F5F5F4"/>
<path d="M50.0411 5.16797C49.3874 5.00455 48.8317 4.93918 48.2761 4.93918C46.119 4.93918 44.5828 6.01776 43.8964 7.61929L43.6676 5.26602H39.9089V21.3794H43.8964V13.5352C43.8964 10.3975 45.6941 8.8613 48.5703 8.8613H50.0411V5.16797Z" fill="#F5F5F4"/>
<path d="M49.4553 16.4767C49.4553 19.6471 52.0047 21.8043 56.0248 21.8043C60.0123 21.8043 62.7905 19.7779 62.7905 16.5094C62.7905 14.0254 61.4178 12.7834 58.705 12.1624L55.7961 11.476C54.4233 11.1492 53.7043 10.5609 53.7043 9.64572C53.7043 8.4364 54.6194 7.71735 56.1883 7.71735C57.7244 7.71735 58.6396 8.59982 58.6723 9.97257H62.4636C62.431 6.83487 59.9796 4.74307 56.3517 4.74307C52.6257 4.74307 49.9456 6.63876 49.9456 9.80914C49.9456 12.3912 51.351 13.7639 54.2599 14.4176L57.1688 15.104C58.6069 15.4308 59.0318 16.0192 59.0318 16.8363C59.0318 18.0129 58.0186 18.7647 56.1556 18.7647C54.3253 18.7647 53.2794 17.8822 53.2467 16.4767H49.4553Z" fill="#F5F5F4"/>
<path d="M74.733 5.23334V13.6986C74.733 16.7709 73.5237 18.2417 71.007 18.2417C68.7845 18.2417 67.5752 16.9997 67.5752 13.9274V5.23334H63.5877V15.3328C63.5877 19.2876 65.7775 21.8043 69.5035 21.8043C71.6607 21.8043 73.7525 20.7584 74.733 19.2222L75.0272 21.3794H78.7205V5.23334H74.733Z" fill="#F5F5F4"/>
<path d="M80.7962 25.8H84.7837V19.2222C85.7969 20.8564 87.8887 21.8043 90.3074 21.8043C95.1119 21.8043 97.8574 18.1436 97.8574 13.1103C97.8574 8.04419 94.8505 4.74307 90.3074 4.74307C87.856 4.74307 85.7315 5.82166 84.751 7.68466L84.4895 5.23334H80.7962V25.8ZM84.8164 13.3064C84.8164 10.3975 86.614 8.37103 89.3595 8.37103C92.1703 8.37103 93.8372 10.4301 93.8372 13.3064C93.8372 16.1826 92.1703 18.209 89.3595 18.209C86.614 18.209 84.8164 16.2153 84.8164 13.3064Z" fill="#F5F5F4"/>
</svg>
