<svg width="128" height="14" viewBox="0 0 128 14" fill="none" xmlns="http://www.w3.org/2000/svg">
<path d="M4.99651 13.7679V3.09273H0.945312V0.231934H12.6189V3.09273H8.5677V13.7679H4.99651Z" fill="#F5F5F4"/>
<path d="M17.2749 13.7679V0.231934H26.8941V2.95833H20.7117V5.53113H26.5101V8.23833H20.7117V11.0415H26.8941V13.7679H17.2749Z" fill="#F5F5F4"/>
<path d="M42.0728 13.7679L40.8632 10.9647H34.8728L33.6632 13.7679H30.1112L36.428 0.231934H39.2312L45.5672 13.7679H42.0728ZM36.0056 8.31514H39.7304L37.868 3.97593L36.0056 8.31514Z" fill="#F5F5F4"/>
<path d="M60.5126 0.231934H63.239V13.7679H60.167V6.66393L57.5558 11.5215H55.2902L52.6982 6.77913L52.6791 13.7679H49.6071V0.231934H52.3911L56.4614 7.93113L60.5126 0.231934Z" fill="#F5F5F4"/>
<path d="M71.9839 13.7679V3.09273H67.9327V0.231934H79.6063V3.09273H75.5551V13.7679H71.9839Z" fill="#F5F5F4"/>
<path d="M92.8103 13.7679L91.6007 10.9647H85.6103L84.4007 13.7679H80.8487L87.1655 0.231934H89.9687L96.3046 13.7679H92.8103ZM86.7431 8.31514H90.4679L88.6055 3.97593L86.7431 8.31514Z" fill="#F5F5F4"/>
<path d="M100.306 13.7679V0.231934H103.839V10.9071H109.599V13.7679H100.306Z" fill="#F5F5F4"/>
<path d="M127.665 13.7679H123.479L118.026 7.64313V13.7679H114.494V0.231934H118.026V6.04953L123.326 0.231934H127.454L121.482 6.66393L127.665 13.7679Z" fill="#F5F5F4"/>
</svg>
