<svg width="360" height="125" viewBox="0 0 360 125" fill="none" xmlns="http://www.w3.org/2000/svg">
<path d="M13.7338 21.9971C6.90101 19.5755 1.31595 23.8442 0 21.9345V125H360V10.4379C342.653 13.5409 329.886 25.6738 316.067 10.4691C302.248 -4.73562 299.311 3.28707 284.61 0.184072C269.91 -2.91893 263.47 34.2534 249.545 33.0655C235.621 31.8776 231.905 22.0057 217.695 19.138C200.476 15.6631 201.975 13.7167 194.318 9.2092C186.662 4.7017 179.8 1.80079 171.234 3.29128C155.162 6.08777 144.086 22.7249 130.617 25.4533C118.414 27.9251 110.866 50.3441 106.948 59.6781C102.857 69.4232 97.3376 84.217 86.4935 84.217C75.6494 84.217 66.5495 55.7752 60.487 47.3871C54.4245 38.9989 43.7549 35.3896 30.6818 31.8776C23.794 30.0272 19.1139 23.9038 13.7338 21.9971Z" fill="url(#paint0_linear_1044_846)"/>
<defs>
<linearGradient id="paint0_linear_1044_846" x1="180" y1="0" x2="180" y2="125" gradientUnits="userSpaceOnUse">
<stop stop-color="#C6BDFF"/>
<stop offset="0.807292" stop-color="#C6BDFF" stop-opacity="0"/>
</linearGradient>
</defs>
</svg>
