<svg width="362" height="88" viewBox="0 0 362 88" fill="none" xmlns="http://www.w3.org/2000/svg">
<path d="M2 23.878C3.30864 25.7827 8.86267 21.5251 15.6575 23.9404C21.0077 25.8422 25.6618 31.9498 32.5114 33.7954C45.5119 37.2984 56.1221 40.8984 62.151 49.265C68.1798 57.6315 77.2291 86 88.013 86C98.7968 86 104.286 71.2443 108.354 61.5243C112.25 52.2143 119.756 29.8532 131.891 27.3877C145.286 24.6664 156.3 8.07208 172.282 5.2828C180.801 3.79615 187.625 6.68959 195.239 11.1855C202.852 15.6814 201.362 17.6227 218.485 21.0887C232.616 23.949 236.312 33.7955 250.159 34.9803C264.006 36.1651 270.41 -0.911403 285.029 2.1836C299.648 5.2786 302.569 -2.72341 316.311 12.4421C330.053 27.6076 342.749 15.506 360 12.411" stroke="white" stroke-width="3" stroke-linecap="round" stroke-linejoin="round"/>
</svg>
