<svg width="135" height="56" viewBox="0 0 135 56" fill="none" xmlns="http://www.w3.org/2000/svg">
<g clip-path="url(#clip0_1004_795)">
<path d="M0 24.3357V29.2602C1.69031 29.259 3.36427 29.5897 4.92608 30.2333C6.4879 30.8768 7.90692 31.8207 9.10195 33.0108C10.2967 34.2005 11.2442 35.6129 11.8902 37.1674C12.5363 38.7219 12.8683 40.3879 12.8672 42.0702H17.8102C17.8057 37.3687 15.9279 32.861 12.589 29.5362C9.24998 26.2114 4.7225 24.3411 0 24.3357H0Z" fill="white"/>
<path d="M24.7202 15.4702H16.8867C20.8495 17.9704 24.2073 21.3128 26.7192 25.2576V17.4589C26.7188 16.9313 26.5081 16.4255 26.1332 16.0526C25.7584 15.6797 25.2502 15.4702 24.7202 15.4702Z" fill="white"/>
<path d="M4.92188 15.4701H0V19.9039C5.90327 19.91 11.563 22.2473 15.7373 26.4029C19.9116 30.5586 22.2595 36.1931 22.2659 42.0701H26.7188V37.1701C25.712 31.7847 23.0906 26.829 19.1999 22.9555C15.3091 19.0821 10.3313 16.4724 4.92188 15.4701Z" fill="white"/>
<path d="M38.8346 18.3982H35.6973V34.1412H38.8346V18.3982Z" fill="white"/>
<path d="M50.37 25.2191C49.8477 24.7464 49.2363 24.3817 48.5714 24.146C47.143 23.6466 45.5863 23.6466 44.1579 24.146C43.4926 24.3815 42.881 24.7463 42.3586 25.2191C41.8462 25.6894 41.4369 26.2599 41.1562 26.8949C40.8661 27.5877 40.7168 28.3308 40.7168 29.0813C40.7168 29.8319 40.8661 30.575 41.1562 31.2678C41.4358 31.9046 41.8452 32.4767 42.3586 32.9478C42.8801 33.421 43.4914 33.7856 44.1565 34.0202C45.5847 34.5204 47.1417 34.5204 48.57 34.0202C49.2353 33.7856 49.8468 33.421 50.3686 32.9478C50.8817 32.4765 51.2911 31.9045 51.5709 31.2678C51.861 30.575 52.0103 29.8319 52.0103 29.0813C52.0103 28.3308 51.861 27.5877 51.5709 26.8949C51.2905 26.2601 50.8817 25.6896 50.37 25.2191ZM48.2156 30.9353C47.7076 31.3909 47.048 31.643 46.3643 31.643C45.6805 31.643 45.021 31.3909 44.5129 30.9353C44.0859 30.4105 43.8529 29.7557 43.8529 29.0803C43.8529 28.4049 44.0859 27.7501 44.5129 27.2253C45.021 26.7697 45.6805 26.5176 46.3643 26.5176C47.048 26.5176 47.7076 26.7697 48.2156 27.2253C48.6426 27.7501 48.8756 28.4049 48.8756 29.0803C48.8756 29.7557 48.6426 30.4105 48.2156 30.9353Z" fill="white"/>
<path d="M61.6327 25.3542H61.5934C61.4483 25.1514 61.2798 24.9663 61.0913 24.8026C60.8631 24.6016 60.6103 24.4299 60.339 24.2916C59.6533 23.9413 58.892 23.7628 58.1213 23.7715C57.446 23.7597 56.778 23.9136 56.1765 24.2195C55.616 24.5085 55.1211 24.909 54.7224 25.3962C54.3159 25.8984 54.0041 26.4697 53.802 27.0825C53.5872 27.7138 53.4777 28.3759 53.4779 29.0425C53.47 29.758 53.5905 30.4692 53.8337 31.1425C54.0541 31.757 54.3976 32.3204 54.8434 32.7987C55.2875 33.2667 55.8265 33.6354 56.4247 33.8802C57.0751 34.1441 57.7721 34.275 58.4743 34.2652C58.9937 34.2563 59.5073 34.1541 59.9902 33.9635C60.5319 33.759 61.0011 33.4004 61.3395 32.9324H61.3817V33.9124C61.3935 34.2393 61.3394 34.5652 61.2226 34.8709C61.1058 35.1766 60.9288 35.456 60.7018 35.6925C60.4139 35.9461 60.0772 36.139 59.7122 36.2593C59.3472 36.3796 58.9615 36.4249 58.5784 36.3925C57.9709 36.3993 57.3689 36.2786 56.8114 36.0383C56.2568 35.7916 55.7392 35.4693 55.2737 35.0807L53.5377 37.6602C54.2473 38.2292 55.0767 38.6314 55.9642 38.8369C56.8423 39.0379 57.7406 39.1391 58.6417 39.1386C60.6217 39.1386 62.0961 38.6423 63.065 37.6497C64.0339 36.6571 64.5186 35.203 64.5191 33.2873V24.0214H61.6363L61.6327 25.3542ZM61.4443 29.9665C61.3205 30.2628 61.1392 30.5319 60.9106 30.7582C60.678 30.989 60.4052 31.1759 60.1056 31.3098C59.7944 31.4474 59.4578 31.5184 59.1173 31.5184C58.7769 31.5184 58.4402 31.4474 58.1291 31.3098C57.8334 31.174 57.5642 30.9873 57.3338 30.7582C57.1043 30.5299 56.9222 30.2589 56.798 29.9605C56.6738 29.6622 56.6098 29.3424 56.6098 29.0194C56.6098 28.6964 56.6738 28.3766 56.798 28.0783C56.9222 27.7799 57.1043 27.5089 57.3338 27.2806C57.5644 27.0515 57.8335 26.8646 58.1291 26.7283C58.4403 26.5912 58.777 26.5204 59.1173 26.5204C59.4577 26.5204 59.7943 26.5912 60.1056 26.7283C60.4051 26.8627 60.6778 27.0498 60.9106 27.2806C61.2558 27.626 61.4906 28.0653 61.5856 28.5432C61.6805 29.0211 61.6314 29.5163 61.4443 29.9665Z" fill="white"/>
<path d="M76.3055 25.2191C75.7832 24.7464 75.1719 24.3817 74.5069 24.146C73.0785 23.6466 71.5218 23.6466 70.0934 24.146C69.4282 24.3815 68.8166 24.7463 68.2941 25.2191C67.7817 25.6894 67.3724 26.2599 67.0918 26.8949C66.8017 27.5877 66.6523 28.3308 66.6523 29.0813C66.6523 29.8319 66.8017 30.575 67.0918 31.2678C67.3714 31.9046 67.7808 32.4767 68.2941 32.9478C68.8161 33.4211 69.4278 33.7857 70.0934 34.0202C71.5217 34.5204 73.0787 34.5204 74.5069 34.0202C75.1722 33.7856 75.7837 33.421 76.3055 32.9478C76.8188 32.4767 77.2283 31.9046 77.5079 31.2678C77.7979 30.575 77.9473 29.8319 77.9473 29.0813C77.9473 28.3308 77.7979 27.5877 77.5079 26.8949C77.2272 26.2599 76.8179 25.6894 76.3055 25.2191ZM74.1511 30.9353C73.6431 31.3909 72.9836 31.643 72.2998 31.643C71.6161 31.643 70.9565 31.3909 70.4485 30.9353C70.0215 30.4105 69.7885 29.7557 69.7885 29.0803C69.7885 28.4049 70.0215 27.7501 70.4485 27.2253C70.9565 26.7697 71.6161 26.5176 72.2998 26.5176C72.9836 26.5176 73.6431 26.7697 74.1511 27.2253C74.5781 27.7501 74.8111 28.4049 74.8111 29.0803C74.8111 29.7557 74.5781 30.4105 74.1511 30.9353Z" fill="white"/>
<path d="M82.1093 24.0914H80.4268V34.1413H82.1093V24.0914Z" fill="white"/>
<path d="M81.2689 18.938C81.1058 18.9349 80.9438 18.9657 80.7933 19.0285C80.6428 19.0913 80.5071 19.1847 80.3949 19.3027C80.2238 19.4744 80.1077 19.6927 80.061 19.93C80.0143 20.1674 80.0393 20.4132 80.1327 20.6364C80.2261 20.8597 80.3839 21.0504 80.586 21.1846C80.7881 21.3187 81.0256 21.3903 81.2686 21.3903C81.5115 21.3903 81.749 21.3187 81.9511 21.1846C82.1532 21.0504 82.311 20.8597 82.4044 20.6364C82.4978 20.4132 82.5228 20.1674 82.4761 19.93C82.4295 19.6927 82.3133 19.4744 82.1422 19.3027C82.0302 19.1846 81.8947 19.0912 81.7443 19.0284C81.5939 18.9656 81.432 18.9348 81.2689 18.938Z" fill="white"/>
<path d="M94.5554 25.3401C94.082 24.859 93.5127 24.482 92.884 24.2334C92.1941 23.9626 91.4579 23.8278 90.7163 23.8365C90.0177 23.8285 89.3269 23.9831 88.699 24.288C88.0806 24.5941 87.5331 25.0254 87.0917 25.5543H87.0467V24.0913H85.3662V39.0377H87.0467V32.3597H87.0896C87.4467 32.9721 87.9673 33.4741 88.5936 33.8101C89.3206 34.2153 90.1434 34.4193 90.9764 34.4009C91.6585 34.4051 92.3341 34.2698 92.9614 34.0033C93.5671 33.7475 94.1138 33.3711 94.568 32.8973C95.0292 32.413 95.3919 31.8444 95.6361 31.2229C96.1536 29.8669 96.1536 28.369 95.6361 27.0131C95.3898 26.3901 95.0226 25.8216 94.5554 25.3401ZM93.9619 30.5901C93.8051 31.0276 93.5597 31.4285 93.2411 31.768C92.9224 32.1074 92.5371 32.3781 92.1092 32.5634C91.1629 32.9492 90.1023 32.9492 89.1561 32.5634C88.7275 32.3781 88.3417 32.1072 88.0227 31.7673C87.7036 31.4275 87.458 31.0261 87.3012 30.588C86.9709 29.6355 86.9709 28.6004 87.3012 27.648C87.458 27.2098 87.7036 26.8084 88.0227 26.4686C88.3417 26.1288 88.7275 25.8578 89.1561 25.6726C90.1023 25.2867 91.1629 25.2867 92.1092 25.6726C92.5377 25.8578 92.9235 26.1288 93.2426 26.4686C93.5616 26.8084 93.8072 27.2098 93.964 27.648C94.2943 28.6004 94.2943 29.6355 93.964 30.588L93.9619 30.5901Z" fill="white"/>
<path d="M104.499 29.1203C104.18 28.8822 103.824 28.6974 103.445 28.5729C103.029 28.4331 102.603 28.3218 102.172 28.2397C101.849 28.1846 101.528 28.1131 101.212 28.0255C100.931 27.9493 100.656 27.8486 100.392 27.7245C100.181 27.629 99.9901 27.494 99.8299 27.3269C99.6936 27.1773 99.6204 26.9813 99.6253 26.7795C99.622 26.5616 99.6861 26.348 99.8088 26.1677C99.9297 25.9895 100.088 25.8393 100.272 25.7274C100.47 25.6086 100.685 25.5216 100.909 25.4698C101.139 25.4131 101.375 25.3842 101.612 25.3837C102.063 25.3697 102.509 25.4854 102.896 25.7169C103.245 25.9355 103.537 26.2335 103.748 26.5863L105.15 25.663C104.839 25.0527 104.335 24.5617 103.715 24.2665C103.09 23.9776 102.409 23.831 101.72 23.8374C101.253 23.8362 100.788 23.9013 100.34 24.0306C99.9097 24.1526 99.5017 24.3416 99.131 24.5906C98.7765 24.8288 98.4814 25.1446 98.2683 25.5139C98.0476 25.907 97.936 26.3516 97.9448 26.8019C97.9273 27.2426 98.0277 27.6802 98.2359 28.0696C98.4259 28.3952 98.691 28.6712 99.0094 28.8746C99.3608 29.0952 99.742 29.2652 100.141 29.3793C100.573 29.5081 101.026 29.6226 101.501 29.723C101.774 29.7804 102.04 29.8448 102.299 29.9162C102.541 29.9809 102.773 30.0784 102.989 30.206C103.179 30.3183 103.344 30.4681 103.474 30.6463C103.604 30.8436 103.668 31.0764 103.658 31.312C103.665 31.5594 103.598 31.8035 103.464 32.012C103.33 32.2096 103.153 32.3746 102.946 32.495C102.723 32.6277 102.478 32.7223 102.223 32.775C101.965 32.8315 101.701 32.8604 101.436 32.8611C100.912 32.8812 100.392 32.7547 99.9368 32.4957C99.5178 32.2302 99.1491 31.8932 98.8477 31.5003L97.5117 32.5314C97.9253 33.1707 98.5123 33.6804 99.2048 34.0014C99.9146 34.2818 100.674 34.417 101.437 34.399C101.934 34.3994 102.43 34.3418 102.914 34.2275C103.374 34.1215 103.812 33.9363 104.208 33.6801C104.587 33.43 104.9 33.0942 105.122 32.7001C105.364 32.2528 105.483 31.7502 105.468 31.2427C105.482 30.8063 105.393 30.3727 105.21 29.9764C105.042 29.6403 104.799 29.3473 104.499 29.1203Z" fill="white"/>
<path d="M116.622 31.7578V24.0914H114.94V28.9914C114.945 29.5197 114.883 30.0465 114.756 30.5594C114.648 30.9991 114.457 31.4143 114.194 31.783C113.943 32.1258 113.609 32.3993 113.223 32.5775C112.778 32.7739 112.296 32.8696 111.81 32.8575C111.481 32.884 111.151 32.8315 110.847 32.7044C110.543 32.5774 110.274 32.3795 110.063 32.1274C109.659 31.542 109.461 30.8396 109.5 30.1303V24.0914H107.818V30.2976C107.812 30.8602 107.889 31.4206 108.044 31.9615C108.179 32.4411 108.419 32.885 108.747 33.2614C109.075 33.6295 109.484 33.917 109.942 34.1014C110.489 34.3136 111.071 34.4159 111.657 34.4024C112.052 34.4056 112.444 34.3511 112.822 34.2407C113.164 34.1417 113.49 33.9974 113.793 33.8116C114.068 33.6429 114.318 33.437 114.537 33.1998C114.733 32.9888 114.897 32.7498 115.023 32.4907H115.065C115.065 32.7777 115.073 33.0577 115.087 33.3307C115.102 33.6037 115.109 33.8758 115.108 34.1469H116.705C116.705 33.817 116.691 33.4518 116.662 33.0514C116.632 32.651 116.619 32.2198 116.622 31.7578Z" fill="white"/>
<path d="M134.806 26.2929C134.694 25.8066 134.472 25.3519 134.159 24.9629C133.842 24.5865 133.433 24.2972 132.972 24.1229C132.392 23.9143 131.777 23.816 131.16 23.8331C130.491 23.8039 129.828 23.9801 129.262 24.3378C128.738 24.7124 128.297 25.1916 127.968 25.7448C127.882 25.5726 127.77 25.3756 127.634 25.154C127.481 24.9146 127.288 24.7038 127.062 24.531C126.785 24.3212 126.476 24.1559 126.148 24.041C125.707 23.8933 125.243 23.8241 124.777 23.8366C124.384 23.8333 123.991 23.8878 123.613 23.9983C123.272 24.0973 122.945 24.2416 122.642 24.4274C122.367 24.5963 122.117 24.8022 121.898 25.0392C121.702 25.2501 121.538 25.4891 121.413 25.7483H121.369C121.369 25.4613 121.362 25.1827 121.348 24.9083C121.334 24.6339 121.327 24.3644 121.327 24.0921H119.73C119.73 24.422 119.745 24.7872 119.773 25.1876C119.802 25.588 119.816 26.0175 119.816 26.4763V34.142H121.5V29.2462C121.495 28.7177 121.557 28.1906 121.684 27.6775C121.791 27.2376 121.982 26.8223 122.246 26.4539C122.496 26.111 122.83 25.8375 123.217 25.6594C123.661 25.4628 124.144 25.3672 124.63 25.3794C124.918 25.3549 125.207 25.4067 125.469 25.5297C125.73 25.6527 125.954 25.8423 126.118 26.0794C126.479 26.8159 126.635 27.6352 126.571 28.4524V34.1434H128.25V28.3432C128.245 27.9298 128.315 27.519 128.456 27.1301C128.58 26.7853 128.771 26.4681 129.018 26.1963C129.251 25.9418 129.534 25.7372 129.848 25.595C130.167 25.4514 130.513 25.3781 130.862 25.3801C131.278 25.365 131.691 25.4458 132.07 25.616C132.369 25.7597 132.628 25.9738 132.825 26.2397C133.014 26.5029 133.147 26.8026 133.214 27.1196C133.286 27.4512 133.322 27.7896 133.321 28.129V34.142H135V28.0429C135.006 27.4539 134.941 26.8663 134.806 26.2929Z" fill="white"/>
</g>
<defs>
<clipPath id="clip0_1004_795">
<rect width="135" height="56" fill="white"/>
</clipPath>
</defs>
</svg>
