<svg width="24" height="24" viewBox="0 0 24 24" fill="none" xmlns="http://www.w3.org/2000/svg">
<path d="M19.2974 9.22136C19.2974 13.9113 14.7665 19.5505 12.9206 21.6525C12.5067 22.1158 11.7907 22.1158 11.3768 21.6525C9.53087 19.5505 5 13.9113 5 9.22136C5 5.23209 8.19958 2 12.1487 2C16.0978 2 19.2974 5.23209 19.2974 9.22136Z" stroke="white" stroke-width="2" stroke-miterlimit="10" stroke-linecap="round" stroke-linejoin="round"/>
<path d="M12.1378 12.1146C13.7195 12.1146 15.0018 10.8194 15.0018 9.22155C15.0018 7.62376 13.7195 6.32849 12.1378 6.32849C10.5561 6.32849 9.27386 7.62376 9.27386 9.22155C9.27386 10.8194 10.5561 12.1146 12.1378 12.1146Z" stroke="white" stroke-width="2" stroke-miterlimit="10" stroke-linecap="round" stroke-linejoin="round"/>
</svg>
