<svg width="24" height="24" viewBox="0 0 24 24" fill="none" xmlns="http://www.w3.org/2000/svg">
<path d="M9.47909 1H2.60411C1.71956 1 1 1.71956 1 2.60411V6.7291C1 7.61381 1.71956 8.33337 2.60411 8.33337H9.47909C10.3638 8.33337 11.0834 7.61381 11.0834 6.7291V2.60411C11.0834 1.71956 10.3638 1 9.47909 1Z" fill="white"/>
<path d="M9.47909 10.1666H2.60411C1.71956 10.1666 1 10.8862 1 11.7709V21.3958C1 22.2804 1.71956 23 2.60411 23H9.47909C10.3638 23 11.0834 22.2804 11.0834 21.3958V11.7709C11.0834 10.8862 10.3638 10.1666 9.47909 10.1666Z" fill="white"/>
<path d="M21.3958 15.6666H14.5208C13.6361 15.6666 12.9166 16.3862 12.9166 17.2709V21.3959C12.9166 22.2804 13.6361 23 14.5208 23H21.3958C22.2804 23 22.9999 22.2804 22.9999 21.3959V17.2709C22.9999 16.3862 22.2804 15.6666 21.3958 15.6666Z" fill="white"/>
<path d="M21.3958 1H14.5208C13.6361 1 12.9166 1.71956 12.9166 2.60411V12.2291C12.9166 13.1138 13.6361 13.8334 14.5208 13.8334H21.3958C22.2804 13.8334 22.9999 13.1138 22.9999 12.2291V2.60411C22.9999 1.71956 22.2804 1 21.3958 1Z" fill="white"/>
</svg>
