<svg width="183" height="183" viewBox="0 0 183 183" fill="none" xmlns="http://www.w3.org/2000/svg">
<path d="M183 93.5333C183 142.944 142.944 183 93.5333 183C44.1222 183 4.06665 142.944 4.06665 93.5333C4.06665 44.1222 44.1222 4.06665 93.5333 4.06665C142.944 4.06665 183 44.1222 183 93.5333ZM21.96 93.5333C21.96 133.062 54.0045 165.107 93.5333 165.107C133.062 165.107 165.107 133.062 165.107 93.5333C165.107 54.0045 133.062 21.96 93.5333 21.96C54.0045 21.96 21.96 54.0045 21.96 93.5333Z" fill="#7AFF7A"/>
<path d="M93.5333 4.06665C110.033 4.06665 126.211 8.6294 140.28 17.2504C154.348 25.8715 165.758 38.215 173.249 52.9163C180.739 67.6176 184.019 84.104 182.724 100.553C181.43 117.002 175.612 132.772 165.913 146.121L151.437 135.603C159.196 124.924 163.85 112.308 164.886 99.1489C165.922 85.9899 163.298 72.8007 157.306 61.0397C151.313 49.2787 142.185 39.4039 130.93 32.507C119.676 25.6102 106.733 21.96 93.5333 21.96V4.06665Z" fill="#FFE76B"/>
<path d="M166.82 144.849C160.081 154.473 151.513 162.676 141.604 168.989C131.695 175.301 120.639 179.601 109.069 181.641C97.4986 183.681 85.6396 183.422 74.1692 180.879C62.6987 178.336 51.8415 173.559 42.2173 166.82L52.4805 152.163C60.1798 157.554 68.8656 161.376 78.042 163.41C87.2183 165.444 96.7055 165.651 105.962 164.019C115.218 162.387 124.062 158.948 131.99 153.898C139.917 148.848 146.772 142.285 152.163 134.586L166.82 144.849Z" fill="#FE5E5C"/>
</svg>
