<svg width="2683" height="1765" viewBox="0 0 2683 1765" fill="none" xmlns="http://www.w3.org/2000/svg">
<path d="M1713 517.5H929C920.44 517.5 913.5 524.44 913.5 533V1195C913.5 1203.56 920.44 1210.5 929 1210.5H1713C1721.56 1210.5 1728.5 1203.56 1728.5 1195V533C1728.5 524.44 1721.56 517.5 1713 517.5Z" fill="white" stroke="#CFCEE1"/>
<ellipse cx="1308.58" cy="879.281" rx="20.5846" ry="24.2807" fill="#FF483A"/>
<path d="M1307.07 891.421C1307.23 891.424 1307.39 891.37 1307.52 891.266C1307.65 891.162 1307.75 891.012 1307.81 890.838L1310.83 881.934L1318.38 878.372C1318.53 878.303 1318.65 878.185 1318.74 878.031C1318.83 877.877 1318.88 877.696 1318.88 877.511L1318.88 877.496C1318.87 877.308 1318.82 877.126 1318.73 876.973C1318.64 876.82 1318.51 876.703 1318.36 876.639L1301.06 869.22C1300.92 869.159 1300.77 869.147 1300.62 869.186C1300.48 869.224 1300.34 869.31 1300.24 869.435C1300.13 869.56 1300.06 869.718 1300.03 869.891C1299.99 870.063 1300 870.243 1300.05 870.409L1306.34 890.811C1306.4 890.987 1306.5 891.14 1306.63 891.249C1306.76 891.358 1306.91 891.418 1307.07 891.421L1307.07 891.421Z" fill="white"/>
</svg>
