<svg width="21" height="19" viewBox="0 0 21 19" fill="none" xmlns="http://www.w3.org/2000/svg">
<path d="M14.5656 4.54081C15.6926 4.54081 16.6062 3.64072 16.6062 2.5304C16.6062 1.42008 15.6926 0.519989 14.5656 0.519989C13.4386 0.519989 12.525 1.42008 12.525 2.5304C12.525 3.64072 13.4386 4.54081 14.5656 4.54081Z" stroke="#ADADAD" stroke-miterlimit="10" stroke-linecap="round" stroke-linejoin="round"/>
<path d="M16.5954 2.5304H20" stroke="#ADADAD" stroke-miterlimit="10" stroke-linecap="round" stroke-linejoin="round"/>
<path d="M0.840027 2.5304H12.525" stroke="#ADADAD" stroke-miterlimit="10" stroke-linecap="round" stroke-linejoin="round"/>
<path d="M6.53216 11.2704C7.65914 11.2704 8.57274 10.3703 8.57274 9.25998C8.57274 8.14966 7.65914 7.24957 6.53216 7.24957C5.40518 7.24957 4.49158 8.14966 4.49158 9.25998C4.49158 10.3703 5.40518 11.2704 6.53216 11.2704Z" stroke="#ADADAD" stroke-miterlimit="10" stroke-linecap="round" stroke-linejoin="round"/>
<path d="M8.57275 9.26001H20" stroke="#ADADAD" stroke-miterlimit="10" stroke-linecap="round" stroke-linejoin="round"/>
<path d="M0.840027 9.26001H4.50233" stroke="#ADADAD" stroke-miterlimit="10" stroke-linecap="round" stroke-linejoin="round"/>
<path d="M14.5656 18C15.6926 18 16.6062 17.0999 16.6062 15.9896C16.6062 14.8793 15.6926 13.9792 14.5656 13.9792C13.4386 13.9792 12.525 14.8793 12.525 15.9896C12.525 17.0999 13.4386 18 14.5656 18Z" stroke="#ADADAD" stroke-miterlimit="10" stroke-linecap="round" stroke-linejoin="round"/>
<path d="M16.5954 15.9896H20" stroke="#ADADAD" stroke-miterlimit="10" stroke-linecap="round" stroke-linejoin="round"/>
<path d="M0.840027 15.9896H12.525" stroke="#ADADAD" stroke-miterlimit="10" stroke-linecap="round" stroke-linejoin="round"/>
</svg>
