<svg width="24" height="25" viewBox="0 0 24 25" fill="none" xmlns="http://www.w3.org/2000/svg">
<path d="M12.0033 1.88916C9.81606 1.89174 7.71914 2.76176 6.17252 4.30838C4.62591 5.855 3.75589 7.95192 3.7533 10.1392C3.75069 11.9266 4.33454 13.6655 5.4153 15.0892C5.4153 15.0892 5.6403 15.3854 5.67705 15.4282L12.0033 22.8892L18.3326 15.4244C18.3656 15.3847 18.5913 15.0892 18.5913 15.0892L18.5921 15.0869C19.6723 13.6639 20.2559 11.9258 20.2533 10.1392C20.2507 7.95192 19.3807 5.855 17.8341 4.30838C16.2875 2.76176 14.1905 1.89174 12.0033 1.88916ZM12.0033 13.1392C11.41 13.1392 10.8299 12.9632 10.3366 12.6336C9.84325 12.3039 9.45873 11.8354 9.23167 11.2872C9.0046 10.739 8.94519 10.1358 9.06095 9.55389C9.1767 8.97195 9.46243 8.4374 9.88198 8.01784C10.3015 7.59828 10.8361 7.31256 11.418 7.1968C12 7.08105 12.6032 7.14046 13.1514 7.36752C13.6995 7.59458 14.1681 7.9791 14.4977 8.47245C14.8274 8.9658 15.0033 9.54582 15.0033 10.1392C15.0023 10.9345 14.6859 11.697 14.1235 12.2594C13.5611 12.8218 12.7986 13.1382 12.0033 13.1392Z" fill="#1E2A79"/>
</svg>
