<svg width="163" height="28" viewBox="0 0 163 28" fill="none" xmlns="http://www.w3.org/2000/svg">
<path d="M18.2108 6.60903L10.2515 6.71322L8.75791 13.552L15.4373 13.4646L14.5924 17.3334L7.91296 17.4208L5.7195 27.4641L-7.97389e-06 27.539L5.42816 2.68481L19.107 2.50575L18.2108 6.60903Z" fill="white"/>
<path d="M23.686 17.9547L21.6547 27.2555L15.9752 27.3298L21.4034 2.47569L31.8825 2.33851C35.2422 2.29453 36.6091 3.70543 35.9832 6.57121L34.464 13.5272C33.9633 15.8199 32.5951 17.2146 30.3596 17.7115L32.7737 27.1099L26.6543 27.19L24.6859 17.9416L23.686 17.9547ZM26.1867 6.50462L24.548 14.0078L27.6278 13.9674C28.0011 13.9626 28.2819 13.8939 28.4704 13.7616C28.6645 13.6032 28.7985 13.3546 28.8725 13.0159L30.093 7.42766C30.2352 6.77635 29.9597 6.45523 29.2664 6.4643L26.1867 6.50462Z" fill="white"/>
<path d="M41.3392 22.9063L49.4985 22.7994L48.6024 26.9027L34.7236 27.0844L40.1517 2.23026L53.7106 2.05276L52.8144 6.15604L44.9751 6.25866L43.6522 12.3159L50.3316 12.2284L49.4355 16.3317L42.756 16.4192L41.3392 22.9063Z" fill="white"/>
<path d="M56.6375 2.01445L62.317 1.9401L56.8889 26.7942L51.2094 26.8686L56.6375 2.01445Z" fill="white"/>
<path d="M79.3285 9.74463L73.609 9.81951L74.3174 6.57596C74.4596 5.92465 74.1708 5.6037 73.4508 5.61313L71.811 5.63459C71.091 5.64402 70.6599 5.97439 70.5177 6.6257L67.1891 21.8665C67.1094 22.2312 67.1325 22.4907 67.2584 22.6449C67.3899 22.7731 67.6557 22.8345 68.0556 22.8293L69.6955 22.8078C70.0955 22.8026 70.3897 22.7338 70.5781 22.6014C70.7722 22.443 70.9091 22.1814 70.9888 21.8167L72.0471 16.9709L70.0473 16.9971L70.8581 13.2846L78.5774 13.1836L76.5973 22.2499C75.9715 25.1156 73.9787 26.5705 70.6189 26.6145L65.4594 26.6821C62.0997 26.726 60.7328 25.3151 61.3586 22.4493L64.9091 6.19255C65.535 3.32677 67.5278 1.87189 70.8875 1.8279L76.0471 1.76036C79.4068 1.71638 80.7737 3.12728 80.1478 5.99306L79.3285 9.74463Z" fill="white"/>
<path d="M95.0477 1.51163L100.687 1.43781L95.259 26.292L89.6195 26.3658L91.8556 16.1271L86.7361 16.1941L84.4999 26.4328L78.8604 26.5066L84.2886 1.65247L89.9281 1.57865L87.6322 12.0909L92.7518 12.0238L95.0477 1.51163Z" fill="white"/>
<path d="M117.726 1.21476L116.83 5.31804L112.15 5.3793L107.618 26.1302L101.898 26.205L106.43 5.45417L101.791 5.5149L102.687 1.41163L117.726 1.21476Z" fill="white"/>
<path d="M119.835 1.18714L125.515 1.1128L120.087 25.9669L114.407 26.0413L119.835 1.18714Z" fill="white"/>
<path d="M139.885 0.924681L145.124 0.856092L139.696 25.7102L134.577 25.7773L132.269 10.961L129.017 25.85L123.818 25.9181L129.246 1.06395L134.405 0.996412L136.642 15.7746L139.885 0.924681Z" fill="white"/>
<path d="M161.978 8.6627L156.258 8.73757L156.967 5.49402C157.109 4.84271 156.82 4.52176 156.1 4.53119L154.46 4.55266C153.74 4.56208 153.309 4.89245 153.167 5.54377L149.838 20.7845C149.759 21.1492 149.782 21.4087 149.908 21.563C150.039 21.6911 150.305 21.7526 150.705 21.7473L152.345 21.7259C152.745 21.7206 153.039 21.6519 153.227 21.5195C153.421 21.3611 153.558 21.0995 153.638 20.7348L154.696 15.889L152.696 15.9152L153.507 12.2027L161.227 12.1016L159.246 21.1679C158.621 24.0337 156.628 25.4886 153.268 25.5326L148.109 25.6001C144.749 25.6441 143.382 24.2332 144.008 21.3674L147.558 5.11061C148.184 2.24483 150.177 0.789948 153.537 0.745967L158.696 0.678425C162.056 0.634444 163.423 2.04534 162.797 4.91113L161.978 8.6627Z" fill="white"/>
</svg>
