<svg width="164" height="28" viewBox="0 0 164 28" fill="none" xmlns="http://www.w3.org/2000/svg">
<path d="M18.5502 6.5331L10.5909 6.63729L9.09727 13.4761L15.7767 13.3887L14.9317 17.2575L8.25232 17.3449L6.05886 27.3882L0.339347 27.463L5.76752 2.60889L19.4463 2.42982L18.5502 6.5331Z" fill="#1E2A79"/>
<path d="M24.0254 17.8788L21.9941 27.1796L16.3145 27.2539L21.7427 2.39976L32.2218 2.26258C35.5815 2.2186 36.9484 3.6295 36.3225 6.49528L34.8033 13.4513C34.3026 15.7439 32.9345 17.1387 30.6989 17.6356L33.1131 27.034L26.9936 27.1141L25.0253 17.8657L24.0254 17.8788ZM26.5261 6.42869L24.8874 13.9318L27.9671 13.8915C28.3404 13.8866 28.6213 13.818 28.8097 13.6856C29.0038 13.5272 29.1379 13.2787 29.2119 12.94L30.4323 7.35173C30.5746 6.70042 30.2991 6.3793 29.6058 6.38837L26.5261 6.42869Z" fill="#1E2A79"/>
<path d="M41.6786 22.8303L49.8379 22.7235L48.9417 26.8268L35.0629 27.0085L40.4911 2.15433L54.0499 1.97684L53.1538 6.08011L45.3145 6.18274L43.9916 12.24L50.671 12.1525L49.7748 16.2558L43.0954 16.3432L41.6786 22.8303Z" fill="#1E2A79"/>
<path d="M56.9769 1.93852L62.6564 1.86417L57.2282 26.7183L51.5487 26.7927L56.9769 1.93852Z" fill="#1E2A79"/>
<path d="M79.6679 9.66871L73.9483 9.74358L74.6567 6.50003C74.799 5.84872 74.5101 5.52777 73.7902 5.5372L72.1503 5.55866C71.4304 5.56809 70.9993 5.89846 70.8571 6.54977L67.5285 21.7905C67.4488 22.1553 67.4719 22.4147 67.5977 22.569C67.7293 22.6971 67.995 22.7586 68.395 22.7534L70.0349 22.7319C70.4348 22.7267 70.729 22.6579 70.9175 22.5255C71.1116 22.3671 71.2485 22.1055 71.3281 21.7408L72.3865 16.895L70.3866 16.9212L71.1974 13.2087L78.9168 13.1076L76.9367 22.1739C76.3108 25.0397 74.318 26.4946 70.9583 26.5386L65.7987 26.6061C62.439 26.6501 61.0721 25.2392 61.698 22.3734L65.2485 6.11662C65.8744 3.25084 67.8672 1.79596 71.2269 1.75198L76.3865 1.68443C79.7462 1.64045 81.1131 3.05135 80.4872 5.91714L79.6679 9.66871Z" fill="#1E2A79"/>
<path d="M95.387 1.4357L101.027 1.36188L95.5984 26.216L89.9588 26.2899L92.195 16.0512L87.0754 16.1182L84.8393 26.3569L79.1998 26.4307L84.6279 1.57655L90.2675 1.50272L87.9716 12.0149L93.0911 11.9479L95.387 1.4357Z" fill="#1E2A79"/>
<path d="M118.065 1.13883L117.169 5.24211L112.489 5.30337L107.957 26.0542L102.238 26.1291L106.77 5.37824L102.13 5.43898L103.026 1.3357L118.065 1.13883Z" fill="#1E2A79"/>
<path d="M120.175 1.11122L125.854 1.03687L120.426 25.891L114.746 25.9654L120.175 1.11122Z" fill="#1E2A79"/>
<path d="M140.224 0.848754L145.464 0.780164L140.036 25.6343L134.916 25.7013L132.608 10.8851L129.356 25.7741L124.157 25.8422L129.585 0.988027L134.745 0.920484L136.981 15.6987L140.224 0.848754Z" fill="#1E2A79"/>
<path d="M162.317 8.58677L156.597 8.66164L157.306 5.4181C157.448 4.76678 157.159 4.44584 156.439 4.45526L154.799 4.47673C154.08 4.48615 153.648 4.81652 153.506 5.46784L150.178 20.7086C150.098 21.0733 150.121 21.3328 150.247 21.487C150.378 21.6152 150.644 21.6767 151.044 21.6714L152.684 21.65C153.084 21.6447 153.378 21.5759 153.567 21.4436C153.761 21.2852 153.898 21.0236 153.977 20.6588L155.036 15.8131L153.036 15.8392L153.847 12.1268L161.566 12.0257L159.586 21.092C158.96 23.9578 156.967 25.4127 153.607 25.4566L148.448 25.5242C145.088 25.5682 143.721 24.1573 144.347 21.2915L147.898 5.03468C148.524 2.1689 150.516 0.714021 153.876 0.67004L159.036 0.602497C162.395 0.558516 163.762 1.96942 163.136 4.8352L162.317 8.58677Z" fill="#1E2A79"/>
</svg>
