<svg width="48" height="49" viewBox="0 0 48 49" fill="none" xmlns="http://www.w3.org/2000/svg">
<circle cx="24" cy="24.0757" r="23.5" stroke="white"/>
<path d="M32.6667 18.7069C32.0292 18.9819 31.3354 19.1798 30.6208 19.2569C31.3627 18.8161 31.9183 18.1198 32.1833 17.2985C31.4871 17.7127 30.7245 18.0031 29.9292 18.1569C29.5967 17.8015 29.1947 17.5184 28.7481 17.3252C28.3015 17.132 27.8199 17.0329 27.3333 17.0339C25.3646 17.0339 23.7812 18.6298 23.7812 20.5881C23.7812 20.8631 23.8146 21.1381 23.8687 21.4027C20.9208 21.2485 18.2917 19.8402 16.5437 17.6839C16.2252 18.2279 16.0583 18.8473 16.0604 19.4777C16.0604 20.711 16.6875 21.7985 17.6437 22.4381C17.0802 22.4159 16.5299 22.261 16.0375 21.986V22.0298C16.0375 23.7569 17.2583 25.1881 18.8854 25.5173C18.5799 25.5966 18.2656 25.6372 17.95 25.6381C17.7187 25.6381 17.5 25.6152 17.2792 25.5839C17.7292 26.9923 19.0396 28.0152 20.6 28.0485C19.3792 29.0048 17.85 29.5673 16.1896 29.5673C15.8917 29.5673 15.6167 29.5569 15.3312 29.5235C16.9062 30.5339 18.775 31.1173 20.7875 31.1173C27.3208 31.1173 30.8958 25.7048 30.8958 21.0069C30.8958 20.8527 30.8958 20.6985 30.8854 20.5444C31.5771 20.0381 32.1833 19.411 32.6667 18.7069Z" fill="white"/>
</svg>
