<svg width="48" height="49" viewBox="0 0 48 49" fill="none" xmlns="http://www.w3.org/2000/svg">
<circle cx="24" cy="24.0757" r="23.5" stroke="white"/>
<g clip-path="url(#clip0_2_515)">
<path d="M18.1763 33.8008V20.0424H13.6033V33.8008H18.1763ZM15.8904 18.1628C17.4851 18.1628 18.4777 17.1064 18.4777 15.7861C18.448 14.4361 17.4851 13.4089 15.9207 13.4089C14.3564 13.4089 13.3335 14.4361 13.3335 15.7861C13.3335 17.1064 14.3259 18.1628 15.8605 18.1628H15.8902H15.8904ZM20.7074 33.8008H25.2804V26.1175C25.2804 25.7063 25.3101 25.2955 25.4309 25.0015C25.7615 24.18 26.5139 23.3291 27.7772 23.3291C29.432 23.3291 30.094 24.5907 30.094 26.4403V33.8007H34.6667V25.9118C34.6667 21.6858 32.4106 19.7194 29.4018 19.7194C26.9349 19.7194 25.8517 21.0984 25.25 22.0376H25.2805V20.0422H20.7075C20.7675 21.3332 20.7075 33.8005 20.7075 33.8005L20.7074 33.8008Z" fill="white"/>
</g>
<defs>
<clipPath id="clip0_2_515">
<rect width="21.3333" height="20.3918" fill="white" transform="translate(13.3333 13.4089)"/>
</clipPath>
</defs>
</svg>
