<svg width="48" height="49" viewBox="0 0 48 49" fill="none" xmlns="http://www.w3.org/2000/svg">
<circle cx="24" cy="24.0757" r="23.5" stroke="white"/>
<path fill-rule="evenodd" clip-rule="evenodd" d="M22.1644 26.4115V21.4159L26.9671 23.9226L22.1644 26.4115ZM32.7111 20.551C32.7111 20.551 32.5378 19.3253 32.0044 18.7857C31.3289 18.0782 30.5706 18.0746 30.2231 18.0328C27.736 17.8533 24.0035 17.8533 24.0035 17.8533H23.9964C23.9964 17.8533 20.2649 17.8533 17.7769 18.0328C17.4293 18.0746 16.672 18.0773 15.9955 18.7857C15.4622 19.3253 15.2889 20.551 15.2889 20.551C15.2889 20.551 15.1111 21.9893 15.1111 23.4284V24.7768C15.1111 26.215 15.2889 27.6542 15.2889 27.6542C15.2889 27.6542 15.4622 28.8791 15.9955 29.4186C16.6711 30.127 17.56 30.1039 17.9555 30.1786C19.3778 30.3146 24 30.3564 24 30.3564C24 30.3564 27.736 30.3511 30.2231 30.1715C30.5706 30.1297 31.3289 30.127 32.0044 29.4186C32.5378 28.8791 32.7111 27.6542 32.7111 27.6542C32.7111 27.6542 32.8889 26.215 32.8889 24.7768V23.4284C32.8889 21.9893 32.7111 20.551 32.7111 20.551Z" fill="white"/>
</svg>
