<svg width="935" height="501" viewBox="0 0 935 501" fill="none" xmlns="http://www.w3.org/2000/svg">
<path d="M3.13086 342.667V330.011C3.13086 323.781 6.03348 317.908 10.9819 314.124L52.5664 282.324C56.0082 279.692 58.5022 276.013 59.6732 271.842L77.8244 207.177C78.2575 205.634 78.8745 204.149 79.662 202.753L122.74 126.412C126.737 119.329 134.626 115.371 142.694 116.403L233.157 127.965C237.239 128.487 241.382 127.737 245.023 125.817L260.471 117.669C264.137 115.736 268.313 114.989 272.422 115.532L302.524 119.51C310.902 120.618 319.072 116.339 322.934 108.822L353.567 49.1998C356.361 43.7603 361.491 39.8984 367.491 38.7165L544.742 3.80349C550.385 2.69215 556.232 4.06326 560.792 7.5668L671.992 93.0008C674.073 94.5998 675.82 96.5928 677.131 98.8661L694.221 128.489C696.274 132.047 697.181 136.15 696.82 140.242L692.929 184.344V211.762V271.79C692.929 274.714 692.287 277.603 691.05 280.253L632.599 405.406C630.87 409.109 630.316 413.253 631.013 417.28L634.621 438.121C635.851 445.23 640.815 451.125 647.61 453.548L729.129 482.617C731.165 483.343 733.069 484.394 734.768 485.729L744.986 493.758C749.993 497.692 756.574 499.006 762.708 497.298L806.874 484.999C809.909 484.154 812.701 482.604 815.023 480.475L836.191 461.071C837.503 459.869 838.648 458.497 839.597 456.992L892.837 372.517C893.44 371.56 894.123 370.656 894.879 369.815L933.017 327.36" stroke="#1E2A79" stroke-width="5"/>
</svg>
