<svg width="1440" height="692" viewBox="0 0 1440 692" fill="none" xmlns="http://www.w3.org/2000/svg">
<mask id="mask0_1_196" style="mask-type:alpha" maskUnits="userSpaceOnUse" x="0" y="0" width="1440" height="692">
<path d="M0 0H1440V691.5H1162.95C1149.33 691.5 1136.39 685.567 1127.5 675.25C1118.61 664.933 1105.67 659 1092.05 659H347.949C334.331 659 321.389 664.933 312.5 675.25C303.611 685.567 290.669 691.5 277.051 691.5H0V0Z" fill="#063439"/>
</mask>
<g mask="url(#mask0_1_196)">
<path d="M0 0H1440V692H1141.5L1113.5 659H326.5L298.5 692H0V0Z" fill="#063439"/>
<rect x="1145" y="86" width="206" height="606" fill="url(#paint0_linear_1_196)"/>
<rect width="206" height="606" transform="matrix(-1 0 0 1 295 86)" fill="url(#paint1_linear_1_196)"/>
<rect x="1351" y="86" width="89" height="606" fill="url(#paint2_linear_1_196)"/>
<rect width="89" height="606" transform="matrix(-1 0 0 1 89 86)" fill="url(#paint3_linear_1_196)"/>
<g filter="url(#filter0_f_1_196)">
<ellipse cx="720" cy="938" rx="773" ry="354" fill="#08707B"/>
</g>
</g>
<defs>
<filter id="filter0_f_1_196" x="-273.7" y="363.3" width="1987.4" height="1149.4" filterUnits="userSpaceOnUse" color-interpolation-filters="sRGB">
<feFlood flood-opacity="0" result="BackgroundImageFix"/>
<feBlend mode="normal" in="SourceGraphic" in2="BackgroundImageFix" result="shape"/>
<feGaussianBlur stdDeviation="110.35" result="effect1_foregroundBlur_1_196"/>
</filter>
<linearGradient id="paint0_linear_1_196" x1="665.654" y1="207.605" x2="1186.72" y2="-114.428" gradientUnits="userSpaceOnUse">
<stop stop-color="#08565F"/>
<stop offset="1" stop-color="#07353A" stop-opacity="0"/>
</linearGradient>
<linearGradient id="paint1_linear_1_196" x1="-479.346" y1="121.605" x2="41.7207" y2="-200.428" gradientUnits="userSpaceOnUse">
<stop stop-color="#08565F"/>
<stop offset="1" stop-color="#07353A" stop-opacity="0"/>
</linearGradient>
<linearGradient id="paint2_linear_1_196" x1="1143.9" y1="207.605" x2="1434.31" y2="130.064" gradientUnits="userSpaceOnUse">
<stop stop-color="#08565F"/>
<stop offset="1" stop-color="#07353A" stop-opacity="0"/>
</linearGradient>
<linearGradient id="paint3_linear_1_196" x1="-207.096" y1="121.605" x2="83.3072" y2="44.0643" gradientUnits="userSpaceOnUse">
<stop stop-color="#08565F"/>
<stop offset="1" stop-color="#07353A" stop-opacity="0"/>
</linearGradient>
</defs>
</svg>
