<svg width="61" height="60" viewBox="0 0 61 60" fill="none" xmlns="http://www.w3.org/2000/svg">
<g clip-path="url(#clip0_1_261)">
<path d="M30.6666 5C44.4741 5 55.6666 16.1925 55.6666 30C55.6666 43.8075 44.4741 55 30.6666 55C16.8591 55 5.66663 43.8075 5.66663 30C5.66663 16.1925 16.8591 5 30.6666 5ZM30.6666 15C30.0036 15 29.3677 15.2634 28.8989 15.7322C28.43 16.2011 28.1666 16.837 28.1666 17.5V30C28.1668 30.663 28.4303 31.2988 28.8991 31.7675L36.3991 39.2675C36.8706 39.7229 37.5021 39.9749 38.1576 39.9692C38.8131 39.9635 39.4402 39.7006 39.9037 39.237C40.3672 38.7735 40.6301 38.1465 40.6358 37.491C40.6415 36.8355 40.3895 36.204 39.9341 35.7325L33.1666 28.965V17.5C33.1666 16.837 32.9032 16.2011 32.4344 15.7322C31.9656 15.2634 31.3297 15 30.6666 15Z" fill="#1ED77A"/>
</g>
<defs>
<clipPath id="clip0_1_261">
<rect width="60" height="60" fill="white" transform="translate(0.666626)"/>
</clipPath>
</defs>
</svg>
