<svg width="80" height="80" viewBox="0 0 80 80" fill="none" xmlns="http://www.w3.org/2000/svg">
<path d="M40.0007 41.667C36.9065 41.667 33.939 42.8962 31.7511 45.0841C29.5631 47.272 28.334 50.2395 28.334 53.3337C28.334 56.4279 29.5631 59.3953 31.7511 61.5832C33.939 63.7712 36.9065 65.0003 40.0007 65.0003C43.0948 65.0003 46.0623 63.7712 48.2502 61.5832C50.4382 59.3953 51.6673 56.4279 51.6673 53.3337C51.6673 50.2395 50.4382 47.272 48.2502 45.0841C46.0623 42.8962 43.0948 41.667 40.0007 41.667ZM35.0007 53.3337C35.0007 52.0076 35.5274 50.7358 36.4651 49.7981C37.4028 48.8604 38.6746 48.3337 40.0007 48.3337C41.3267 48.3337 42.5985 48.8604 43.5362 49.7981C44.4739 50.7358 45.0007 52.0076 45.0007 53.3337C45.0007 54.6597 44.4739 55.9315 43.5362 56.8692C42.5985 57.8069 41.3267 58.3337 40.0007 58.3337C38.6746 58.3337 37.4028 57.8069 36.4651 56.8692C35.5274 55.9315 35.0007 54.6597 35.0007 53.3337Z" fill="#1ED77A"/>
<path d="M58.42 17.053L47.8233 2.19629L8.86 33.323L6.7 33.2996V33.333H5V73.333H75V33.333H71.7933L65.4133 14.6696L58.42 17.053ZM64.75 33.333H31.3233L56.22 24.8463L61.2933 23.223L64.75 33.333ZM51.8333 19.2996L26.1333 28.0596L46.4867 11.7996L51.8333 19.2996ZM11.6667 60.563V46.0963C13.073 45.5979 14.3504 44.792 15.4057 43.7373C16.4609 42.6826 17.2676 41.4057 17.7667 39.9996H62.2333C62.7322 41.4062 63.5387 42.6836 64.594 43.7389C65.6493 44.7942 66.9268 45.6007 68.3333 46.0996V60.5663C66.9268 61.0652 65.6493 61.8717 64.594 62.927C63.5387 63.9823 62.7322 65.2597 62.2333 66.6663H17.7733C17.2739 65.2586 16.4665 63.9801 15.4101 62.9242C14.3536 61.8683 13.0747 61.0616 11.6667 60.563Z" fill="#1ED77A"/>
</svg>
