<svg width="80" height="80" viewBox="0 0 80 80" fill="none" xmlns="http://www.w3.org/2000/svg">
<path d="M62.3993 49.1987C63.566 46.3654 64.1993 43.332 64.1993 39.9987C64.1993 37.5987 63.8327 35.2987 63.1993 33.1653C61.0327 33.6653 58.766 33.932 56.3993 33.932C51.5526 33.9372 46.7756 32.7771 42.4711 30.5494C38.1666 28.3218 34.4608 25.0919 31.666 21.132C28.6763 28.3659 23.0364 34.1847 15.8993 37.3987C15.766 38.232 15.766 39.132 15.766 39.9987C15.766 43.181 16.3928 46.3323 17.6107 49.2724C18.8285 52.2125 20.6135 54.884 22.8638 57.1342C27.4084 61.6789 33.5723 64.232 39.9993 64.232C43.4993 64.232 46.866 63.4653 49.8993 62.0987C51.7993 65.732 52.666 67.532 52.5993 67.532C47.1327 69.3654 42.8993 70.2654 39.9993 70.2654C31.9327 70.2654 24.2327 67.0987 18.566 61.3987C15.1193 57.9626 12.5572 53.742 11.0993 49.0987H6.66602V33.932H10.2993C11.4002 28.5737 13.931 23.6134 17.6233 19.5773C21.3156 15.5413 26.0317 12.58 31.2711 11.0079C36.5105 9.43571 42.0778 9.31126 47.3822 10.6477C52.6867 11.9842 57.5303 14.7317 61.3993 18.5987C65.6001 22.7829 68.4654 28.119 69.6327 33.932H73.3327V49.0987H73.1327L61.266 59.9987L43.5993 57.9987V52.432H59.6993L62.3993 49.1987ZM30.8993 39.232C31.8993 39.232 32.866 39.632 33.566 40.3653C34.2695 41.0746 34.6642 42.0331 34.6642 43.032C34.6642 44.031 34.2695 44.9895 33.566 45.6987C32.866 46.3987 31.8993 46.7987 30.8993 46.7987C28.7994 46.7987 27.0993 45.132 27.0993 43.032C27.0993 40.932 28.7994 39.232 30.8993 39.232ZM49.066 39.232C51.166 39.232 52.8327 40.932 52.8327 43.032C52.8327 45.132 51.166 46.7987 49.066 46.7987C46.966 46.7987 45.266 45.132 45.266 43.032C45.266 42.0242 45.6664 41.0576 46.379 40.345C47.0916 39.6324 48.0582 39.232 49.066 39.232Z" fill="#1ED77A"/>
</svg>
