<svg width="60" height="60" viewBox="0 0 60 60" fill="none" xmlns="http://www.w3.org/2000/svg">
<path d="M50.625 16.875H13.125C12.6277 16.875 12.1508 16.6775 11.7992 16.3258C11.4475 15.9742 11.25 15.4973 11.25 15C11.25 14.5027 11.4475 14.0258 11.7992 13.6742C12.1508 13.3225 12.6277 13.125 13.125 13.125H45C45.4973 13.125 45.9742 12.9275 46.3258 12.5758C46.6775 12.2242 46.875 11.7473 46.875 11.25C46.875 10.7527 46.6775 10.2758 46.3258 9.92418C45.9742 9.57254 45.4973 9.375 45 9.375H13.125C11.6332 9.375 10.2024 9.96763 9.14752 11.0225C8.09263 12.0774 7.5 13.5082 7.5 15V45C7.5 46.4918 8.09263 47.9226 9.14752 48.9775C10.2024 50.0324 11.6332 50.625 13.125 50.625H50.625C51.6196 50.625 52.5734 50.2299 53.2766 49.5266C53.9799 48.8234 54.375 47.8696 54.375 46.875V20.625C54.375 19.6304 53.9799 18.6766 53.2766 17.9734C52.5734 17.2701 51.6196 16.875 50.625 16.875ZM42.1875 35.625C41.6312 35.625 41.0875 35.46 40.625 35.151C40.1624 34.842 39.802 34.4027 39.5891 33.8888C39.3762 33.3749 39.3205 32.8094 39.429 32.2638C39.5376 31.7182 39.8054 31.2171 40.1988 30.8238C40.5921 30.4304 41.0932 30.1626 41.6388 30.054C42.1844 29.9455 42.7499 30.0012 43.2638 30.2141C43.7777 30.427 44.217 30.7874 44.526 31.25C44.835 31.7125 45 32.2562 45 32.8125C45 33.5584 44.7037 34.2738 44.1762 34.8012C43.6488 35.3287 42.9334 35.625 42.1875 35.625Z" fill="#1ED77A"/>
</svg>
