<svg width="592" height="512" viewBox="0 0 592 512" fill="none" xmlns="http://www.w3.org/2000/svg">
<ellipse cx="141.424" cy="190.213" rx="50.9565" ry="31.9608" transform="rotate(-24.2572 141.424 190.213)" fill="white"/>
<ellipse cx="140.256" cy="187.621" rx="50.9565" ry="29.118" transform="rotate(-24.2572 140.256 187.621)" fill="#FA9401"/>
<path d="M129.338 202.631C130.781 198.826 134.943 180.965 137.076 170.749" stroke="black" stroke-width="3.63975" stroke-linecap="round"/>
<path d="M142.404 198.014C143.847 194.209 148.009 176.348 150.142 166.132" stroke="black" stroke-width="3.63975" stroke-linecap="round"/>
<ellipse cx="112.309" cy="73.7405" rx="50.9565" ry="31.9608" transform="rotate(-24.2572 112.309 73.7405)" fill="white"/>
<ellipse cx="111.141" cy="71.1487" rx="50.9565" ry="29.118" transform="rotate(-24.2572 111.141 71.1487)" fill="#FA9401"/>
<path d="M100.223 86.1588C101.666 82.3538 105.828 64.4925 107.961 54.2761" stroke="black" stroke-width="3.63975" stroke-linecap="round"/>
<path d="M113.289 81.5416C114.732 77.7366 118.894 59.8753 121.027 49.6589" stroke="black" stroke-width="3.63975" stroke-linecap="round"/>
<ellipse cx="178.93" cy="148.288" rx="50.9565" ry="31.9608" transform="rotate(18.4107 178.93 148.288)" fill="white"/>
<ellipse cx="179.828" cy="145.591" rx="50.9565" ry="29.118" transform="rotate(18.4107 179.828 145.591)" fill="#FA9401"/>
<path d="M161.627 149.23C165.267 147.41 180.432 137.098 188.925 131.031" stroke="black" stroke-width="3.63975" stroke-linecap="round"/>
<path d="M174.367 154.689C178.007 152.869 193.173 142.556 201.665 136.49" stroke="black" stroke-width="3.63975" stroke-linecap="round"/>
<path d="M591.516 355.595C590.516 353.095 570.016 341.595 568.516 339.095L25.0156 313.095C24.0159 318.095 1.21419 318.295 0.0141909 325.095C-0.88125 330.17 40.7648 401.449 78.1662 459.74C98.3325 491.17 136.969 504.186 172.576 492.933C337.839 440.705 592.223 357.364 591.516 355.595Z" fill="#083A40"/>
<path d="M14.9336 321.981V296.652L571.816 316.671L569.129 343.535C568.551 349.32 564.585 354.207 559.043 355.964L173.809 478.111C142.366 488.081 108.149 475.662 90.4206 447.846L18.9266 335.675C16.3189 331.583 14.9336 326.832 14.9336 321.981Z" fill="#1B7C6F"/>
<path d="M415.351 184.195L29.5527 277.722C17.1997 280.717 11.6439 295.131 18.7913 305.642L103.6 430.36C117.967 451.488 144.428 460.784 168.852 453.284L558.418 333.653C572.126 329.444 575.807 311.771 564.919 302.439L431.482 188.064C427.04 184.256 421.037 182.817 415.351 184.195Z" fill="#32AD9C"/>
<path d="M119.011 414.695L38.8604 302.484C34.3725 296.201 37.6456 287.372 45.1446 285.533L397.585 199.085C408.739 196.349 420.529 199.038 429.394 206.338L446.246 220.216C445.032 223.249 443.334 230.044 446.246 232.955C449.885 236.595 480.823 265.713 491.743 274.813C500.478 282.092 513.581 281.485 519.041 280.272L543.646 303.706C549.714 309.485 547.279 319.663 539.253 322.071L171.111 432.514C151.72 438.331 130.777 431.168 119.011 414.695Z" fill="#07353A"/>
<path opacity="0.2" d="M295.932 395.067L325.598 216.742L394.405 199.865L365.399 374.227L295.932 395.067Z" fill="white"/>
<path opacity="0.2" d="M206.682 421.842L237.536 238.342L273.52 229.516L243.015 410.942L206.682 421.842Z" fill="white"/>
<path d="M394.569 172.886L374.551 141.948L358.172 167.426C360.598 173.493 369.455 188.901 385.47 202.004C401.485 215.107 418.834 212.317 425.507 209.283L394.569 172.886Z" fill="#00964B"/>
<path d="M252.619 280.259L232.6 243.861C226.777 243.861 215.615 253.567 210.762 258.42C215.615 269.946 228.96 295.182 243.519 303.917C258.078 312.652 273.851 309.983 279.917 307.557L252.619 280.259Z" fill="#00964B"/>
<path d="M163.445 365.795L130.688 331.217C143.427 296.64 183.464 223.845 196.203 223.845C206.394 223.845 224.714 237.19 232.601 243.863C207.85 255.51 176.184 330.004 163.445 365.795Z" fill="#1ED77A"/>
<path d="M279.917 307.559C266.814 311.927 252.619 285.114 247.16 271.161C264.63 260.97 313.888 169.855 336.333 125.571C361.084 121.204 372.124 134.671 374.551 141.95C348.466 195.333 293.02 303.191 279.917 307.559Z" fill="#1ED77A"/>
<path d="M429.147 207.466C416.044 216.201 400.636 188.054 394.569 172.888C410.584 158.329 435.213 114.652 445.526 92.8137L427.327 81.8944L503.762 41.8572L509.222 125.571L489.203 116.472C474.644 143.164 442.25 198.73 429.147 207.466Z" fill="#1ED77A"/>
<path d="M289.192 40.7609C292.27 40.8585 294.088 44.2511 292.465 46.8677L278.768 68.9448C277.145 71.5613 273.298 71.4394 271.843 68.7253L259.572 45.825C258.118 43.1109 260.147 39.8402 263.225 39.9378L289.192 40.7609Z" stroke="#08727D" stroke-width="2"/>
<path d="M560.651 206.351C561.249 209.372 558.353 211.908 555.438 210.916L530.843 202.546C527.928 201.554 527.179 197.778 529.496 195.75L549.042 178.634C551.359 176.606 555.003 177.846 555.601 180.866L560.651 206.351Z" stroke="#08727D" stroke-width="2"/>
<circle cx="46" cy="219" r="7" fill="#08727D"/>
</svg>
