<svg width="105" height="16" viewBox="0 0 105 16" fill="none" xmlns="http://www.w3.org/2000/svg">
<path d="M7.7191 16C6.62331 16 5.60381 15.7989 4.66059 15.3966C3.73125 14.9944 2.91287 14.4395 2.20546 13.7321C1.51192 13.0108 0.970957 12.1647 0.582574 11.1938C0.194191 10.2228 0 9.15475 0 7.9896C0 6.83832 0.187256 5.7772 0.561768 4.80624C0.95015 3.82141 1.49111 2.97529 2.18465 2.26788C2.87819 1.5466 3.68963 0.991764 4.61898 0.603381C5.54832 0.201127 6.56783 0 7.67749 0C8.77329 0 9.75118 0.187256 10.6112 0.561769C11.485 0.936281 12.2202 1.4287 12.8166 2.03901C13.4131 2.63546 13.8431 3.28739 14.1066 3.9948L11.922 5.05592C11.6029 4.2098 11.0758 3.53012 10.3407 3.0169C9.60553 2.48981 8.7178 2.22627 7.67749 2.22627C6.65105 2.22627 5.74251 2.46901 4.95188 2.95449C4.16124 3.43997 3.54399 4.1127 3.10013 4.97269C2.67013 5.83268 2.45513 6.83832 2.45513 7.9896C2.45513 9.14087 2.67707 10.1534 3.12093 11.0273C3.57867 11.8873 4.20285 12.56 4.99349 13.0455C5.78413 13.5171 6.69267 13.7529 7.7191 13.7529C8.57909 13.7529 9.3628 13.5795 10.0702 13.2328C10.7915 12.8721 11.3671 12.3728 11.7971 11.7347C12.2271 11.0828 12.4421 10.3268 12.4421 9.46684V8.40572L13.5448 9.40442H7.67749V7.3238H14.8764V8.78023C14.8764 9.91764 14.6823 10.9371 14.2939 11.8388C13.9055 12.7265 13.3784 13.4824 12.7126 14.1066C12.0468 14.7308 11.2839 15.2024 10.4239 15.5215C9.56392 15.8405 8.66232 16 7.7191 16Z" fill="#F5F5F4"/>
<path d="M15.8538 15.7503V0H18.2049V15.7503H15.8538Z" fill="#F5F5F4"/>
<path d="M25.0838 16C24.0019 16 23.0102 15.7434 22.1086 15.2302C21.2208 14.7169 20.5134 14.0165 19.9863 13.1287C19.4592 12.241 19.1957 11.2354 19.1957 10.1118C19.1957 8.97443 19.4592 7.96879 19.9863 7.09493C20.5134 6.2072 21.2208 5.51365 22.1086 5.0143C22.9963 4.50108 23.988 4.24447 25.0838 4.24447C26.1935 4.24447 27.1853 4.50108 28.0591 5.0143C28.9469 5.51365 29.6473 6.2072 30.1606 7.09493C30.6876 7.96879 30.9512 8.97443 30.9512 10.1118C30.9512 11.2492 30.6876 12.2618 30.1606 13.1495C29.6335 14.0373 28.9261 14.7378 28.0383 15.251C27.1506 15.7503 26.1658 16 25.0838 16ZM25.0838 13.8153C25.7496 13.8153 26.3391 13.6558 26.8524 13.3368C27.3656 13.0178 27.7678 12.5808 28.0591 12.026C28.3643 11.4573 28.5169 10.8192 28.5169 10.1118C28.5169 9.40442 28.3643 8.7733 28.0591 8.21847C27.7678 7.66363 27.3656 7.2267 26.8524 6.90767C26.3391 6.58864 25.7496 6.42913 25.0838 6.42913C24.4319 6.42913 23.8424 6.58864 23.3153 6.90767C22.8021 7.2267 22.3929 7.66363 22.0877 8.21847C21.7965 8.7733 21.6508 9.40442 21.6508 10.1118C21.6508 10.8192 21.7965 11.4573 22.0877 12.026C22.3929 12.5808 22.8021 13.0178 23.3153 13.3368C23.8424 13.6558 24.4319 13.8153 25.0838 13.8153Z" fill="#F5F5F4"/>
<path d="M37.9591 16C37.0853 16 36.2877 15.8197 35.5664 15.459C34.859 15.0984 34.3111 14.5782 33.9227 13.8986L34.1932 13.4616V15.7503H31.9461V0H34.2973V6.82445L33.9227 6.28348C34.3389 5.64543 34.8937 5.14608 35.5872 4.78544C36.2808 4.42479 37.0714 4.24447 37.9591 4.24447C39.0272 4.24447 39.9843 4.50108 40.8304 5.0143C41.6904 5.52752 42.3631 6.228 42.8486 7.11573C43.348 8.00347 43.5976 9.00217 43.5976 10.1118C43.5976 11.2215 43.348 12.2202 42.8486 13.1079C42.3631 13.9957 41.6973 14.7031 40.8512 15.2302C40.0051 15.7434 39.0411 16 37.9591 16ZM37.7303 13.8153C38.3961 13.8153 38.9856 13.6558 39.4988 13.3368C40.012 13.0178 40.4143 12.5808 40.7056 12.026C41.0107 11.4573 41.1633 10.8192 41.1633 10.1118C41.1633 9.40442 41.0107 8.7733 40.7056 8.21847C40.4143 7.66363 40.012 7.2267 39.4988 6.90767C38.9856 6.58864 38.3961 6.42913 37.7303 6.42913C37.0784 6.42913 36.4888 6.58864 35.9618 6.90767C35.4485 7.2267 35.0393 7.66363 34.7342 8.21847C34.4429 8.7733 34.2973 9.40442 34.2973 10.1118C34.2973 10.8192 34.4429 11.4573 34.7342 12.026C35.0393 12.5808 35.4485 13.0178 35.9618 13.3368C36.4888 13.6558 37.0784 13.8153 37.7303 13.8153Z" fill="#F5F5F4"/>
<path d="M47.9549 16C47.192 16 46.5193 15.8682 45.9367 15.6047C45.368 15.3273 44.9241 14.9528 44.6051 14.4811C44.2861 13.9957 44.1266 13.427 44.1266 12.775C44.1266 12.1647 44.2583 11.6168 44.5219 11.1313C44.7993 10.6459 45.2224 10.2367 45.7911 9.90377C46.3598 9.57087 47.0741 9.33507 47.9341 9.19636L51.8457 8.55136V10.4031L48.3918 11.0065C47.7676 11.1175 47.3099 11.3186 47.0186 11.6099C46.7273 11.8873 46.5817 12.2479 46.5817 12.6918C46.5817 13.1218 46.7412 13.4755 47.0602 13.7529C47.3931 14.0165 47.8162 14.1482 48.3294 14.1482C48.9675 14.1482 49.5223 14.0095 49.9939 13.7321C50.4794 13.4547 50.8539 13.0871 51.1175 12.6294C51.381 12.1578 51.5128 11.6376 51.5128 11.0689V8.17685C51.5128 7.62202 51.3047 7.17122 50.8886 6.82445C50.4863 6.46381 49.9454 6.28348 49.2657 6.28348C48.6415 6.28348 48.0936 6.44993 47.622 6.78283C47.1643 7.10186 46.8244 7.51799 46.6025 8.03121L44.6467 7.05332C44.8548 6.49848 45.1946 6.013 45.6662 5.59688C46.1378 5.16688 46.6857 4.83398 47.3099 4.59818C47.948 4.36238 48.6207 4.24447 49.3281 4.24447C50.2158 4.24447 50.9995 4.41092 51.6792 4.74382C52.3728 5.07672 52.9068 5.5414 53.2813 6.13784C53.6697 6.72042 53.8639 7.40009 53.8639 8.17685V15.7503H51.6168V13.7113L52.0953 13.7737C51.8318 14.2315 51.492 14.6268 51.0758 14.9597C50.6736 15.2926 50.2089 15.5492 49.6818 15.7295C49.1686 15.9098 48.593 16 47.9549 16Z" fill="#F5F5F4"/>
<path d="M55.3125 15.7503V0H57.6636V15.7503H55.3125Z" fill="#F5F5F4"/>
<path d="M64.4593 16C63.3357 16 62.337 15.7434 61.4632 15.2302C60.6032 14.7031 59.9166 13.9957 59.4034 13.1079C58.904 12.2202 58.6543 11.2146 58.6543 10.091C58.6543 8.98136 58.904 7.98266 59.4034 7.09493C59.9027 6.2072 60.5893 5.51365 61.4632 5.0143C62.337 4.50108 63.3357 4.24447 64.4593 4.24447C65.2222 4.24447 65.9365 4.38318 66.6023 4.6606C67.2681 4.92414 67.8437 5.29172 68.3292 5.76333C68.8286 6.23494 69.1962 6.78283 69.432 7.40702L67.3721 8.36411C67.1363 7.78153 66.7549 7.31686 66.2278 6.97009C65.7146 6.60945 65.1251 6.42913 64.4593 6.42913C63.8212 6.42913 63.2456 6.58864 62.7324 6.90767C62.233 7.21283 61.8377 7.64976 61.5464 8.21847C61.2551 8.7733 61.1095 9.40442 61.1095 10.1118C61.1095 10.8192 61.2551 11.4573 61.5464 12.026C61.8377 12.5808 62.233 13.0178 62.7324 13.3368C63.2456 13.6558 63.8212 13.8153 64.4593 13.8153C65.1389 13.8153 65.7284 13.642 66.2278 13.2952C66.741 12.9345 67.1225 12.456 67.3721 11.8596L69.432 12.8375C69.21 13.4339 68.8494 13.9749 68.35 14.4603C67.8645 14.9319 67.2889 15.3065 66.6231 15.5839C65.9573 15.8613 65.236 16 64.4593 16Z" fill="#F5F5F4"/>
<path d="M70.4295 15.7503V0H72.7806V6.69961L72.4061 6.40832C72.6835 5.70091 73.1274 5.16688 73.7377 4.80624C74.348 4.43173 75.0554 4.24447 75.8599 4.24447C76.6922 4.24447 77.4273 4.42479 78.0654 4.78544C78.7035 5.14608 79.2028 5.64543 79.5634 6.28348C79.9241 6.92154 80.1044 7.64976 80.1044 8.46814V15.7503H77.7741V9.11313C77.7741 8.54443 77.6631 8.06589 77.4412 7.6775C77.2331 7.27525 76.9419 6.97009 76.5673 6.76203C76.1928 6.5401 75.7628 6.42913 75.2774 6.42913C74.8058 6.42913 74.3758 6.5401 73.9874 6.76203C73.6129 6.97009 73.3146 7.27525 73.0927 7.6775C72.8846 8.07976 72.7806 8.5583 72.7806 9.11313V15.7503H70.4295Z" fill="#F5F5F4"/>
<path d="M84.6909 16C83.928 16 83.2552 15.8682 82.6727 15.6047C82.104 15.3273 81.6601 14.9528 81.3411 14.4811C81.022 13.9957 80.8625 13.427 80.8625 12.775C80.8625 12.1647 80.9943 11.6168 81.2578 11.1313C81.5353 10.6459 81.9583 10.2367 82.527 9.90377C83.0957 9.57087 83.8101 9.33507 84.6701 9.19636L88.5816 8.55136V10.4031L85.1278 11.0065C84.5036 11.1175 84.0459 11.3186 83.7546 11.6099C83.4633 11.8873 83.3177 12.2479 83.3177 12.6918C83.3177 13.1218 83.4772 13.4755 83.7962 13.7529C84.1291 14.0165 84.5522 14.1482 85.0654 14.1482C85.7034 14.1482 86.2583 14.0095 86.7299 13.7321C87.2154 13.4547 87.5899 13.0871 87.8534 12.6294C88.117 12.1578 88.2487 11.6376 88.2487 11.0689V8.17685C88.2487 7.62202 88.0407 7.17122 87.6245 6.82445C87.2223 6.46381 86.6813 6.28348 86.0017 6.28348C85.3775 6.28348 84.8296 6.44993 84.358 6.78283C83.9002 7.10186 83.5604 7.51799 83.3385 8.03121L81.3827 7.05332C81.5907 6.49848 81.9306 6.013 82.4022 5.59688C82.8738 5.16688 83.4217 4.83398 84.0459 4.59818C84.6839 4.36238 85.3567 4.24447 86.0641 4.24447C86.9518 4.24447 87.7355 4.41092 88.4152 4.74382C89.1087 5.07672 89.6428 5.5414 90.0173 6.13784C90.4057 6.72042 90.5998 7.40009 90.5998 8.17685V15.7503H88.3528V13.7113L88.8313 13.7737C88.5678 14.2315 88.2279 14.6268 87.8118 14.9597C87.4096 15.2926 86.9449 15.5492 86.4178 15.7295C85.9046 15.9098 85.3289 16 84.6909 16Z" fill="#F5F5F4"/>
<path d="M92.0485 15.7503V4.49415H94.2955V6.76203L94.0875 6.42913C94.3372 5.69397 94.7394 5.16688 95.2942 4.84785C95.8491 4.51495 96.5149 4.3485 97.2916 4.3485H97.9782V6.49155H97.0004C96.2236 6.49155 95.5925 6.73429 95.107 7.21977C94.6354 7.69137 94.3996 8.37104 94.3996 9.25878V15.7503H92.0485Z" fill="#F5F5F4"/>
<path d="M103.358 15.8752C102.179 15.8752 101.264 15.5423 100.612 14.8765C99.9598 14.2107 99.6338 13.2744 99.6338 12.0676V6.61638H97.6572V4.49415H97.9693C98.4964 4.49415 98.9056 4.34157 99.1969 4.03641C99.4882 3.73125 99.6338 3.31513 99.6338 2.78804V1.91417H101.985V4.49415H104.544V6.61638H101.985V11.9636C101.985 12.352 102.047 12.6849 102.172 12.9623C102.297 13.2258 102.498 13.4339 102.776 13.5865C103.053 13.7252 103.414 13.7945 103.857 13.7945C103.968 13.7945 104.093 13.7876 104.232 13.7737C104.371 13.7599 104.502 13.746 104.627 13.7321V15.7503C104.433 15.7781 104.218 15.8058 103.982 15.8335C103.746 15.8613 103.538 15.8752 103.358 15.8752Z" fill="#F5F5F4"/>
</svg>
