<svg width="165" height="16" viewBox="0 0 165 16" fill="none" xmlns="http://www.w3.org/2000/svg">
<path d="M0.393555 11.4199C0.393555 13.9348 1.93044 15.7911 4.92438 15.7911C7.69877 15.7911 9.49513 14.0346 9.49513 11.4598V0.941116H6.9403V11.3201C6.9403 12.5975 6.34152 13.4159 4.90442 13.4159C3.46733 13.4159 2.84859 12.5376 2.84859 11.4199V10.5616H0.393555V11.4199Z" fill="#3B82F6"/>
<path d="M11.6859 10.5816C11.6859 13.6554 13.9014 15.7711 16.9552 15.7711C20.009 15.7711 22.2245 13.6554 22.2245 10.5816C22.2245 7.50782 20.009 5.39211 16.9552 5.39211C13.9014 5.39211 11.6859 7.50782 11.6859 10.5816ZM14.1209 10.5816C14.1209 8.78524 15.2786 7.5677 16.9552 7.5677C18.6318 7.5677 19.7894 8.78524 19.7894 10.5816C19.7894 12.378 18.6318 13.5955 16.9552 13.5955C15.2786 13.5955 14.1209 12.378 14.1209 10.5816Z" fill="#3B82F6"/>
<path d="M26.5897 15.5316V10.1425C26.5897 8.66548 27.4879 7.58766 29.0248 7.58766C30.2623 7.58766 31.0807 8.38604 31.0807 10.0427V15.5316H33.5157V9.46386C33.5157 6.90903 32.2383 5.37215 29.8032 5.37215C28.3861 5.37215 27.2285 5.99089 26.6097 6.94895V0.681641H24.1547V15.5316H26.5897Z" fill="#3B82F6"/>
<path d="M38.3433 15.5316V10.2223C38.3433 8.62556 39.2614 7.58766 40.7584 7.58766C42.0159 7.58766 42.8342 8.38604 42.8342 10.0427V15.5316H45.2693V9.46386C45.2693 6.90903 43.9919 5.37215 41.5169 5.37215C40.1796 5.37215 38.982 5.95097 38.3633 6.94895L38.1637 5.67154H35.9082V15.5316H38.3433Z" fill="#3B82F6"/>
<path d="M52.1833 11.4199C52.1833 13.9348 53.7201 15.7911 56.7141 15.7911C59.4885 15.7911 61.2848 14.0346 61.2848 11.4598V0.941116H58.73V11.3201C58.73 12.5975 58.1312 13.4159 56.6941 13.4159C55.257 13.4159 54.6383 12.5376 54.6383 11.4199V10.5616H52.1833V11.4199Z" fill="#3B82F6"/>
<path d="M66.9884 15.7911C68.5253 15.7911 69.8626 15.0925 70.2818 14.0745L70.4614 15.5316H72.5971V9.5437C72.5971 6.80924 70.9604 5.37215 68.3058 5.37215C65.6312 5.37215 63.8747 6.76932 63.8747 8.90499H65.9505C65.9505 7.8671 66.7489 7.26831 68.186 7.26831C69.4235 7.26831 70.2219 7.80722 70.2219 9.14451V9.36407L67.2679 9.58362C64.9326 9.76326 63.6153 10.901 63.6153 12.7173C63.6153 14.5735 64.8927 15.7911 66.9884 15.7911ZM67.7868 13.9548C66.689 13.9548 66.0903 13.5157 66.0903 12.6175C66.0903 11.8191 66.6691 11.3201 68.186 11.1804L70.2419 11.0207V11.5397C70.2419 13.0566 69.2838 13.9548 67.7868 13.9548Z" fill="#3B82F6"/>
<path d="M77.4243 15.5316V9.94289C77.4243 8.34613 78.3624 7.58766 79.5201 7.58766C80.6778 7.58766 81.4163 8.32617 81.4163 9.70338V15.5316H83.8513V9.94289C83.8513 8.32617 84.7495 7.5677 85.9271 7.5677C87.0848 7.5677 87.8432 8.30621 87.8432 9.72334V15.5316H90.2584V9.08463C90.2584 6.80924 88.941 5.37215 86.5459 5.37215C85.0489 5.37215 83.8913 6.11065 83.3923 7.24835C82.8733 6.11065 81.8354 5.37215 80.3384 5.37215C78.9213 5.37215 77.9233 6.01085 77.4243 6.8292L77.2247 5.67154H74.9893V15.5316H77.4243Z" fill="#3B82F6"/>
<path d="M97.0599 15.7911C99.6347 15.7911 101.431 14.4937 101.85 12.338H99.5948C99.3153 13.2761 98.4371 13.7951 97.0998 13.7951C95.4831 13.7951 94.565 12.9169 94.3853 11.1804L101.81 11.1604V10.4219C101.81 7.34815 99.9341 5.37215 96.9801 5.37215C94.0859 5.37215 92.07 7.50782 92.07 10.6016C92.07 13.6554 94.1258 15.7911 97.0599 15.7911ZM97 7.36811C98.4571 7.36811 99.3952 8.26629 99.3952 9.62354H94.4452C94.6847 8.14653 95.5629 7.36811 97 7.36811Z" fill="#3B82F6"/>
<path d="M103.001 12.5376C103.001 14.4737 104.558 15.7911 107.013 15.7911C109.448 15.7911 111.144 14.5536 111.144 12.5576C111.144 11.0407 110.306 10.2822 108.649 9.90297L106.873 9.48382C106.035 9.28423 105.595 8.92495 105.595 8.36609C105.595 7.62758 106.154 7.18847 107.112 7.18847C108.05 7.18847 108.609 7.72738 108.629 8.56568H110.945C110.925 6.64956 109.428 5.37215 107.212 5.37215C104.937 5.37215 103.3 6.5298 103.3 8.46588C103.3 10.0427 104.158 10.881 105.935 11.2802L107.711 11.6993C108.589 11.8989 108.849 12.2582 108.849 12.7572C108.849 13.4757 108.23 13.9348 107.092 13.9348C105.975 13.9348 105.336 13.3959 105.316 12.5376H103.001Z" fill="#3B82F6"/>
<path d="M118.737 15.5316H124.645C127.659 15.5316 129.396 14.0745 129.396 11.5796C129.396 9.88301 128.617 8.72536 127.08 8.22637C128.458 7.64754 129.176 6.48988 129.176 4.87316C129.176 2.43809 127.42 0.941116 124.546 0.941116H118.737V15.5316ZM124.326 3.19655C125.763 3.19655 126.561 3.87518 126.561 5.13263C126.561 6.43 125.783 7.16851 124.386 7.16851H121.292V3.19655H124.326ZM124.546 9.32415C125.963 9.32415 126.781 10.0227 126.781 11.2602C126.781 12.5776 125.983 13.2761 124.546 13.2761H121.292V9.32415H124.546Z" fill="#3B82F6"/>
<path d="M130.8 10.5816C130.8 13.6554 133.016 15.7711 136.07 15.7711C139.123 15.7711 141.339 13.6554 141.339 10.5816C141.339 7.50782 139.123 5.39211 136.07 5.39211C133.016 5.39211 130.8 7.50782 130.8 10.5816ZM133.235 10.5816C133.235 8.78524 134.393 7.5677 136.07 7.5677C137.746 7.5677 138.904 8.78524 138.904 10.5816C138.904 12.378 137.746 13.5955 136.07 13.5955C134.393 13.5955 133.235 12.378 133.235 10.5816Z" fill="#3B82F6"/>
<path d="M145.704 15.5316V10.2223C145.704 8.62556 146.622 7.58766 148.119 7.58766C149.377 7.58766 150.195 8.38604 150.195 10.0427V15.5316H152.63V9.46386C152.63 6.90903 151.353 5.37215 148.878 5.37215C147.54 5.37215 146.343 5.95097 145.724 6.94895L145.524 5.67154H143.269V15.5316H145.704Z" fill="#3B82F6"/>
<path d="M159.074 15.7911C160.571 15.7911 161.849 15.1324 162.448 13.9947L162.607 15.5316H164.843V0.681641H162.428V6.92899C161.809 5.95097 160.591 5.37215 159.214 5.37215C156.24 5.37215 154.444 7.5677 154.444 10.6415C154.444 13.6953 156.22 15.7911 159.074 15.7911ZM159.613 13.5556C157.917 13.5556 156.879 12.3181 156.879 10.5616C156.879 8.8052 157.917 7.54774 159.613 7.54774C161.31 7.54774 162.408 8.78524 162.408 10.5616C162.408 12.338 161.31 13.5556 159.613 13.5556Z" fill="#3B82F6"/>
</svg>
