<svg width="107" height="20" viewBox="0 0 107 20" fill="none" xmlns="http://www.w3.org/2000/svg">
<path d="M0.304688 19.5359V0.463937H8.34308C9.60601 0.463937 10.6812 0.685804 11.5687 1.12954C12.4732 1.5562 13.1644 2.1706 13.6423 2.97274C14.1372 3.7578 14.3847 4.71354 14.3847 5.83993C14.3847 6.71033 14.1457 7.52953 13.6679 8.29753C13.2071 9.04847 12.4647 9.6714 11.4407 10.1663V8.55353C12.3793 8.91193 13.1217 9.35567 13.6679 9.88473C14.214 10.4138 14.598 11.0026 14.8199 11.6511C15.0417 12.2997 15.1527 12.9823 15.1527 13.6991C15.1527 15.5253 14.5468 16.9589 13.3351 17.9999C12.1404 19.0239 10.4764 19.5359 8.34308 19.5359H0.304688ZM3.78628 16.4639H8.70148C9.60601 16.4639 10.3228 16.2165 10.8519 15.7215C11.398 15.2095 11.6711 14.5354 11.6711 13.6991C11.6711 12.8629 11.398 12.1887 10.8519 11.6767C10.3228 11.1647 9.60601 10.9087 8.70148 10.9087H3.78628V16.4639ZM3.78628 7.86233H8.52228C9.23908 7.86233 9.81081 7.65753 10.2375 7.24793C10.6641 6.82127 10.8775 6.27513 10.8775 5.60953C10.8775 4.94394 10.6641 4.41487 10.2375 4.02234C9.81081 3.6298 9.23908 3.43354 8.52228 3.43354H3.78628V7.86233Z" fill="#F5F5F4"/>
<path d="M22.7279 19.8431C21.2943 19.8431 20.0399 19.5189 18.9647 18.8703C17.8895 18.2218 17.0532 17.3429 16.4559 16.2335C15.8585 15.1242 15.5599 13.8954 15.5599 12.5471C15.5599 11.1477 15.8585 9.91033 16.4559 8.83513C17.0703 7.74287 17.898 6.881 18.9391 6.24953C19.9972 5.61807 21.1748 5.30233 22.4719 5.30233C23.5641 5.30233 24.5199 5.48153 25.3391 5.83993C26.1753 6.19833 26.8836 6.69327 27.4639 7.32473C28.0441 7.9562 28.4879 8.68153 28.7951 9.50073C29.1023 10.3029 29.2559 11.1733 29.2559 12.1119C29.2559 12.3509 29.2388 12.5983 29.2047 12.8543C29.1876 13.1103 29.1449 13.3322 29.0767 13.5199H18.3247V10.9599H27.1823L25.5951 12.1631C25.7487 11.3781 25.706 10.6783 25.4671 10.0639C25.2452 9.44953 24.8697 8.96313 24.3407 8.60473C23.8287 8.24633 23.2057 8.06713 22.4719 8.06713C21.7721 8.06713 21.1492 8.24633 20.6031 8.60473C20.0569 8.94607 19.6388 9.45807 19.3487 10.1407C19.0756 10.8063 18.9732 11.617 19.0415 12.5727C18.9732 13.4261 19.0841 14.1855 19.3743 14.8511C19.6815 15.4997 20.1252 16.0031 20.7055 16.3615C21.3028 16.7199 21.9855 16.8991 22.7535 16.8991C23.5215 16.8991 24.17 16.737 24.6991 16.4127C25.2452 16.0885 25.6719 15.6533 25.9791 15.1071L28.6927 16.4383C28.4196 17.1039 27.9929 17.6927 27.4127 18.2047C26.8324 18.7167 26.1412 19.1178 25.3391 19.4079C24.554 19.6981 23.6836 19.8431 22.7279 19.8431Z" fill="#F5F5F4"/>
<path d="M35.4973 19.8431C34.0125 19.8431 32.7154 19.4933 31.6061 18.7935C30.5138 18.0767 29.7629 17.1125 29.3533 15.9007L31.8621 14.6975C32.2205 15.4826 32.7154 16.097 33.3469 16.5407C33.9954 16.9845 34.7122 17.2063 35.4973 17.2063C36.1117 17.2063 36.5981 17.0698 36.9565 16.7967C37.3149 16.5237 37.4941 16.1653 37.4941 15.7215C37.4941 15.4485 37.4173 15.2266 37.2637 15.0559C37.1271 14.8682 36.9309 14.7146 36.6749 14.5951C36.4359 14.4586 36.1714 14.3477 35.8813 14.2623L33.6029 13.6223C32.4253 13.281 31.5293 12.7605 30.9149 12.0607C30.3175 11.361 30.0189 10.5333 30.0189 9.57753C30.0189 8.7242 30.2322 7.9818 30.6589 7.35033C31.1026 6.7018 31.7085 6.19833 32.4765 5.83993C33.2615 5.48153 34.1575 5.30233 35.1645 5.30233C36.4786 5.30233 37.6391 5.61807 38.6461 6.24953C39.653 6.881 40.3698 7.76847 40.7965 8.91193L38.2365 10.1151C37.9975 9.48367 37.5965 8.9802 37.0333 8.60473C36.4701 8.22927 35.8386 8.04153 35.1389 8.04153C34.5757 8.04153 34.1319 8.16953 33.8077 8.42553C33.4834 8.68153 33.3213 9.01433 33.3213 9.42393C33.3213 9.67993 33.3895 9.9018 33.5261 10.0895C33.6626 10.2773 33.8503 10.4309 34.0893 10.5503C34.3453 10.6698 34.6354 10.7807 34.9597 10.8831L37.1869 11.5487C38.3303 11.8901 39.2093 12.4021 39.8237 13.0847C40.4551 13.7674 40.7709 14.6037 40.7709 15.5935C40.7709 16.4298 40.549 17.1722 40.1053 17.8207C39.6615 18.4522 39.0471 18.9471 38.2621 19.3055C37.477 19.6639 36.5554 19.8431 35.4973 19.8431Z" fill="#F5F5F4"/>
<path d="M48.0969 19.6895C46.5267 19.6895 45.3065 19.2629 44.4361 18.4095C43.5827 17.5391 43.1561 16.3189 43.1561 14.7487V8.60473H40.7497V5.60953H41.0057C41.6883 5.60953 42.2174 5.43034 42.5929 5.07194C42.9683 4.71354 43.1561 4.193 43.1561 3.51034V2.43514H46.5097V5.60953H49.7096V8.60473H46.5097V14.5695C46.5097 15.0303 46.5865 15.4229 46.7401 15.7471C46.9107 16.0714 47.1667 16.3189 47.5081 16.4895C47.8665 16.6602 48.3187 16.7455 48.8648 16.7455C48.9843 16.7455 49.1209 16.737 49.2745 16.7199C49.4451 16.7029 49.6073 16.6858 49.7608 16.6687V19.5359C49.5219 19.5701 49.2489 19.6042 48.9417 19.6383C48.6344 19.6725 48.3529 19.6895 48.0969 19.6895Z" fill="#F5F5F4"/>
<path d="M51.0047 19.5359V0.463937H59.043C60.306 0.463937 61.3812 0.685804 62.2686 1.12954C63.1732 1.5562 63.8644 2.1706 64.3422 2.97274C64.8372 3.7578 65.0846 4.71354 65.0846 5.83993C65.0846 6.71033 64.8457 7.52953 64.3678 8.29753C63.907 9.04847 63.1646 9.6714 62.1406 10.1663V8.55353C63.0793 8.91193 63.8217 9.35567 64.3678 9.88473C64.914 10.4138 65.298 11.0026 65.5198 11.6511C65.7417 12.2997 65.8526 12.9823 65.8526 13.6991C65.8526 15.5253 65.2468 16.9589 64.035 17.9999C62.8404 19.0239 61.1764 19.5359 59.043 19.5359H51.0047ZM54.4862 16.4639H59.4014C60.306 16.4639 61.0228 16.2165 61.5518 15.7215C62.098 15.2095 62.371 14.5354 62.371 13.6991C62.371 12.8629 62.098 12.1887 61.5518 11.6767C61.0228 11.1647 60.306 10.9087 59.4014 10.9087H54.4862V16.4639ZM54.4862 7.86233H59.2222C59.939 7.86233 60.5108 7.65753 60.9374 7.24793C61.3641 6.82127 61.5774 6.27513 61.5774 5.60953C61.5774 4.94394 61.3641 4.41487 60.9374 4.02234C60.5108 3.6298 59.939 3.43354 59.2222 3.43354H54.4862V7.86233Z" fill="#F5F5F4"/>
<path d="M71.047 19.8431C70.0742 19.8431 69.2294 19.681 68.5126 19.3567C67.7958 19.0325 67.2412 18.5717 66.8486 17.9743C66.4561 17.3599 66.2598 16.6517 66.2598 15.8495C66.2598 15.0815 66.4305 14.3989 66.7718 13.8015C67.1132 13.1871 67.6422 12.6751 68.359 12.2655C69.0758 11.8559 69.9804 11.5658 71.0726 11.3951L75.6294 10.6527V13.2127L71.7126 13.8783C71.047 13.9978 70.5521 14.2111 70.2278 14.5183C69.9036 14.8255 69.7414 15.2266 69.7414 15.7215C69.7414 16.1994 69.9206 16.5834 70.279 16.8735C70.6545 17.1466 71.1153 17.2831 71.6614 17.2831C72.3612 17.2831 72.9756 17.1381 73.5046 16.8479C74.0508 16.5407 74.4689 16.1226 74.759 15.5935C75.0662 15.0645 75.2198 14.4842 75.2198 13.8527V10.2687C75.2198 9.6714 74.9809 9.17647 74.503 8.78393C74.0422 8.37433 73.4278 8.16953 72.6598 8.16953C71.943 8.16953 71.303 8.3658 70.7398 8.75833C70.1937 9.1338 69.7926 9.63727 69.5366 10.2687L66.7974 8.93753C67.0705 8.20367 67.4972 7.5722 68.0774 7.04313C68.6748 6.497 69.3745 6.07033 70.1766 5.76313C70.9788 5.45593 71.8492 5.30233 72.7878 5.30233C73.9313 5.30233 74.9382 5.51567 75.8086 5.94233C76.679 6.35193 77.3532 6.9322 77.831 7.68313C78.326 8.417 78.5734 9.27886 78.5734 10.2687V19.5359H75.399V17.1551L76.1158 17.1039C75.7574 17.7013 75.3308 18.2047 74.8358 18.6143C74.3409 19.0069 73.7777 19.3141 73.1462 19.5359C72.5148 19.7407 71.815 19.8431 71.047 19.8431Z" fill="#F5F5F4"/>
<path d="M80.073 19.5359V5.60953H83.2218V8.34873L82.9658 7.86233C83.2901 7.02607 83.8192 6.3946 84.553 5.96793C85.304 5.5242 86.1744 5.30233 87.1642 5.30233C88.1882 5.30233 89.0928 5.5242 89.8778 5.96793C90.68 6.41167 91.3029 7.0346 91.7466 7.83673C92.1904 8.6218 92.4122 9.53486 92.4122 10.5759V19.5359H89.0586V11.3695C89.0586 10.7551 88.9392 10.2261 88.7002 9.78233C88.4613 9.3386 88.1285 8.99727 87.7018 8.75833C87.2922 8.50233 86.8058 8.37433 86.2426 8.37433C85.6965 8.37433 85.2101 8.50233 84.7834 8.75833C84.3568 8.99727 84.024 9.3386 83.785 9.78233C83.5461 10.2261 83.4266 10.7551 83.4266 11.3695V19.5359H80.073Z" fill="#F5F5F4"/>
<path d="M93.648 19.5359V0.156738H97.0016V12.8543L95.7216 12.4703L102.275 5.60953H106.448L101.302 11.2159L106.55 19.5359H102.71L98.1536 12.3167L100.15 11.9071L95.952 16.4127L97.0016 14.3647V19.5359H93.648Z" fill="#F5F5F4"/>
</svg>
