<svg width="33" height="32" viewBox="0 0 33 32" fill="none" xmlns="http://www.w3.org/2000/svg">
<path fill-rule="evenodd" clip-rule="evenodd" d="M16.9038 19.5743C21.1953 19.5743 24.6743 16.0953 24.6743 11.8037C24.6743 7.51219 21.1953 4.03321 16.9038 4.03321H9.1333V11.8037C9.1333 16.0953 12.6123 19.5743 16.9038 19.5743ZM28.5596 11.8037C28.5596 18.241 23.3411 23.4595 16.9038 23.4595C10.4665 23.4595 5.24805 18.241 5.24805 11.8037V0.147949H16.9038C23.3411 0.147949 28.5596 5.36642 28.5596 11.8037Z" fill="#F5F5F4"/>
<path fill-rule="evenodd" clip-rule="evenodd" d="M16.9038 27.9666C21.1953 27.9666 24.6743 24.4876 24.6743 20.1961C24.6743 15.9045 21.1953 12.4255 16.9038 12.4255H9.1333V20.1961C9.1333 24.4876 12.6123 27.9666 16.9038 27.9666ZM28.5596 20.1961C28.5596 26.6334 23.3411 31.8519 16.9038 31.8519C10.4665 31.8519 5.24805 26.6334 5.24805 20.1961V8.54028H16.9038C23.3411 8.54028 28.5596 13.7588 28.5596 20.1961Z" fill="#F5F5F4"/>
</svg>
