<svg width="83" height="20" viewBox="0 0 83 20" fill="none" xmlns="http://www.w3.org/2000/svg">
<path d="M0.256836 19.6001V0.400078H4.99283C6.44349 0.400078 7.59549 0.835278 8.44882 1.70568C9.30215 2.56754 9.72882 3.71101 9.72882 5.13608V7.69608C9.72882 9.11261 9.30215 10.2561 8.44882 11.1265C7.59549 11.9969 6.44349 12.4321 4.99283 12.4321H3.71283V19.6001H0.256836ZM3.71283 8.97608H4.99283C5.40243 8.97608 5.71816 8.86088 5.94003 8.63048C6.16189 8.39155 6.27283 8.08008 6.27283 7.69608V5.13608C6.27283 4.75208 6.16189 4.44488 5.94003 4.21448C5.71816 3.97555 5.40243 3.85608 4.99283 3.85608H3.71283V8.97608Z" fill="#F5F5F4"/>
<path d="M9.49702 19.6001L13.1322 0.400078H16.8698L20.4282 19.6001H16.8954L16.4602 16.6049H13.4906L13.0298 19.6001H9.49702ZM14.0026 13.1489H15.9482L14.7706 5.05928H15.2314L14.0026 13.1489Z" fill="#F5F5F4"/>
<path d="M23.334 19.6001V10.8961L19.3148 0.400078H22.8476L25.5612 8.51528H24.5884L27.2252 0.400078H30.758L26.79 10.8961V19.6001H23.334Z" fill="#F5F5F4"/>
<path d="M36.0668 20.0097C34.6758 20.0097 33.558 19.5745 32.7132 18.7041C31.8769 17.8337 31.4588 16.6902 31.4588 15.2737V14.5057H33.8908V15.2737C33.8908 15.9649 34.087 16.5238 34.4796 16.9505C34.8721 17.3686 35.4012 17.5777 36.0668 17.5777C36.7324 17.5777 37.2614 17.3686 37.654 16.9505C38.0465 16.5238 38.2428 15.9649 38.2428 15.2737V13.6609C38.2428 13.2683 38.23 12.9611 38.2044 12.7393C38.1788 12.5089 38.102 12.3254 37.974 12.1889C37.846 12.0523 37.6326 11.9243 37.334 11.8049C37.0353 11.6769 36.6129 11.5275 36.0668 11.3569C34.9148 10.9899 34.023 10.6827 33.3916 10.4353C32.7601 10.1793 32.3078 9.91048 32.0348 9.62888C31.7617 9.33875 31.5953 8.96328 31.5356 8.50248C31.4844 8.04168 31.4588 7.41448 31.4588 6.62088V4.72648C31.4588 3.30141 31.8769 2.15794 32.7132 1.29608C33.558 0.425679 34.6758 -0.00952148 36.0668 -0.00952148C37.4662 -0.00952148 38.5841 0.425679 39.4204 1.29608C40.2566 2.15794 40.6748 3.30141 40.6748 4.72648V5.49448H38.2428V4.72648C38.2428 4.03528 38.0465 3.48061 37.654 3.06248C37.2614 2.63581 36.7324 2.42248 36.0668 2.42248C35.4012 2.42248 34.8721 2.63581 34.4796 3.06248C34.087 3.48061 33.8908 4.03528 33.8908 4.72648V6.62088C33.8908 7.00488 33.9036 7.31208 33.9292 7.54248C33.9633 7.76434 34.0401 7.94781 34.1596 8.09288C34.2876 8.22941 34.5009 8.35741 34.7996 8.47688C35.1068 8.59634 35.5292 8.74568 36.0668 8.92488C37.2188 9.29181 38.1105 9.59901 38.742 9.84648C39.3734 10.0939 39.8257 10.3627 40.0988 10.6529C40.3718 10.9345 40.534 11.3057 40.5852 11.7665C40.6449 12.2273 40.6748 12.8587 40.6748 13.6609V15.2737C40.6748 16.6902 40.2566 17.8337 39.4204 18.7041C38.5841 19.5745 37.4662 20.0097 36.0668 20.0097Z" fill="#F5F5F4"/>
<path d="M52.3221 14.5057V15.2737C52.3221 16.6902 51.904 17.8337 51.0677 18.7041C50.2315 19.5745 49.1136 20.0097 47.7142 20.0097C46.3232 20.0097 45.2054 19.5745 44.3606 18.7041C43.5243 17.8337 43.1062 16.6902 43.1062 15.2737V4.72648C43.1062 3.30141 43.5243 2.15794 44.3606 1.29608C45.2054 0.425679 46.3232 -0.00952148 47.7142 -0.00952148C49.1136 -0.00952148 50.2315 0.425679 51.0677 1.29608C51.904 2.15794 52.3221 3.30141 52.3221 4.72648V5.49448H49.8901V4.72648C49.8901 4.03528 49.6939 3.48061 49.3013 3.06248C48.9088 2.63581 48.3797 2.42248 47.7142 2.42248C47.0486 2.42248 46.5195 2.63581 46.127 3.06248C45.7344 3.48061 45.5382 4.03528 45.5382 4.72648V15.2737C45.5382 15.9649 45.7344 16.5238 46.127 16.9505C46.5195 17.3686 47.0486 17.5777 47.7142 17.5777C48.3797 17.5777 48.9088 17.3686 49.3013 16.9505C49.6939 16.5238 49.8901 15.9649 49.8901 15.2737V14.5057H52.3221Z" fill="#F5F5F4"/>
<path d="M53.1767 19.6001L57.1703 0.400078H59.7815L63.7367 19.6001H61.2407L60.5495 16.0417H56.3767L55.6727 19.6001H53.1767ZM56.7863 13.6097H60.1399L58.2967 3.79208H58.6551L56.7863 13.6097Z" fill="#F5F5F4"/>
<path d="M68.0697 0.400078V17.1681H72.9337V19.6001H65.6377V0.400078H68.0697Z" fill="#F5F5F4"/>
<path d="M82.5457 0.400078V2.83208H77.1697V8.59208H81.8545V11.0241H77.1697V17.1681H82.5457V19.6001H74.7377V0.400078H82.5457Z" fill="#F5F5F4"/>
</svg>
