<svg width="56" height="56" viewBox="0 0 56 56" fill="none" xmlns="http://www.w3.org/2000/svg">
<path d="M49.9521 26.6293L29.3488 6.02594C28.4854 5.16261 27.2954 4.67261 26.0588 4.67261H9.32878C6.76211 4.67261 4.66211 6.77261 4.66211 9.33927V26.0693C4.66211 27.3059 5.15211 28.4959 6.03878 29.3593L26.6421 49.9626C28.4621 51.7826 31.4254 51.7826 33.2454 49.9626L49.9754 33.2326C51.7954 31.4126 51.7954 28.4726 49.9521 26.6293ZM15.1621 18.6726C13.2254 18.6726 11.6621 17.1093 11.6621 15.1726C11.6621 13.2359 13.2254 11.6726 15.1621 11.6726C17.0988 11.6726 18.6621 13.2359 18.6621 15.1726C18.6621 17.1093 17.0988 18.6726 15.1621 18.6726Z" fill="#84CC16"/>
</svg>
