<svg width="24" height="24" viewBox="0 0 24 24" fill="none" xmlns="http://www.w3.org/2000/svg">
<path d="M8.35414 3.64614C8.26026 3.55226 8.13292 3.49951 8.00014 3.49951C7.86737 3.49951 7.74003 3.55226 7.64614 3.64614C7.55226 3.74003 7.49951 3.86737 7.49951 4.00014C7.49951 4.13292 7.55226 4.26026 7.64614 4.35414L15.2931 12.0001L7.64614 19.6461C7.55226 19.74 7.49951 19.8674 7.49951 20.0001C7.49951 20.1329 7.55226 20.2603 7.64614 20.3541C7.74003 20.448 7.86737 20.5008 8.00014 20.5008C8.13292 20.5008 8.26026 20.448 8.35414 20.3541L16.3541 12.3541C16.4007 12.3077 16.4376 12.2525 16.4629 12.1918C16.4881 12.131 16.501 12.0659 16.501 12.0001C16.501 11.9344 16.4881 11.8693 16.4629 11.8085C16.4376 11.7478 16.4007 11.6926 16.3541 11.6461L8.35414 3.64614Z" fill="#2ABB64"/>
</svg>
