<svg width="192" height="80" viewBox="0 0 192 80" fill="none" xmlns="http://www.w3.org/2000/svg">
<g clip-path="url(#clip0_8_465)">
<path d="M0 34.765V41.8C2.404 41.7983 4.78474 42.2707 7.00599 43.1901C9.22723 44.1095 11.2454 45.4578 12.945 47.158C14.6442 48.8576 15.9917 50.8754 16.9106 53.096C17.8294 55.3167 18.3016 57.6967 18.3 60.1H25.33C25.3236 53.3836 22.6531 46.9439 17.9043 42.1942C13.1555 37.4445 6.71644 34.7727 0 34.765H0Z" fill="black"/>
<path d="M35.157 22.1H24.016C29.652 25.6716 34.4276 30.4465 38 36.082V24.941C37.9995 24.1873 37.6997 23.4647 37.1666 22.932C36.6335 22.3993 35.9107 22.1 35.157 22.1Z" fill="black"/>
<path d="M7 22.1H0V28.434C8.39576 28.4427 16.4452 31.7817 22.3819 37.7183C28.3187 43.655 31.658 51.7042 31.667 60.1H38V53.1C36.5681 45.4065 32.84 38.327 27.3065 32.7935C21.773 27.26 14.6935 23.5319 7 22.1Z" fill="black"/>
<path d="M55.231 26.283H50.769V48.773H55.231V26.283Z" fill="black"/>
<path d="M71.637 36.027C70.8942 35.3518 70.0247 34.8307 69.079 34.494C67.0475 33.7806 64.8335 33.7806 62.802 34.494C61.8559 34.8305 60.986 35.3515 60.243 36.027C59.5143 36.6988 58.9322 37.5138 58.533 38.421C58.1205 39.4107 57.908 40.4723 57.908 41.5445C57.908 42.6167 58.1205 43.6783 58.533 44.668C58.9307 45.5778 59.513 46.3951 60.243 47.068C60.9847 47.744 61.8541 48.2648 62.8 48.6C64.8313 49.3146 67.0457 49.3146 69.077 48.6C70.0232 48.2648 70.8929 47.744 71.635 47.068C72.3647 46.3948 72.947 45.5776 73.345 44.668C73.7576 43.6783 73.97 42.6167 73.97 41.5445C73.97 40.4723 73.7576 39.4107 73.345 38.421C72.9462 37.5141 72.3648 36.6992 71.637 36.027ZM68.573 44.193C67.8505 44.8439 66.9125 45.204 65.94 45.204C64.9675 45.204 64.0295 44.8439 63.307 44.193C62.6997 43.4433 62.3683 42.5078 62.3683 41.543C62.3683 40.5782 62.6997 39.6427 63.307 38.893C64.0295 38.2421 64.9675 37.882 65.94 37.882C66.9125 37.882 67.8505 38.2421 68.573 38.893C69.1803 39.6427 69.5117 40.5782 69.5117 41.543C69.5117 42.5078 69.1803 43.4433 68.573 44.193Z" fill="black"/>
<path d="M87.656 36.22H87.6C87.3936 35.9303 87.154 35.6658 86.886 35.432C86.5613 35.1448 86.2018 34.8995 85.816 34.702C84.8407 34.2016 83.7581 33.9465 82.662 33.959C81.7015 33.9422 80.7515 34.162 79.896 34.599C79.0988 35.0118 78.3949 35.584 77.828 36.28C77.2499 36.9974 76.8064 37.8136 76.519 38.689C76.2134 39.5909 76.0577 40.5367 76.058 41.489C76.0467 42.5111 76.2181 43.5271 76.564 44.489C76.8774 45.3668 77.366 46.1718 78 46.855C78.6317 47.5236 79.3983 48.0502 80.249 48.4C81.1739 48.777 82.1653 48.964 83.164 48.95C83.9027 48.9372 84.6331 48.7912 85.32 48.519C86.0903 48.2268 86.7576 47.7146 87.239 47.046H87.299V48.446C87.3157 48.913 87.2388 49.3786 87.0727 49.8153C86.9066 50.2521 86.6548 50.6511 86.332 50.989C85.9225 51.3513 85.4436 51.6268 84.9245 51.7987C84.4054 51.9706 83.8568 52.0353 83.312 51.989C82.4481 51.9987 81.5918 51.8263 80.799 51.483C80.0101 51.1305 79.2741 50.6701 78.612 50.115L76.143 53.8C77.1522 54.6129 78.3318 55.1875 79.594 55.481C80.843 55.7682 82.1205 55.9128 83.402 55.912C86.218 55.912 88.315 55.203 89.693 53.785C91.071 52.367 91.7603 50.2897 91.761 47.553V34.316H87.661L87.656 36.22ZM87.388 42.809C87.212 43.2323 86.954 43.6167 86.629 43.94C86.2981 44.2697 85.9102 44.5367 85.484 44.728C85.0415 44.9245 84.5627 45.026 84.0785 45.026C83.5943 45.026 83.1155 44.9245 82.673 44.728C82.2525 44.534 81.8696 44.2672 81.542 43.94C81.2156 43.6139 80.9566 43.2267 80.7799 42.8005C80.6032 42.3743 80.5123 41.9174 80.5123 41.456C80.5123 40.9946 80.6032 40.5377 80.7799 40.1115C80.9566 39.6853 81.2156 39.2981 81.542 38.972C81.8698 38.6448 82.2527 38.3777 82.673 38.183C83.1157 37.9872 83.5944 37.886 84.0785 37.886C84.5626 37.886 85.0413 37.9872 85.484 38.183C85.91 38.375 86.2979 38.6423 86.629 38.972C87.1199 39.4654 87.4538 40.0929 87.5889 40.7757C87.724 41.4584 87.6541 42.1659 87.388 42.809Z" fill="black"/>
<path d="M108.524 36.027C107.781 35.3518 106.912 34.8307 105.966 34.494C103.934 33.7806 101.721 33.7806 99.689 34.494C98.7429 34.8305 97.873 35.3515 97.13 36.027C96.4013 36.6988 95.8191 37.5138 95.42 38.421C95.0074 39.4107 94.795 40.4723 94.795 41.5445C94.795 42.6167 95.0074 43.6783 95.42 44.668C95.8177 45.5778 96.3999 46.3951 97.13 47.068C97.8723 47.7442 98.7424 48.2651 99.689 48.6C101.72 49.3146 103.935 49.3146 105.966 48.6C106.912 48.2648 107.782 47.744 108.524 47.068C109.254 46.3951 109.836 45.5778 110.234 44.668C110.647 43.6783 110.859 42.6167 110.859 41.5445C110.859 40.4723 110.647 39.4107 110.234 38.421C109.835 37.5138 109.253 36.6988 108.524 36.027ZM105.46 44.193C104.737 44.8439 103.799 45.204 102.827 45.204C101.855 45.204 100.917 44.8439 100.194 44.193C99.5867 43.4433 99.2553 42.5078 99.2553 41.543C99.2553 40.5782 99.5867 39.6427 100.194 38.893C100.917 38.2421 101.855 37.882 102.827 37.882C103.799 37.882 104.737 38.2421 105.46 38.893C106.067 39.6427 106.399 40.5782 106.399 41.543C106.399 42.5078 106.067 43.4433 105.46 44.193Z" fill="black"/>
<path d="M116.778 34.416H114.385V48.773H116.778V34.416Z" fill="black"/>
<path d="M115.582 27.054C115.35 27.0496 115.12 27.0937 114.906 27.1834C114.691 27.2731 114.499 27.4065 114.339 27.575C114.096 27.8203 113.93 28.1322 113.864 28.4712C113.798 28.8103 113.833 29.1614 113.966 29.4804C114.099 29.7993 114.323 30.0718 114.611 30.2634C114.898 30.4551 115.236 30.5574 115.581 30.5574C115.927 30.5574 116.265 30.4551 116.552 30.2634C116.84 30.0718 117.064 29.7993 117.197 29.4804C117.33 29.1614 117.365 28.8103 117.299 28.4712C117.233 28.1322 117.067 27.8203 116.824 27.575C116.665 27.4064 116.472 27.2729 116.258 27.1832C116.044 27.0935 115.814 27.0495 115.582 27.054Z" fill="black"/>
<path d="M134.479 36.2C133.806 35.5127 132.996 34.9741 132.102 34.619C131.121 34.2322 130.074 34.0396 129.019 34.052C128.025 34.0406 127.043 34.2615 126.15 34.697C125.27 35.1344 124.492 35.7505 123.864 36.506H123.8V34.416H121.41V55.768H123.8V46.228H123.861C124.369 47.1029 125.109 47.8201 126 48.3C127.034 48.8789 128.204 49.1704 129.389 49.144C130.359 49.1501 131.32 48.9568 132.212 48.576C133.073 48.2106 133.851 47.6729 134.497 46.996C135.153 46.3042 135.669 45.4919 136.016 44.604C136.752 42.6669 136.752 40.5271 136.016 38.59C135.666 37.7 135.143 36.8879 134.479 36.2ZM133.635 43.7C133.412 44.3251 133.063 44.8978 132.61 45.3827C132.157 45.8676 131.609 46.2543 131 46.519C129.654 47.0702 128.146 47.0702 126.8 46.519C126.19 46.2543 125.642 45.8673 125.188 45.3819C124.734 44.8964 124.385 44.323 124.162 43.697C123.692 42.3364 123.692 40.8576 124.162 39.497C124.385 38.8711 124.734 38.2976 125.188 37.8122C125.642 37.3267 126.19 36.9397 126.8 36.675C128.146 36.1239 129.654 36.1239 131 36.675C131.61 36.9397 132.158 37.3267 132.612 37.8122C133.066 38.2976 133.415 38.8711 133.638 39.497C134.108 40.8576 134.108 42.3364 133.638 43.697L133.635 43.7Z" fill="black"/>
<path d="M148.622 41.6C148.168 41.26 147.661 40.9959 147.122 40.818C146.53 40.6183 145.925 40.4593 145.312 40.342C144.852 40.2634 144.396 40.1612 143.947 40.036C143.546 39.9272 143.156 39.7833 142.781 39.606C142.48 39.4696 142.209 39.2768 141.981 39.038C141.787 38.8244 141.683 38.5444 141.69 38.256C141.685 37.9448 141.776 37.6397 141.951 37.382C142.123 37.1275 142.348 36.9129 142.61 36.753C142.891 36.5833 143.196 36.4591 143.516 36.385C143.843 36.304 144.179 36.2627 144.516 36.262C145.157 36.242 145.791 36.4073 146.341 36.738C146.837 37.0504 147.253 37.476 147.553 37.98L149.547 36.661C149.105 35.7892 148.388 35.0878 147.506 34.666C146.618 34.2534 145.648 34.044 144.669 34.053C144.005 34.0514 143.344 34.1443 142.706 34.329C142.094 34.5034 141.514 34.7734 140.987 35.129C140.483 35.4694 140.063 35.9205 139.76 36.448C139.446 37.0097 139.287 37.6447 139.3 38.288C139.275 38.9177 139.418 39.5427 139.714 40.099C139.984 40.5643 140.361 40.9585 140.814 41.249C141.314 41.5643 141.856 41.807 142.424 41.97C143.038 42.154 143.682 42.3177 144.357 42.461C144.746 42.543 145.125 42.635 145.492 42.737C145.837 42.8295 146.167 42.9688 146.474 43.151C146.744 43.3114 146.979 43.5255 147.164 43.78C147.348 44.0619 147.44 44.3945 147.425 44.731C147.436 45.0845 147.34 45.4331 147.149 45.731C146.959 46.0133 146.707 46.2491 146.413 46.421C146.095 46.6106 145.748 46.7458 145.385 46.821C145.017 46.9018 144.642 46.943 144.265 46.944C143.519 46.9728 142.781 46.792 142.133 46.422C141.537 46.0428 141.013 45.5614 140.584 45L138.684 46.473C139.272 47.3864 140.107 48.1145 141.092 48.573C142.101 48.9737 143.181 49.1668 144.267 49.141C144.974 49.1416 145.679 49.0594 146.367 48.896C147.022 48.7447 147.645 48.48 148.208 48.114C148.746 47.7568 149.192 47.277 149.508 46.714C149.851 46.075 150.021 45.3571 150 44.632C150.019 44.0086 149.893 43.3893 149.632 42.823C149.394 42.3429 149.048 41.9244 148.622 41.6Z" fill="black"/>
<path d="M165.862 45.368V34.416H163.469V41.416C163.477 42.1707 163.389 42.9233 163.208 43.656C163.055 44.2841 162.783 44.8773 162.408 45.404C162.052 45.8937 161.576 46.2843 161.027 46.539C160.395 46.8196 159.709 46.9562 159.018 46.939C158.551 46.9768 158.081 46.9018 157.648 46.7203C157.216 46.5388 156.833 46.2561 156.533 45.896C155.958 45.0596 155.677 44.0563 155.733 43.043V34.416H153.34V43.282C153.333 44.0857 153.441 44.8862 153.662 45.659C153.854 46.3441 154.196 46.9782 154.662 47.516C155.129 48.0418 155.71 48.4525 156.362 48.716C157.139 49.0191 157.968 49.1652 158.801 49.146C159.362 49.1505 159.92 49.0727 160.458 48.915C160.943 48.7736 161.408 48.5674 161.838 48.302C162.229 48.0609 162.585 47.7668 162.896 47.428C163.175 47.1265 163.408 46.7851 163.587 46.415H163.648C163.648 46.825 163.658 47.225 163.679 47.615C163.7 48.005 163.71 48.3937 163.709 48.781H165.98C165.98 48.3097 165.959 47.788 165.918 47.216C165.877 46.644 165.858 46.028 165.862 45.368Z" fill="black"/>
<path d="M191.724 37.561C191.564 36.8663 191.249 36.2168 190.803 35.661C190.353 35.1233 189.772 34.7101 189.116 34.461C188.29 34.1631 187.416 34.0226 186.539 34.047C185.586 34.0054 184.644 34.257 183.839 34.768C183.093 35.3033 182.466 35.9877 181.999 36.778C181.876 36.532 181.718 36.2507 181.523 35.934C181.306 35.5921 181.031 35.2908 180.71 35.044C180.316 34.7443 179.877 34.5082 179.41 34.344C178.783 34.133 178.123 34.0342 177.461 34.052C176.901 34.0474 176.343 34.1252 175.805 34.283C175.319 34.4244 174.855 34.6306 174.424 34.896C174.033 35.1374 173.677 35.4315 173.366 35.77C173.087 36.0714 172.854 36.4128 172.676 36.783H172.614C172.614 36.373 172.604 35.975 172.584 35.583C172.564 35.191 172.553 34.806 172.553 34.417H170.283C170.283 34.8883 170.303 35.41 170.344 35.982C170.385 36.554 170.405 37.1677 170.405 37.823V48.774H172.8V41.78C172.792 41.025 172.88 40.272 173.061 39.539C173.214 38.9106 173.485 38.3173 173.861 37.791C174.217 37.3012 174.692 36.9105 175.241 36.656C175.873 36.3752 176.56 36.2386 177.251 36.256C177.661 36.221 178.072 36.2951 178.444 36.4708C178.815 36.6464 179.134 36.9173 179.367 37.256C179.881 38.3082 180.103 39.4787 180.012 40.646V48.776H182.4V40.49C182.393 39.8995 182.492 39.3126 182.692 38.757C182.869 38.2645 183.141 37.8113 183.492 37.423C183.823 37.0595 184.225 36.7672 184.673 36.564C185.126 36.359 185.618 36.2542 186.115 36.257C186.706 36.2355 187.294 36.3509 187.833 36.594C188.258 36.7993 188.626 37.1051 188.906 37.485C189.176 37.8611 189.364 38.2891 189.459 38.742C189.561 39.2158 189.613 39.6992 189.612 40.184V48.774H192V40.061C192.009 39.2196 191.916 38.3802 191.724 37.561Z" fill="black"/>
</g>
<defs>
<clipPath id="clip0_8_465">
<rect width="192" height="80" fill="white"/>
</clipPath>
</defs>
</svg>
