<svg width="1197" height="287" viewBox="0 0 1197 287" fill="none" xmlns="http://www.w3.org/2000/svg">
<rect x="883" y="164.313" width="16" height="16" rx="4" transform="rotate(-45 883 164.313)" fill="#FF8345"/>
<rect x="25" y="267.313" width="16" height="16" rx="4" transform="rotate(-45 25 267.313)" fill="#FFCA45"/>
<rect x="1104" y="42.314" width="16" height="16" rx="4" transform="rotate(-45 1104 42.314)" fill="#2ABB64"/>
<circle cx="1097" cy="187.001" r="4" fill="#2ABB64"/>
<circle cx="1097" cy="219.001" r="4" fill="#2ABB64"/>
<circle cx="1097" cy="251.001" r="4" fill="#2ABB64"/>
<circle cx="1097" cy="283.001" r="4" fill="#2ABB64"/>
<circle cx="1129" cy="187.001" r="4" fill="#2ABB64"/>
<circle cx="1129" cy="219.001" r="4" fill="#2ABB64"/>
<circle cx="1129" cy="251.001" r="4" fill="#2ABB64"/>
<circle cx="1129" cy="283.001" r="4" fill="#2ABB64"/>
<circle cx="1161" cy="187.001" r="4" fill="#2ABB64"/>
<circle cx="1161" cy="219.001" r="4" fill="#2ABB64"/>
<circle cx="1161" cy="251.001" r="4" fill="#2ABB64"/>
<circle cx="1161" cy="283.001" r="4" fill="#2ABB64"/>
<circle cx="1193" cy="187.001" r="4" fill="#2ABB64"/>
<circle cx="1193" cy="219.001" r="4" fill="#2ABB64"/>
<circle cx="1193" cy="251.001" r="4" fill="#2ABB64"/>
<circle cx="1193" cy="283.001" r="4" fill="#2ABB64"/>
<circle cx="4" cy="4" r="4" fill="#2ABB64"/>
<circle cx="4" cy="36" r="4" fill="#2ABB64"/>
<circle cx="4" cy="68" r="4" fill="#2ABB64"/>
<circle cx="4" cy="100" r="4" fill="#2ABB64"/>
<circle cx="36" cy="4" r="4" fill="#2ABB64"/>
<circle cx="36" cy="36" r="4" fill="#2ABB64"/>
<circle cx="36" cy="68" r="4" fill="#2ABB64"/>
<circle cx="36" cy="100" r="4" fill="#2ABB64"/>
<circle cx="68" cy="4" r="4" fill="#2ABB64"/>
<circle cx="68" cy="36" r="4" fill="#2ABB64"/>
<circle cx="68" cy="68" r="4" fill="#2ABB64"/>
<circle cx="68" cy="100" r="4" fill="#2ABB64"/>
<circle cx="100" cy="4" r="4" fill="#2ABB64"/>
<circle cx="100" cy="36" r="4" fill="#2ABB64"/>
<circle cx="100" cy="68" r="4" fill="#2ABB64"/>
<circle cx="100" cy="100" r="4" fill="#2ABB64"/>
</svg>
