<svg width="1352" height="511" viewBox="0 0 1352 511" fill="none" xmlns="http://www.w3.org/2000/svg">
<rect y="106.314" width="16" height="16" rx="4" transform="rotate(-45 0 106.314)" fill="#FF8345"/>
<rect x="432" y="499.314" width="16" height="16" rx="4" transform="rotate(-45 432 499.314)" fill="#FFCA45"/>
<rect x="865" y="11.3137" width="16" height="16" rx="4" transform="rotate(-45 865 11.3137)" fill="#2ABB64"/>
<circle cx="844" cy="123" r="4" fill="#2ABB64"/>
<circle cx="844" cy="155" r="4" fill="#2ABB64"/>
<circle cx="844" cy="187" r="4" fill="#2ABB64"/>
<circle cx="844" cy="219" r="4" fill="#2ABB64"/>
<circle cx="844" cy="251" r="4" fill="#2ABB64"/>
<circle cx="876" cy="123" r="4" fill="#2ABB64"/>
<circle cx="876" cy="155" r="4" fill="#2ABB64"/>
<circle cx="876" cy="187" r="4" fill="#2ABB64"/>
<circle cx="876" cy="219" r="4" fill="#2ABB64"/>
<circle cx="876" cy="251" r="4" fill="#2ABB64"/>
<circle cx="908" cy="123" r="4" fill="#2ABB64"/>
<circle cx="908" cy="155" r="4" fill="#2ABB64"/>
<circle cx="908" cy="187" r="4" fill="#2ABB64"/>
<circle cx="908" cy="219" r="4" fill="#2ABB64"/>
<circle cx="908" cy="251" r="4" fill="#2ABB64"/>
<circle cx="940" cy="123" r="4" fill="#2ABB64"/>
<circle cx="940" cy="155" r="4" fill="#2ABB64"/>
<circle cx="940" cy="187" r="4" fill="#2ABB64"/>
<circle cx="940" cy="219" r="4" fill="#2ABB64"/>
<circle cx="940" cy="251" r="4" fill="#2ABB64"/>
<circle cx="972" cy="123" r="4" fill="#2ABB64"/>
<circle cx="972" cy="155" r="4" fill="#2ABB64"/>
<circle cx="972" cy="187" r="4" fill="#2ABB64"/>
<circle cx="972" cy="219" r="4" fill="#2ABB64"/>
<circle cx="972" cy="251" r="4" fill="#2ABB64"/>
<circle cx="1220" cy="363" r="4" fill="#2ABB64"/>
<circle cx="1220" cy="395" r="4" fill="#2ABB64"/>
<circle cx="1220" cy="427" r="4" fill="#2ABB64"/>
<circle cx="1220" cy="459" r="4" fill="#2ABB64"/>
<circle cx="1220" cy="491" r="4" fill="#2ABB64"/>
<circle cx="1252" cy="363" r="4" fill="#2ABB64"/>
<circle cx="1252" cy="395" r="4" fill="#2ABB64"/>
<circle cx="1252" cy="427" r="4" fill="#2ABB64"/>
<circle cx="1252" cy="459" r="4" fill="#2ABB64"/>
<circle cx="1252" cy="491" r="4" fill="#2ABB64"/>
<circle cx="1284" cy="363" r="4" fill="#2ABB64"/>
<circle cx="1284" cy="395" r="4" fill="#2ABB64"/>
<circle cx="1284" cy="427" r="4" fill="#2ABB64"/>
<circle cx="1284" cy="459" r="4" fill="#2ABB64"/>
<circle cx="1284" cy="491" r="4" fill="#2ABB64"/>
<circle cx="1316" cy="363" r="4" fill="#2ABB64"/>
<circle cx="1316" cy="395" r="4" fill="#2ABB64"/>
<circle cx="1316" cy="427" r="4" fill="#2ABB64"/>
<circle cx="1316" cy="459" r="4" fill="#2ABB64"/>
<circle cx="1316" cy="491" r="4" fill="#2ABB64"/>
<circle cx="1348" cy="363" r="4" fill="#2ABB64"/>
<circle cx="1348" cy="395" r="4" fill="#2ABB64"/>
<circle cx="1348" cy="427" r="4" fill="#2ABB64"/>
<circle cx="1348" cy="459" r="4" fill="#2ABB64"/>
<circle cx="1348" cy="491" r="4" fill="#2ABB64"/>
</svg>
