<svg width="32" height="32" viewBox="0 0 32 32" fill="none" xmlns="http://www.w3.org/2000/svg">
<path d="M15.9998 2.6665C13.5254 2.66933 11.153 3.65356 9.40329 5.40329C7.65356 7.15302 6.66933 9.52535 6.6665 11.9998C6.6665 19.1372 14.7145 27.2665 15.0572 27.6092L15.9998 28.5518L16.9425 27.6092C17.2852 27.2665 25.3332 19.1372 25.3332 11.9998C25.3303 9.52535 24.3461 7.15302 22.5964 5.40329C20.8467 3.65356 18.4743 2.66933 15.9998 2.6665ZM15.9998 24.7105C13.9612 22.4332 9.33317 16.7372 9.33317 11.9998C9.33317 10.2317 10.0355 8.53603 11.2858 7.28579C12.536 6.03555 14.2317 5.33317 15.9998 5.33317C17.7679 5.33317 19.4636 6.03555 20.7139 7.28579C21.9641 8.53603 22.6665 10.2317 22.6665 11.9998C22.6665 16.7278 18.0358 22.4305 15.9998 24.7105Z" fill="#808080"/>
<path d="M16 8C15.2089 8 14.4355 8.2346 13.7777 8.67412C13.1199 9.11365 12.6072 9.73836 12.3045 10.4693C12.0017 11.2002 11.9225 12.0044 12.0769 12.7804C12.2312 13.5563 12.6122 14.269 13.1716 14.8284C13.731 15.3878 14.4437 15.7688 15.2196 15.9231C15.9956 16.0775 16.7998 15.9983 17.5307 15.6955C18.2616 15.3928 18.8864 14.8801 19.3259 14.2223C19.7654 13.5645 20 12.7911 20 12C20 10.9391 19.5786 9.92172 18.8284 9.17157C18.0783 8.42143 17.0609 8 16 8ZM16 13.3333C15.7363 13.3333 15.4785 13.2551 15.2592 13.1086C15.04 12.9621 14.8691 12.7539 14.7682 12.5102C14.6672 12.2666 14.6408 11.9985 14.6923 11.7399C14.7437 11.4812 14.8707 11.2437 15.0572 11.0572C15.2437 10.8707 15.4812 10.7437 15.7399 10.6923C15.9985 10.6408 16.2666 10.6672 16.5102 10.7682C16.7539 10.8691 16.9621 11.04 17.1086 11.2592C17.2551 11.4785 17.3333 11.7363 17.3333 12C17.3333 12.3536 17.1929 12.6928 16.9428 12.9428C16.6928 13.1929 16.3536 13.3333 16 13.3333Z" fill="#808080"/>
</svg>
