<svg width="32" height="32" viewBox="0 0 32 32" fill="none" xmlns="http://www.w3.org/2000/svg">
<path d="M29.5879 20.652L29.5372 19.5493L20.8932 18.3147L19.1399 21.7467C17.2887 20.7044 15.5964 19.4023 14.1145 17.88C12.5753 16.4005 11.2638 14.7012 10.2225 12.8373L13.9559 10.9707L10.2225 2.27734L9.20921 2.42401C7.49303 2.66042 5.90306 3.45728 4.68654 4.69068C0.455878 8.91601 2.11321 17.2 8.45721 23.5427C12.4332 27.5173 17.1679 29.652 21.1919 29.6507C22.3166 29.6899 23.4378 29.5032 24.4892 29.1018C25.5406 28.7003 26.5008 28.0922 27.3132 27.3133C28.143 26.4278 28.775 25.3759 29.1672 24.2274C29.5594 23.0789 29.7028 21.8602 29.5879 20.652ZM25.4279 25.428C22.3612 28.4947 15.4532 26.7613 10.3425 21.6573C5.23188 16.5533 3.50521 9.63868 6.57188 6.57201C7.14353 5.99268 7.84318 5.55563 8.61454 5.29601L10.5079 9.71334L9.03188 10.4507C8.71215 10.6108 8.4277 10.8333 8.19528 11.1051C7.96287 11.3768 7.78719 11.6923 7.67859 12.033C7.56999 12.3737 7.53068 12.7327 7.56296 13.0889C7.59524 13.445 7.69846 13.7911 7.86654 14.1067C9.03368 16.1976 10.5013 18.1059 12.2225 19.7707C13.8878 21.4726 15.7884 22.927 17.8665 24.0893C18.1869 24.2632 18.5387 24.3713 18.9014 24.4073C19.2641 24.4432 19.6303 24.4063 19.9785 24.2987C20.3191 24.1927 20.6346 24.0187 20.906 23.7872C21.1773 23.5557 21.3989 23.2716 21.5572 22.952L22.4199 21.2267L26.9092 21.868C26.858 23.1939 26.3323 24.4572 25.4279 25.428Z" fill="#808080"/>
</svg>
